<ttFont>
    <TTGlyph name="A" xMin="-42" yMin="0" xMax="1568" yMax="1578">
      <contour>
        <pt x="-42" y="82" on="1"/>
        <pt x="9" y="96" on="0"/>
        <pt x="90" y="118" on="0"/>
        <pt x="119" y="138" on="1"/>
        <pt x="630" y="1424" on="1"/>
        <pt x="543" y="1456" on="1"/>
        <pt x="542" y="1506" on="1"/>
        <pt x="585" y="1516" on="0"/>
        <pt x="644" y="1530" on="0"/>
        <pt x="700" y="1545" on="0"/>
        <pt x="766" y="1563" on="0"/>
        <pt x="817" y="1578" on="1"/>
        <pt x="830" y="1543" on="0"/>
        <pt x="853" y="1489" on="0"/>
        <pt x="881" y="1426" on="0"/>
        <pt x="919" y="1341" on="0"/>
        <pt x="975" y="1211" on="0"/>
        <pt x="1054" y="1023" on="0"/>
        <pt x="1166" y="751" on="0"/>
        <pt x="1315" y="384" on="0"/>
        <pt x="1413" y="141" on="1"/>
        <pt x="1402" y="137" on="1"/>
        <pt x="1568" y="82" on="1"/>
        <pt x="1568" y="0" on="1"/>
        <pt x="972" y="0" on="1"/>
        <pt x="972" y="82" on="1"/>
        <pt x="1007" y="91" on="0"/>
        <pt x="1065" y="107" on="0"/>
        <pt x="1110" y="127" on="0"/>
        <pt x="1144" y="154" on="0"/>
        <pt x="1155" y="174" on="1"/>
        <pt x="1138" y="219" on="0"/>
        <pt x="1076" y="380" on="0"/>
        <pt x="1025" y="510" on="1"/>
        <pt x="425" y="510" on="1"/>
        <pt x="287" y="129" on="1"/>
        <pt x="490" y="82" on="1"/>
        <pt x="490" y="0" on="1"/>
        <pt x="-42" y="0" on="1"/>
      </contour>
      <contour>
        <pt x="978" y="631" on="1"/>
        <pt x="713" y="1297" on="1"/>
        <pt x="701" y="1274" on="0"/>
        <pt x="688" y="1235" on="1"/>
        <pt x="469" y="631" on="1"/>
      </contour>
    </TTGlyph>
    <TTGlyph name="AE" xMin="-60" yMin="-18" xMax="1929" yMax="1549">
      <contour>
        <pt x="-60" y="82" on="1"/>
        <pt x="-32" y="90" on="0"/>
        <pt x="25" y="103" on="0"/>
        <pt x="79" y="118" on="0"/>
        <pt x="127" y="135" on="0"/>
        <pt x="147" y="147" on="1"/>
        <pt x="693" y="1411" on="1"/>
        <pt x="394" y="1431" on="1"/>
        <pt x="394" y="1530" on="1"/>
        <pt x="969" y="1530" on="1"/>
        <pt x="1651" y="1529" on="1"/>
        <pt x="1804" y="1549" on="1"/>
        <pt x="1804" y="1137" on="1"/>
        <pt x="1700" y="1135" on="1"/>
        <pt x="1627" y="1384" on="1"/>
        <pt x="1480" y="1390" on="0"/>
        <pt x="1294" y="1396" on="0"/>
        <pt x="1241" y="1398" on="1"/>
        <pt x="1179" y="1400" on="0"/>
        <pt x="1149" y="1399" on="1"/>
        <pt x="1148" y="831" on="1"/>
        <pt x="1590" y="860" on="1"/>
        <pt x="1590" y="680" on="1"/>
        <pt x="1148" y="715" on="1"/>
        <pt x="1148" y="122" on="1"/>
        <pt x="1729" y="143" on="1"/>
        <pt x="1821" y="430" on="1"/>
        <pt x="1929" y="430" on="1"/>
        <pt x="1910" y="-18" on="1"/>
        <pt x="1769" y="0" on="1"/>
        <pt x="772" y="0" on="1"/>
        <pt x="772" y="79" on="1"/>
        <pt x="822" y="93" on="0"/>
        <pt x="885" y="116" on="0"/>
        <pt x="920" y="157" on="0"/>
        <pt x="932" y="224" on="0"/>
        <pt x="932" y="281" on="1"/>
        <pt x="932" y="561" on="1"/>
        <pt x="497" y="561" on="1"/>
        <pt x="325" y="123" on="1"/>
        <pt x="522" y="82" on="1"/>
        <pt x="522" y="0" on="1"/>
        <pt x="-60" y="0" on="1"/>
      </contour>
      <contour>
        <pt x="932" y="675" on="1"/>
        <pt x="932" y="1396" on="1"/>
        <pt x="918" y="1396" on="0"/>
        <pt x="881" y="1395" on="0"/>
        <pt x="840" y="1376" on="0"/>
        <pt x="800" y="1331" on="0"/>
        <pt x="783" y="1288" on="1"/>
        <pt x="542" y="675" on="1"/>
      </contour>
    </TTGlyph>
    <TTGlyph name="AEacute" xMin="0" yMin="-18" xMax="1989" yMax="2000">
      <component glyphName="AE" x="60" y="0" flags="0x4"/>
      <component glyphName="acute.cap" x="924" y="0" flags="0x4"/>
    </TTGlyph>
    <TTGlyph name="Aacute" xMin="-42" yMin="0" xMax="1568" yMax="2000">
      <component glyphName="A" x="0" y="0" flags="0x204"/>
      <component glyphName="acute.cap" x="451" y="0" flags="0x4"/>
    </TTGlyph>
    <TTGlyph name="Abreve" xMin="-42" yMin="0" xMax="1568" yMax="2000">
      <component glyphName="A" x="0" y="0" flags="0x204"/>
      <component glyphName="breve.cap" x="282" y="0" flags="0x4"/>
    </TTGlyph>
    <TTGlyph name="Acircumflex" xMin="-42" yMin="0" xMax="1568" yMax="2000">
      <component glyphName="A" x="0" y="0" flags="0x204"/>
      <component glyphName="circumflex.cap" x="262" y="0" flags="0x4"/>
    </TTGlyph>
    <TTGlyph name="Adieresis" xMin="-42" yMin="0" xMax="1568" yMax="2000">
      <component glyphName="A" x="0" y="0" flags="0x204"/>
      <component glyphName="dieresis.cap" x="266" y="0" flags="0x4"/>
    </TTGlyph>
    <TTGlyph name="Agrave" xMin="-42" yMin="0" xMax="1568" yMax="2000">
      <component glyphName="A" x="0" y="0" flags="0x204"/>
      <component glyphName="grave.cap" x="336" y="0" flags="0x4"/>
    </TTGlyph>
    <TTGlyph name="Amacron" xMin="-42" yMin="0" xMax="1568" yMax="1982">
      <component glyphName="A" x="0" y="0" flags="0x204"/>
      <component glyphName="macron.cap" x="322" y="0" flags="0x4"/>
    </TTGlyph>
    <TTGlyph name="Aogonek" xMin="-42" yMin="-498" xMax="1568" yMax="1578">
      <contour>
        <pt x="-42" y="82" on="1"/>
        <pt x="9" y="96" on="0"/>
        <pt x="90" y="118" on="0"/>
        <pt x="119" y="138" on="1"/>
        <pt x="630" y="1424" on="1"/>
        <pt x="543" y="1456" on="1"/>
        <pt x="542" y="1506" on="1"/>
        <pt x="585" y="1516" on="0"/>
        <pt x="644" y="1530" on="0"/>
        <pt x="700" y="1545" on="0"/>
        <pt x="766" y="1563" on="0"/>
        <pt x="817" y="1578" on="1"/>
        <pt x="830" y="1543" on="0"/>
        <pt x="853" y="1489" on="0"/>
        <pt x="881" y="1426" on="0"/>
        <pt x="919" y="1341" on="0"/>
        <pt x="975" y="1211" on="0"/>
        <pt x="1054" y="1023" on="0"/>
        <pt x="1166" y="751" on="0"/>
        <pt x="1315" y="384" on="0"/>
        <pt x="1413" y="141" on="1"/>
        <pt x="1402" y="137" on="1"/>
        <pt x="1568" y="82" on="1"/>
        <pt x="1568" y="0" on="1"/>
        <pt x="1439" y="0" on="1"/>
        <pt x="1366" y="-46" on="0"/>
        <pt x="1283" y="-150" on="0"/>
        <pt x="1271" y="-194" on="1"/>
        <pt x="1260" y="-235" on="0"/>
        <pt x="1279" y="-288" on="0"/>
        <pt x="1315" y="-320" on="0"/>
        <pt x="1358" y="-333" on="0"/>
        <pt x="1372" y="-333" on="1"/>
        <pt x="1385" y="-333" on="0"/>
        <pt x="1418" y="-332" on="0"/>
        <pt x="1452" y="-326" on="0"/>
        <pt x="1489" y="-314" on="0"/>
        <pt x="1507" y="-303" on="1"/>
        <pt x="1554" y="-435" on="1"/>
        <pt x="1543" y="-444" on="0"/>
        <pt x="1501" y="-466" on="0"/>
        <pt x="1446" y="-485" on="0"/>
        <pt x="1380" y="-498" on="0"/>
        <pt x="1344" y="-498" on="1"/>
        <pt x="1281" y="-498" on="0"/>
        <pt x="1177" y="-456" on="0"/>
        <pt x="1108" y="-383" on="0"/>
        <pt x="1082" y="-283" on="0"/>
        <pt x="1098" y="-225" on="1"/>
        <pt x="1106" y="-190" on="0"/>
        <pt x="1140" y="-124" on="0"/>
        <pt x="1187" y="-66" on="0"/>
        <pt x="1244" y="-18" on="0"/>
        <pt x="1275" y="0" on="1"/>
        <pt x="972" y="0" on="1"/>
        <pt x="972" y="82" on="1"/>
        <pt x="1007" y="91" on="0"/>
        <pt x="1065" y="107" on="0"/>
        <pt x="1110" y="127" on="0"/>
        <pt x="1144" y="154" on="0"/>
        <pt x="1155" y="174" on="1"/>
        <pt x="1138" y="219" on="0"/>
        <pt x="1076" y="380" on="0"/>
        <pt x="1025" y="510" on="1"/>
        <pt x="425" y="510" on="1"/>
        <pt x="287" y="129" on="1"/>
        <pt x="490" y="82" on="1"/>
        <pt x="490" y="0" on="1"/>
        <pt x="-42" y="0" on="1"/>
      </contour>
      <contour>
        <pt x="978" y="631" on="1"/>
        <pt x="713" y="1297" on="1"/>
        <pt x="701" y="1274" on="0"/>
        <pt x="688" y="1235" on="1"/>
        <pt x="469" y="631" on="1"/>
      </contour>
    </TTGlyph>
    <TTGlyph name="Aring" xMin="-42" yMin="0" xMax="1568" yMax="1947">
      <contour>
        <pt x="-42" y="82" on="1"/>
        <pt x="9" y="96" on="0"/>
        <pt x="90" y="118" on="0"/>
        <pt x="119" y="138" on="1"/>
        <pt x="630" y="1424" on="1"/>
        <pt x="543" y="1456" on="1"/>
        <pt x="542" y="1506" on="1"/>
        <pt x="575" y="1514" on="1"/>
        <pt x="533" y="1546" on="0"/>
        <pt x="482" y="1642" on="0"/>
        <pt x="482" y="1702" on="1"/>
        <pt x="482" y="1756" on="0"/>
        <pt x="523" y="1846" on="0"/>
        <pt x="593" y="1911" on="0"/>
        <pt x="685" y="1947" on="0"/>
        <pt x="735" y="1947" on="1"/>
        <pt x="786" y="1947" on="0"/>
        <pt x="877" y="1911" on="0"/>
        <pt x="946" y="1846" on="0"/>
        <pt x="987" y="1756" on="0"/>
        <pt x="987" y="1702" on="1"/>
        <pt x="987" y="1631" on="0"/>
        <pt x="912" y="1519" on="0"/>
        <pt x="853" y="1489" on="1"/>
        <pt x="867" y="1457" on="0"/>
        <pt x="901" y="1381" on="0"/>
        <pt x="955" y="1258" on="0"/>
        <pt x="1033" y="1073" on="0"/>
        <pt x="1148" y="794" on="0"/>
        <pt x="1306" y="406" on="0"/>
        <pt x="1413" y="141" on="1"/>
        <pt x="1402" y="137" on="1"/>
        <pt x="1568" y="82" on="1"/>
        <pt x="1568" y="0" on="1"/>
        <pt x="972" y="0" on="1"/>
        <pt x="972" y="82" on="1"/>
        <pt x="1007" y="91" on="0"/>
        <pt x="1065" y="107" on="0"/>
        <pt x="1110" y="127" on="0"/>
        <pt x="1144" y="154" on="0"/>
        <pt x="1155" y="174" on="1"/>
        <pt x="1138" y="219" on="0"/>
        <pt x="1076" y="380" on="0"/>
        <pt x="1025" y="510" on="1"/>
        <pt x="425" y="510" on="1"/>
        <pt x="287" y="129" on="1"/>
        <pt x="490" y="82" on="1"/>
        <pt x="490" y="0" on="1"/>
        <pt x="-42" y="0" on="1"/>
      </contour>
      <contour>
        <pt x="732" y="1552" on="1"/>
        <pt x="760" y="1552" on="0"/>
        <pt x="813" y="1573" on="0"/>
        <pt x="854" y="1612" on="0"/>
        <pt x="878" y="1668" on="0"/>
        <pt x="878" y="1702" on="1"/>
        <pt x="878" y="1729" on="0"/>
        <pt x="860" y="1784" on="0"/>
        <pt x="825" y="1829" on="0"/>
        <pt x="771" y="1858" on="0"/>
        <pt x="735" y="1858" on="1"/>
        <pt x="700" y="1858" on="0"/>
        <pt x="646" y="1829" on="0"/>
        <pt x="610" y="1784" on="0"/>
        <pt x="591" y="1729" on="0"/>
        <pt x="591" y="1702" on="1"/>
        <pt x="591" y="1669" on="0"/>
        <pt x="615" y="1613" on="0"/>
        <pt x="654" y="1574" on="0"/>
        <pt x="705" y="1552" on="0"/>
      </contour>
      <contour>
        <pt x="978" y="631" on="1"/>
        <pt x="713" y="1297" on="1"/>
        <pt x="701" y="1274" on="0"/>
        <pt x="688" y="1235" on="1"/>
        <pt x="469" y="631" on="1"/>
      </contour>
    </TTGlyph>
    <TTGlyph name="Atilde" xMin="-42" yMin="0" xMax="1568" yMax="1964">
      <component glyphName="A" x="0" y="0" flags="0x204"/>
      <component glyphName="tilde.cap" x="229" y="0" flags="0x4"/>
    </TTGlyph>
    <TTGlyph name="B" xMin="110" yMin="-30" xMax="1294" yMax="1542">
      <contour>
        <pt x="110" y="78" on="1"/>
        <pt x="160" y="92" on="0"/>
        <pt x="224" y="115" on="0"/>
        <pt x="261" y="155" on="0"/>
        <pt x="275" y="222" on="0"/>
        <pt x="275" y="279" on="1"/>
        <pt x="275" y="1397" on="1"/>
        <pt x="110" y="1451" on="1"/>
        <pt x="110" y="1530" on="1"/>
        <pt x="313" y="1530" on="1"/>
        <pt x="355" y="1530" on="0"/>
        <pt x="453" y="1534" on="0"/>
        <pt x="549" y="1538" on="0"/>
        <pt x="637" y="1542" on="0"/>
        <pt x="670" y="1542" on="1"/>
        <pt x="730" y="1542" on="0"/>
        <pt x="851" y="1531" on="0"/>
        <pt x="963" y="1504" on="0"/>
        <pt x="1061" y="1457" on="0"/>
        <pt x="1133" y="1385" on="0"/>
        <pt x="1175" y="1285" on="0"/>
        <pt x="1175" y="1218" on="1"/>
        <pt x="1175" y="1134" on="0"/>
        <pt x="1131" y="1003" on="0"/>
        <pt x="1066" y="902" on="0"/>
        <pt x="990" y="831" on="0"/>
        <pt x="957" y="809" on="1"/>
        <pt x="1024" y="790" on="0"/>
        <pt x="1147" y="727" on="0"/>
        <pt x="1239" y="632" on="0"/>
        <pt x="1294" y="501" on="0"/>
        <pt x="1294" y="415" on="1"/>
        <pt x="1294" y="332" on="0"/>
        <pt x="1247" y="202" on="0"/>
        <pt x="1168" y="103" on="0"/>
        <pt x="1062" y="34" on="0"/>
        <pt x="945" y="-10" on="0"/>
        <pt x="824" y="-30" on="0"/>
        <pt x="768" y="-30" on="1"/>
        <pt x="735" y="-30" on="0"/>
        <pt x="631" y="-21" on="0"/>
        <pt x="513" y="-9" on="0"/>
        <pt x="393" y="0" on="0"/>
        <pt x="345" y="0" on="1"/>
        <pt x="110" y="0" on="1"/>
      </contour>
      <contour>
        <pt x="491" y="837" on="1"/>
        <pt x="518" y="840" on="0"/>
        <pt x="607" y="846" on="0"/>
        <pt x="667" y="846" on="1"/>
        <pt x="706" y="846" on="0"/>
        <pt x="791" y="841" on="0"/>
        <pt x="835" y="834" on="1"/>
        <pt x="855" y="853" on="0"/>
        <pt x="899" y="909" on="0"/>
        <pt x="935" y="983" on="0"/>
        <pt x="959" y="1074" on="0"/>
        <pt x="959" y="1130" on="1"/>
        <pt x="959" y="1220" on="0"/>
        <pt x="909" y="1337" on="0"/>
        <pt x="822" y="1404" on="0"/>
        <pt x="704" y="1431" on="0"/>
        <pt x="636" y="1431" on="1"/>
        <pt x="595" y="1431" on="0"/>
        <pt x="520" y="1424" on="0"/>
        <pt x="491" y="1420" on="1"/>
      </contour>
      <contour>
        <pt x="491" y="121" on="1"/>
        <pt x="546" y="110" on="0"/>
        <pt x="612" y="98" on="0"/>
        <pt x="664" y="92" on="0"/>
        <pt x="716" y="91" on="0"/>
        <pt x="758" y="91" on="1"/>
        <pt x="791" y="91" on="0"/>
        <pt x="858" y="96" on="0"/>
        <pt x="921" y="107" on="0"/>
        <pt x="974" y="122" on="0"/>
        <pt x="993" y="132" on="1"/>
        <pt x="1010" y="153" on="0"/>
        <pt x="1039" y="197" on="0"/>
        <pt x="1061" y="254" on="0"/>
        <pt x="1074" y="328" on="0"/>
        <pt x="1074" y="379" on="1"/>
        <pt x="1074" y="445" on="0"/>
        <pt x="1029" y="570" on="0"/>
        <pt x="937" y="667" on="0"/>
        <pt x="797" y="725" on="0"/>
        <pt x="703" y="725" on="1"/>
        <pt x="616" y="725" on="0"/>
        <pt x="519" y="721" on="0"/>
        <pt x="491" y="718" on="1"/>
      </contour>
    </TTGlyph>
    <TTGlyph name="C" xMin="100" yMin="-21" xMax="1403" yMax="1549">
      <contour>
        <pt x="100" y="737" on="1"/>
        <pt x="100" y="838" on="0"/>
        <pt x="144" y="1037" on="0"/>
        <pt x="230" y="1218" on="0"/>
        <pt x="358" y="1372" on="0"/>
        <pt x="528" y="1485" on="0"/>
        <pt x="737" y="1549" on="0"/>
        <pt x="862" y="1549" on="1"/>
        <pt x="968" y="1549" on="0"/>
        <pt x="1159" y="1519" on="0"/>
        <pt x="1233" y="1502" on="1"/>
        <pt x="1319" y="1482" on="0"/>
        <pt x="1394" y="1456" on="1"/>
        <pt x="1346" y="1080" on="1"/>
        <pt x="1233" y="1080" on="1"/>
        <pt x="1186" y="1298" on="1"/>
        <pt x="1147" y="1328" on="0"/>
        <pt x="1055" y="1366" on="0"/>
        <pt x="953" y="1389" on="0"/>
        <pt x="843" y="1398" on="0"/>
        <pt x="786" y="1398" on="1"/>
        <pt x="699" y="1398" on="0"/>
        <pt x="534" y="1350" on="0"/>
        <pt x="471" y="1307" on="1"/>
        <pt x="431" y="1260" on="0"/>
        <pt x="372" y="1146" on="0"/>
        <pt x="334" y="1024" on="0"/>
        <pt x="315" y="899" on="0"/>
        <pt x="315" y="841" on="1"/>
        <pt x="315" y="694" on="0"/>
        <pt x="388" y="443" on="0"/>
        <pt x="545" y="258" on="0"/>
        <pt x="793" y="153" on="0"/>
        <pt x="968" y="153" on="1"/>
        <pt x="983" y="153" on="0"/>
        <pt x="1073" y="181" on="0"/>
        <pt x="1190" y="223" on="0"/>
        <pt x="1315" y="271" on="0"/>
        <pt x="1364" y="291" on="1"/>
        <pt x="1403" y="209" on="1"/>
        <pt x="1267" y="120" on="0"/>
        <pt x="1072" y="26" on="0"/>
        <pt x="943" y="-16" on="0"/>
        <pt x="871" y="-21" on="0"/>
        <pt x="858" y="-21" on="1"/>
        <pt x="730" y="-21" on="0"/>
        <pt x="519" y="38" on="0"/>
        <pt x="350" y="142" on="0"/>
        <pt x="225" y="286" on="0"/>
        <pt x="141" y="454" on="0"/>
        <pt x="100" y="641" on="0"/>
      </contour>
    </TTGlyph>
    <TTGlyph name="Cacute" xMin="100" yMin="-21" xMax="1403" yMax="2000">
      <component glyphName="C" x="0" y="0" flags="0x204"/>
      <component glyphName="acute.cap" x="588" y="0" flags="0x4"/>
    </TTGlyph>
    <TTGlyph name="Ccaron" xMin="100" yMin="-21" xMax="1403" yMax="2000">
      <component glyphName="C" x="0" y="0" flags="0x204"/>
      <component glyphName="caron.cap" x="399" y="0" flags="0x4"/>
    </TTGlyph>
    <TTGlyph name="Ccedilla" xMin="100" yMin="-496" xMax="1403" yMax="1549">
      <contour>
        <pt x="650" y="-311" on="1"/>
        <pt x="677" y="-323" on="0"/>
        <pt x="705" y="-333" on="1"/>
        <pt x="729" y="-341" on="0"/>
        <pt x="788" y="-355" on="0"/>
        <pt x="817" y="-355" on="1"/>
        <pt x="879" y="-355" on="0"/>
        <pt x="928" y="-312" on="0"/>
        <pt x="923" y="-285" on="1"/>
        <pt x="920" y="-275" on="0"/>
        <pt x="891" y="-252" on="0"/>
        <pt x="849" y="-227" on="0"/>
        <pt x="801" y="-200" on="0"/>
        <pt x="761" y="-170" on="0"/>
        <pt x="734" y="-137" on="0"/>
        <pt x="734" y="-118" on="1"/>
        <pt x="734" y="-107" on="0"/>
        <pt x="749" y="-80" on="0"/>
        <pt x="771" y="-54" on="0"/>
        <pt x="797" y="-29" on="0"/>
        <pt x="808" y="-19" on="1"/>
        <pt x="629" y="-10" on="0"/>
        <pt x="363" y="123" on="0"/>
        <pt x="187" y="333" on="0"/>
        <pt x="100" y="597" on="0"/>
        <pt x="100" y="737" on="1"/>
        <pt x="100" y="838" on="0"/>
        <pt x="144" y="1037" on="0"/>
        <pt x="230" y="1218" on="0"/>
        <pt x="358" y="1372" on="0"/>
        <pt x="528" y="1485" on="0"/>
        <pt x="737" y="1549" on="0"/>
        <pt x="862" y="1549" on="1"/>
        <pt x="968" y="1549" on="0"/>
        <pt x="1159" y="1519" on="0"/>
        <pt x="1233" y="1502" on="1"/>
        <pt x="1319" y="1482" on="0"/>
        <pt x="1394" y="1456" on="1"/>
        <pt x="1346" y="1080" on="1"/>
        <pt x="1233" y="1080" on="1"/>
        <pt x="1186" y="1298" on="1"/>
        <pt x="1147" y="1328" on="0"/>
        <pt x="1055" y="1366" on="0"/>
        <pt x="953" y="1389" on="0"/>
        <pt x="843" y="1398" on="0"/>
        <pt x="786" y="1398" on="1"/>
        <pt x="699" y="1398" on="0"/>
        <pt x="534" y="1350" on="0"/>
        <pt x="471" y="1307" on="1"/>
        <pt x="431" y="1260" on="0"/>
        <pt x="372" y="1146" on="0"/>
        <pt x="334" y="1024" on="0"/>
        <pt x="315" y="899" on="0"/>
        <pt x="315" y="841" on="1"/>
        <pt x="315" y="694" on="0"/>
        <pt x="388" y="443" on="0"/>
        <pt x="545" y="258" on="0"/>
        <pt x="793" y="153" on="0"/>
        <pt x="968" y="153" on="1"/>
        <pt x="983" y="153" on="0"/>
        <pt x="1073" y="181" on="0"/>
        <pt x="1190" y="223" on="0"/>
        <pt x="1315" y="271" on="0"/>
        <pt x="1364" y="291" on="1"/>
        <pt x="1403" y="209" on="1"/>
        <pt x="1311" y="149" on="0"/>
        <pt x="1163" y="68" on="0"/>
        <pt x="1047" y="17" on="0"/>
        <pt x="961" y="-9" on="0"/>
        <pt x="931" y="-14" on="1"/>
        <pt x="915" y="-53" on="1"/>
        <pt x="907" y="-72" on="0"/>
        <pt x="928" y="-101" on="0"/>
        <pt x="971" y="-127" on="0"/>
        <pt x="1025" y="-153" on="0"/>
        <pt x="1072" y="-186" on="0"/>
        <pt x="1105" y="-228" on="0"/>
        <pt x="1105" y="-256" on="1"/>
        <pt x="1105" y="-312" on="0"/>
        <pt x="1054" y="-400" on="0"/>
        <pt x="962" y="-463" on="0"/>
        <pt x="836" y="-496" on="0"/>
        <pt x="761" y="-496" on="1"/>
        <pt x="707" y="-496" on="0"/>
        <pt x="643" y="-486" on="0"/>
        <pt x="626" y="-479" on="1"/>
        <pt x="606" y="-472" on="0"/>
        <pt x="598" y="-462" on="1"/>
        <pt x="650" y="-311" on="1"/>
      </contour>
    </TTGlyph>
    <TTGlyph name="Ccircumflex" xMin="100" yMin="-21" xMax="1403" yMax="2000">
      <component glyphName="C" x="0" y="0" flags="0x204"/>
      <component glyphName="circumflex.cap" x="399" y="0" flags="0x4"/>
    </TTGlyph>
    <TTGlyph name="Cdotaccent" xMin="100" yMin="-21" xMax="1403" yMax="1998">
      <component glyphName="C" x="0" y="0" flags="0x204"/>
      <component glyphName="dotaccent.cap" x="606" y="0" flags="0x4"/>
    </TTGlyph>
    <TTGlyph name="D" xMin="102" yMin="-19" xMax="1587" yMax="1542">
      <contour>
        <pt x="102" y="82" on="1"/>
        <pt x="154" y="96" on="0"/>
        <pt x="222" y="120" on="0"/>
        <pt x="260" y="162" on="0"/>
        <pt x="275" y="232" on="0"/>
        <pt x="275" y="292" on="1"/>
        <pt x="275" y="1392" on="1"/>
        <pt x="102" y="1448" on="1"/>
        <pt x="102" y="1530" on="1"/>
        <pt x="380" y="1530" on="1"/>
        <pt x="440" y="1530" on="0"/>
        <pt x="545" y="1534" on="0"/>
        <pt x="646" y="1538" on="0"/>
        <pt x="751" y="1542" on="0"/>
        <pt x="811" y="1542" on="1"/>
        <pt x="1002" y="1542" on="0"/>
        <pt x="1292" y="1437" on="0"/>
        <pt x="1488" y="1254" on="0"/>
        <pt x="1587" y="1005" on="0"/>
        <pt x="1587" y="861" on="1"/>
        <pt x="1587" y="743" on="0"/>
        <pt x="1540" y="520" on="0"/>
        <pt x="1447" y="325" on="0"/>
        <pt x="1310" y="162" on="0"/>
        <pt x="1130" y="46" on="0"/>
        <pt x="908" y="-19" on="0"/>
        <pt x="778" y="-19" on="1"/>
        <pt x="731" y="-19" on="0"/>
        <pt x="584" y="-8" on="0"/>
        <pt x="507" y="0" on="1"/>
        <pt x="102" y="0" on="1"/>
      </contour>
      <contour>
        <pt x="491" y="177" on="1"/>
        <pt x="507" y="169" on="0"/>
        <pt x="563" y="150" on="0"/>
        <pt x="639" y="132" on="0"/>
        <pt x="731" y="120" on="0"/>
        <pt x="783" y="120" on="1"/>
        <pt x="823" y="120" on="0"/>
        <pt x="918" y="130" on="0"/>
        <pt x="1014" y="148" on="0"/>
        <pt x="1101" y="174" on="0"/>
        <pt x="1133" y="191" on="1"/>
        <pt x="1168" y="221" on="0"/>
        <pt x="1249" y="315" on="0"/>
        <pt x="1318" y="451" on="0"/>
        <pt x="1364" y="636" on="0"/>
        <pt x="1364" y="757" on="1"/>
        <pt x="1364" y="923" on="0"/>
        <pt x="1277" y="1173" on="0"/>
        <pt x="1111" y="1339" on="0"/>
        <pt x="868" y="1423" on="0"/>
        <pt x="712" y="1423" on="1"/>
        <pt x="697" y="1423" on="0"/>
        <pt x="613" y="1420" on="0"/>
        <pt x="559" y="1415" on="1"/>
        <pt x="541" y="1408" on="0"/>
        <pt x="516" y="1387" on="0"/>
        <pt x="499" y="1354" on="0"/>
        <pt x="491" y="1304" on="0"/>
        <pt x="491" y="1268" on="1"/>
      </contour>
    </TTGlyph>
    <TTGlyph name="Dcaron" xMin="102" yMin="-19" xMax="1587" yMax="2000">
      <component glyphName="D" x="0" y="0" flags="0x204"/>
      <component glyphName="caron.cap" x="376" y="0" flags="0x4"/>
    </TTGlyph>
    <TTGlyph name="Dcroat" xMin="69" yMin="-19" xMax="1592" yMax="1542">
      <component glyphName="Eth" x="0" y="0" flags="0x204"/>
    </TTGlyph>
    <TTGlyph name="Delta" xMin="77" yMin="0" xMax="1466" yMax="1577">
      <contour>
        <pt x="744" y="1577" on="1"/>
        <pt x="825" y="1577" on="1"/>
        <pt x="1466" y="0" on="1"/>
        <pt x="77" y="0" on="1"/>
      </contour>
      <contour>
        <pt x="1215" y="107" on="1"/>
        <pt x="738" y="1261" on="1"/>
        <pt x="279" y="107" on="1"/>
      </contour>
    </TTGlyph>
    <TTGlyph name="E" xMin="110" yMin="-18" xMax="1272" yMax="1549">
      <contour>
        <pt x="115" y="80" on="1"/>
        <pt x="165" y="94" on="0"/>
        <pt x="228" y="117" on="0"/>
        <pt x="263" y="157" on="0"/>
        <pt x="275" y="224" on="0"/>
        <pt x="275" y="281" on="1"/>
        <pt x="275" y="1396" on="1"/>
        <pt x="110" y="1450" on="1"/>
        <pt x="110" y="1530" on="1"/>
        <pt x="1005" y="1530" on="1"/>
        <pt x="1147" y="1549" on="1"/>
        <pt x="1147" y="1137" on="1"/>
        <pt x="1043" y="1135" on="1"/>
        <pt x="971" y="1384" on="1"/>
        <pt x="823" y="1390" on="0"/>
        <pt x="638" y="1396" on="0"/>
        <pt x="584" y="1398" on="1"/>
        <pt x="522" y="1400" on="0"/>
        <pt x="491" y="1399" on="1"/>
        <pt x="491" y="834" on="1"/>
        <pt x="933" y="863" on="1"/>
        <pt x="933" y="673" on="1"/>
        <pt x="491" y="704" on="1"/>
        <pt x="491" y="119" on="1"/>
        <pt x="1072" y="143" on="1"/>
        <pt x="1164" y="430" on="1"/>
        <pt x="1272" y="430" on="1"/>
        <pt x="1253" y="-18" on="1"/>
        <pt x="1112" y="0" on="1"/>
        <pt x="115" y="0" on="1"/>
      </contour>
    </TTGlyph>
    <TTGlyph name="Eacute" xMin="110" yMin="-18" xMax="1272" yMax="2000">
      <component glyphName="E" x="0" y="0" flags="0x204"/>
      <component glyphName="acute.cap" x="407" y="0" flags="0x4"/>
    </TTGlyph>
    <TTGlyph name="Ebreve" xMin="110" yMin="-18" xMax="1272" yMax="2000">
      <component glyphName="E" x="0" y="0" flags="0x204"/>
      <component glyphName="breve.cap" x="238" y="0" flags="0x4"/>
    </TTGlyph>
    <TTGlyph name="Ecaron" xMin="110" yMin="-18" xMax="1272" yMax="2000">
      <component glyphName="E" x="0" y="0" flags="0x204"/>
      <component glyphName="caron.cap" x="218" y="0" flags="0x4"/>
    </TTGlyph>
    <TTGlyph name="Ecircumflex" xMin="110" yMin="-18" xMax="1272" yMax="2000">
      <component glyphName="E" x="0" y="0" flags="0x204"/>
      <component glyphName="circumflex.cap" x="218" y="0" flags="0x4"/>
    </TTGlyph>
    <TTGlyph name="Edieresis" xMin="110" yMin="-18" xMax="1272" yMax="2000">
      <component glyphName="E" x="0" y="0" flags="0x204"/>
      <component glyphName="dieresis.cap" x="222" y="0" flags="0x4"/>
    </TTGlyph>
    <TTGlyph name="Edotaccent" xMin="110" yMin="-18" xMax="1272" yMax="1998">
      <component glyphName="E" x="0" y="0" flags="0x204"/>
      <component glyphName="dotaccent.cap" x="425" y="0" flags="0x4"/>
    </TTGlyph>
    <TTGlyph name="Egrave" xMin="110" yMin="-18" xMax="1272" yMax="2000">
      <component glyphName="E" x="0" y="0" flags="0x204"/>
      <component glyphName="grave.cap" x="292" y="0" flags="0x4"/>
    </TTGlyph>
    <TTGlyph name="Emacron" xMin="110" yMin="-18" xMax="1272" yMax="1982">
      <component glyphName="E" x="0" y="0" flags="0x204"/>
      <component glyphName="macron.cap" x="278" y="0" flags="0x4"/>
    </TTGlyph>
    <TTGlyph name="Eng" xMin="81" yMin="-506" xMax="1637" yMax="1530">
      <contour>
        <pt x="81" y="82" on="1"/>
        <pt x="133" y="96" on="0"/>
        <pt x="199" y="120" on="0"/>
        <pt x="239" y="162" on="0"/>
        <pt x="259" y="232" on="0"/>
        <pt x="266" y="292" on="1"/>
        <pt x="273" y="353" on="1"/>
        <pt x="273" y="1315" on="1"/>
        <pt x="268" y="1348" on="0"/>
        <pt x="246" y="1389" on="0"/>
        <pt x="206" y="1417" on="0"/>
        <pt x="146" y="1436" on="0"/>
        <pt x="104" y="1448" on="1"/>
        <pt x="104" y="1530" on="1"/>
        <pt x="423" y="1530" on="1"/>
        <pt x="1343" y="367" on="1"/>
        <pt x="1336" y="866" on="1"/>
        <pt x="1327" y="1390" on="1"/>
        <pt x="1155" y="1446" on="1"/>
        <pt x="1155" y="1530" on="1"/>
        <pt x="1637" y="1530" on="1"/>
        <pt x="1637" y="1446" on="1"/>
        <pt x="1584" y="1432" on="0"/>
        <pt x="1517" y="1408" on="0"/>
        <pt x="1479" y="1366" on="0"/>
        <pt x="1464" y="1296" on="0"/>
        <pt x="1464" y="1236" on="1"/>
        <pt x="1464" y="-2" on="1"/>
        <pt x="1464" y="-125" on="0"/>
        <pt x="1408" y="-288" on="0"/>
        <pt x="1319" y="-398" on="0"/>
        <pt x="1206" y="-472" on="0"/>
        <pt x="1149" y="-506" on="1"/>
        <pt x="1090" y="-451" on="1"/>
        <pt x="1143" y="-409" on="0"/>
        <pt x="1220" y="-314" on="0"/>
        <pt x="1266" y="-191" on="0"/>
        <pt x="1283" y="-31" on="0"/>
        <pt x="1276" y="76" on="1"/>
        <pt x="1275" y="88" on="1"/>
        <pt x="413" y="1200" on="1"/>
        <pt x="427" y="140" on="1"/>
        <pt x="429" y="137" on="1"/>
        <pt x="622" y="82" on="1"/>
        <pt x="622" y="0" on="1"/>
        <pt x="81" y="0" on="1"/>
      </contour>
    </TTGlyph>
    <TTGlyph name="Eogonek" xMin="108" yMin="-498" xMax="1270" yMax="1549">
      <contour>
        <pt x="113" y="80" on="1"/>
        <pt x="163" y="94" on="0"/>
        <pt x="226" y="117" on="0"/>
        <pt x="261" y="157" on="0"/>
        <pt x="273" y="224" on="0"/>
        <pt x="273" y="281" on="1"/>
        <pt x="273" y="1396" on="1"/>
        <pt x="108" y="1450" on="1"/>
        <pt x="108" y="1530" on="1"/>
        <pt x="1003" y="1530" on="1"/>
        <pt x="1145" y="1549" on="1"/>
        <pt x="1145" y="1137" on="1"/>
        <pt x="1041" y="1135" on="1"/>
        <pt x="969" y="1384" on="1"/>
        <pt x="821" y="1390" on="0"/>
        <pt x="636" y="1396" on="0"/>
        <pt x="582" y="1398" on="1"/>
        <pt x="520" y="1400" on="0"/>
        <pt x="489" y="1399" on="1"/>
        <pt x="489" y="834" on="1"/>
        <pt x="931" y="863" on="1"/>
        <pt x="931" y="673" on="1"/>
        <pt x="489" y="704" on="1"/>
        <pt x="489" y="122" on="1"/>
        <pt x="1070" y="143" on="1"/>
        <pt x="1162" y="430" on="1"/>
        <pt x="1270" y="430" on="1"/>
        <pt x="1251" y="-18" on="1"/>
        <pt x="1159" y="-6" on="1"/>
        <pt x="1084" y="-54" on="0"/>
        <pt x="1001" y="-150" on="0"/>
        <pt x="988" y="-194" on="1"/>
        <pt x="975" y="-235" on="0"/>
        <pt x="990" y="-288" on="0"/>
        <pt x="1023" y="-320" on="0"/>
        <pt x="1063" y="-333" on="0"/>
        <pt x="1075" y="-333" on="1"/>
        <pt x="1088" y="-333" on="0"/>
        <pt x="1121" y="-332" on="0"/>
        <pt x="1155" y="-326" on="0"/>
        <pt x="1192" y="-314" on="0"/>
        <pt x="1210" y="-303" on="1"/>
        <pt x="1257" y="-435" on="1"/>
        <pt x="1246" y="-444" on="0"/>
        <pt x="1204" y="-466" on="0"/>
        <pt x="1149" y="-485" on="0"/>
        <pt x="1083" y="-498" on="0"/>
        <pt x="1047" y="-498" on="1"/>
        <pt x="987" y="-498" on="0"/>
        <pt x="888" y="-459" on="0"/>
        <pt x="824" y="-389" on="0"/>
        <pt x="800" y="-293" on="0"/>
        <pt x="815" y="-235" on="1"/>
        <pt x="824" y="-200" on="0"/>
        <pt x="860" y="-131" on="0"/>
        <pt x="909" y="-70" on="0"/>
        <pt x="969" y="-18" on="0"/>
        <pt x="1002" y="0" on="1"/>
        <pt x="113" y="0" on="1"/>
      </contour>
    </TTGlyph>
    <TTGlyph name="Eth" xMin="69" yMin="-19" xMax="1592" yMax="1542">
      <contour>
        <pt x="107" y="82" on="1"/>
        <pt x="159" y="96" on="0"/>
        <pt x="227" y="120" on="0"/>
        <pt x="265" y="162" on="0"/>
        <pt x="280" y="232" on="0"/>
        <pt x="280" y="292" on="1"/>
        <pt x="280" y="745" on="1"/>
        <pt x="69" y="745" on="1"/>
        <pt x="89" y="850" on="1"/>
        <pt x="280" y="850" on="1"/>
        <pt x="280" y="1392" on="1"/>
        <pt x="107" y="1448" on="1"/>
        <pt x="107" y="1530" on="1"/>
        <pt x="385" y="1530" on="1"/>
        <pt x="445" y="1530" on="0"/>
        <pt x="550" y="1534" on="0"/>
        <pt x="651" y="1538" on="0"/>
        <pt x="756" y="1542" on="0"/>
        <pt x="816" y="1542" on="1"/>
        <pt x="1007" y="1542" on="0"/>
        <pt x="1297" y="1437" on="0"/>
        <pt x="1493" y="1254" on="0"/>
        <pt x="1592" y="1005" on="0"/>
        <pt x="1592" y="861" on="1"/>
        <pt x="1592" y="743" on="0"/>
        <pt x="1545" y="520" on="0"/>
        <pt x="1452" y="325" on="0"/>
        <pt x="1315" y="162" on="0"/>
        <pt x="1135" y="46" on="0"/>
        <pt x="913" y="-19" on="0"/>
        <pt x="783" y="-19" on="1"/>
        <pt x="736" y="-19" on="0"/>
        <pt x="589" y="-8" on="0"/>
        <pt x="512" y="0" on="1"/>
        <pt x="107" y="0" on="1"/>
      </contour>
      <contour>
        <pt x="496" y="177" on="1"/>
        <pt x="512" y="169" on="0"/>
        <pt x="568" y="150" on="0"/>
        <pt x="644" y="132" on="0"/>
        <pt x="736" y="120" on="0"/>
        <pt x="788" y="120" on="1"/>
        <pt x="828" y="120" on="0"/>
        <pt x="923" y="130" on="0"/>
        <pt x="1019" y="148" on="0"/>
        <pt x="1106" y="174" on="0"/>
        <pt x="1138" y="191" on="1"/>
        <pt x="1173" y="221" on="0"/>
        <pt x="1254" y="315" on="0"/>
        <pt x="1323" y="451" on="0"/>
        <pt x="1369" y="636" on="0"/>
        <pt x="1369" y="757" on="1"/>
        <pt x="1369" y="923" on="0"/>
        <pt x="1282" y="1173" on="0"/>
        <pt x="1116" y="1339" on="0"/>
        <pt x="873" y="1423" on="0"/>
        <pt x="717" y="1423" on="1"/>
        <pt x="702" y="1423" on="0"/>
        <pt x="618" y="1420" on="0"/>
        <pt x="564" y="1415" on="1"/>
        <pt x="546" y="1408" on="0"/>
        <pt x="521" y="1387" on="0"/>
        <pt x="504" y="1354" on="0"/>
        <pt x="496" y="1304" on="0"/>
        <pt x="496" y="1268" on="1"/>
        <pt x="496" y="850" on="1"/>
        <pt x="1000" y="850" on="1"/>
        <pt x="980" y="745" on="1"/>
        <pt x="496" y="745" on="1"/>
      </contour>
    </TTGlyph>
    <TTGlyph name="Euro" xMin="109" yMin="-21" xMax="1392" yMax="1559">
      <contour>
        <pt x="139" y="709" on="1"/>
        <pt x="259" y="709" on="1"/>
        <pt x="259" y="737" on="1"/>
        <pt x="259" y="808" on="0"/>
        <pt x="268" y="879" on="1"/>
        <pt x="136" y="879" on="1"/>
        <pt x="166" y="999" on="1"/>
        <pt x="291" y="999" on="1"/>
        <pt x="320" y="1113" on="0"/>
        <pt x="431" y="1317" on="0"/>
        <pt x="596" y="1470" on="0"/>
        <pt x="813" y="1559" on="0"/>
        <pt x="949" y="1559" on="1"/>
        <pt x="1036" y="1559" on="0"/>
        <pt x="1195" y="1527" on="0"/>
        <pt x="1257" y="1508" on="1"/>
        <pt x="1329" y="1485" on="0"/>
        <pt x="1392" y="1457" on="1"/>
        <pt x="1344" y="1153" on="1"/>
        <pt x="1251" y="1153" on="1"/>
        <pt x="1202" y="1317" on="1"/>
        <pt x="1172" y="1343" on="0"/>
        <pt x="1093" y="1378" on="0"/>
        <pt x="1006" y="1399" on="0"/>
        <pt x="915" y="1408" on="0"/>
        <pt x="873" y="1408" on="1"/>
        <pt x="804" y="1408" on="0"/>
        <pt x="670" y="1360" on="0"/>
        <pt x="620" y="1323" on="1"/>
        <pt x="561" y="1253" on="0"/>
        <pt x="499" y="1085" on="0"/>
        <pt x="486" y="999" on="1"/>
        <pt x="1047" y="999" on="1"/>
        <pt x="1017" y="879" on="1"/>
        <pt x="475" y="879" on="1"/>
        <pt x="475" y="841" on="1"/>
        <pt x="475" y="807" on="0"/>
        <pt x="478" y="741" on="0"/>
        <pt x="483" y="709" on="1"/>
        <pt x="1020" y="709" on="1"/>
        <pt x="990" y="589" on="1"/>
        <pt x="506" y="589" on="1"/>
        <pt x="531" y="494" on="0"/>
        <pt x="619" y="332" on="0"/>
        <pt x="744" y="214" on="0"/>
        <pt x="904" y="148" on="0"/>
        <pt x="1001" y="148" on="1"/>
        <pt x="1009" y="148" on="0"/>
        <pt x="1052" y="158" on="0"/>
        <pt x="1112" y="176" on="0"/>
        <pt x="1183" y="198" on="0"/>
        <pt x="1256" y="223" on="0"/>
        <pt x="1324" y="247" on="0"/>
        <pt x="1352" y="257" on="1"/>
        <pt x="1386" y="179" on="1"/>
        <pt x="1268" y="101" on="0"/>
        <pt x="1091" y="19" on="0"/>
        <pt x="969" y="-17" on="0"/>
        <pt x="899" y="-21" on="0"/>
        <pt x="889" y="-21" on="1"/>
        <pt x="759" y="-21" on="0"/>
        <pt x="548" y="78" on="0"/>
        <pt x="391" y="245" on="0"/>
        <pt x="290" y="466" on="0"/>
        <pt x="271" y="589" on="1"/>
        <pt x="109" y="589" on="1"/>
      </contour>
    </TTGlyph>
    <TTGlyph name="F" xMin="110" yMin="0" xMax="1275" yMax="1549">
      <contour>
        <pt x="123" y="82" on="1"/>
        <pt x="175" y="96" on="0"/>
        <pt x="236" y="120" on="0"/>
        <pt x="267" y="162" on="0"/>
        <pt x="275" y="232" on="0"/>
        <pt x="275" y="292" on="1"/>
        <pt x="275" y="1396" on="1"/>
        <pt x="110" y="1450" on="1"/>
        <pt x="110" y="1528" on="1"/>
        <pt x="1133" y="1529" on="1"/>
        <pt x="1275" y="1549" on="1"/>
        <pt x="1255" y="1157" on="1"/>
        <pt x="1150" y="1155" on="1"/>
        <pt x="1080" y="1376" on="1"/>
        <pt x="639" y="1394" on="1"/>
        <pt x="553" y="1398" on="0"/>
        <pt x="491" y="1399" on="1"/>
        <pt x="491" y="834" on="1"/>
        <pt x="1061" y="863" on="1"/>
        <pt x="1060" y="673" on="1"/>
        <pt x="491" y="704" on="1"/>
        <pt x="491" y="137" on="1"/>
        <pt x="819" y="89" on="1"/>
        <pt x="819" y="0" on="1"/>
        <pt x="123" y="0" on="1"/>
      </contour>
    </TTGlyph>
    <TTGlyph name="G" xMin="100" yMin="-20" xMax="1484" yMax="1550">
      <contour>
        <pt x="100" y="736" on="1"/>
        <pt x="100" y="836" on="0"/>
        <pt x="148" y="1035" on="0"/>
        <pt x="240" y="1216" on="0"/>
        <pt x="375" y="1371" on="0"/>
        <pt x="549" y="1485" on="0"/>
        <pt x="759" y="1550" on="0"/>
        <pt x="881" y="1550" on="1"/>
        <pt x="987" y="1550" on="0"/>
        <pt x="1174" y="1521" on="0"/>
        <pt x="1246" y="1504" on="1"/>
        <pt x="1330" y="1484" on="0"/>
        <pt x="1401" y="1458" on="1"/>
        <pt x="1363" y="1080" on="1"/>
        <pt x="1260" y="1080" on="1"/>
        <pt x="1210" y="1297" on="1"/>
        <pt x="1169" y="1330" on="0"/>
        <pt x="1069" y="1370" on="0"/>
        <pt x="958" y="1392" on="0"/>
        <pt x="842" y="1399" on="0"/>
        <pt x="787" y="1399" on="1"/>
        <pt x="746" y="1399" on="0"/>
        <pt x="658" y="1382" on="0"/>
        <pt x="574" y="1351" on="0"/>
        <pt x="502" y="1310" on="0"/>
        <pt x="477" y="1286" on="1"/>
        <pt x="444" y="1243" on="0"/>
        <pt x="387" y="1142" on="0"/>
        <pt x="345" y="1025" on="0"/>
        <pt x="321" y="894" on="0"/>
        <pt x="321" y="822" on="1"/>
        <pt x="321" y="731" on="0"/>
        <pt x="353" y="557" on="0"/>
        <pt x="416" y="403" on="0"/>
        <pt x="512" y="272" on="0"/>
        <pt x="638" y="178" on="0"/>
        <pt x="795" y="125" on="0"/>
        <pt x="889" y="125" on="1"/>
        <pt x="941" y="125" on="0"/>
        <pt x="1018" y="129" on="0"/>
        <pt x="1081" y="138" on="0"/>
        <pt x="1138" y="154" on="0"/>
        <pt x="1170" y="166" on="1"/>
        <pt x="1170" y="569" on="1"/>
        <pt x="983" y="624" on="1"/>
        <pt x="983" y="707" on="1"/>
        <pt x="1484" y="707" on="1"/>
        <pt x="1484" y="624" on="1"/>
        <pt x="1461" y="618" on="0"/>
        <pt x="1423" y="603" on="0"/>
        <pt x="1396" y="581" on="0"/>
        <pt x="1380" y="550" on="0"/>
        <pt x="1380" y="528" on="1"/>
        <pt x="1380" y="319" on="1"/>
        <pt x="1388" y="119" on="1"/>
        <pt x="1287" y="62" on="0"/>
        <pt x="1094" y="5" on="0"/>
        <pt x="937" y="-19" on="0"/>
        <pt x="830" y="-20" on="0"/>
        <pt x="817" y="-20" on="1"/>
        <pt x="699" y="-20" on="0"/>
        <pt x="501" y="39" on="0"/>
        <pt x="342" y="143" on="0"/>
        <pt x="222" y="286" on="0"/>
        <pt x="141" y="454" on="0"/>
        <pt x="100" y="640" on="0"/>
      </contour>
    </TTGlyph>
    <TTGlyph name="Gbreve" xMin="100" yMin="-20" xMax="1484" yMax="2000">
      <component glyphName="G" x="0" y="0" flags="0x204"/>
      <component glyphName="breve.cap" x="431" y="0" flags="0x4"/>
    </TTGlyph>
    <TTGlyph name="Gcircumflex" xMin="100" yMin="-20" xMax="1484" yMax="2000">
      <component glyphName="G" x="0" y="0" flags="0x204"/>
      <component glyphName="circumflex.cap" x="411" y="0" flags="0x4"/>
    </TTGlyph>
    <TTGlyph name="Gcommaaccent" xMin="100" yMin="-537" xMax="1484" yMax="1550">
      <component glyphName="G" x="0" y="0" flags="0x204"/>
      <component glyphName="commaaccent" x="537" y="0" flags="0x4"/>
    </TTGlyph>
    <TTGlyph name="Gdotaccent" xMin="100" yMin="-20" xMax="1484" yMax="1998">
      <component glyphName="G" x="0" y="0" flags="0x204"/>
      <component glyphName="dotaccent.cap" x="618" y="0" flags="0x4"/>
    </TTGlyph>
    <TTGlyph name="H" xMin="102" yMin="0" xMax="1628" yMax="1530">
      <contour>
        <pt x="102" y="82" on="1"/>
        <pt x="154" y="96" on="0"/>
        <pt x="222" y="120" on="0"/>
        <pt x="260" y="162" on="0"/>
        <pt x="275" y="232" on="0"/>
        <pt x="275" y="292" on="1"/>
        <pt x="275" y="1392" on="1"/>
        <pt x="102" y="1448" on="1"/>
        <pt x="102" y="1530" on="1"/>
        <pt x="675" y="1530" on="1"/>
        <pt x="675" y="1448" on="1"/>
        <pt x="623" y="1434" on="0"/>
        <pt x="552" y="1410" on="0"/>
        <pt x="509" y="1368" on="0"/>
        <pt x="491" y="1298" on="0"/>
        <pt x="491" y="1238" on="1"/>
        <pt x="491" y="849" on="1"/>
        <pt x="1215" y="849" on="1"/>
        <pt x="1215" y="1392" on="1"/>
        <pt x="1042" y="1448" on="1"/>
        <pt x="1042" y="1530" on="1"/>
        <pt x="1616" y="1530" on="1"/>
        <pt x="1616" y="1448" on="1"/>
        <pt x="1563" y="1434" on="0"/>
        <pt x="1493" y="1410" on="0"/>
        <pt x="1449" y="1368" on="0"/>
        <pt x="1431" y="1298" on="0"/>
        <pt x="1431" y="1238" on="1"/>
        <pt x="1431" y="137" on="1"/>
        <pt x="1628" y="82" on="1"/>
        <pt x="1628" y="0" on="1"/>
        <pt x="1042" y="0" on="1"/>
        <pt x="1042" y="82" on="1"/>
        <pt x="1094" y="96" on="0"/>
        <pt x="1162" y="120" on="0"/>
        <pt x="1200" y="162" on="0"/>
        <pt x="1215" y="232" on="0"/>
        <pt x="1215" y="292" on="1"/>
        <pt x="1215" y="729" on="1"/>
        <pt x="491" y="729" on="1"/>
        <pt x="491" y="137" on="1"/>
        <pt x="687" y="82" on="1"/>
        <pt x="687" y="0" on="1"/>
        <pt x="102" y="0" on="1"/>
      </contour>
    </TTGlyph>
    <TTGlyph name="Hbar" xMin="69" yMin="0" xMax="1635" yMax="1530">
      <contour>
        <pt x="102" y="82" on="1"/>
        <pt x="154" y="96" on="0"/>
        <pt x="222" y="120" on="0"/>
        <pt x="260" y="162" on="0"/>
        <pt x="275" y="232" on="0"/>
        <pt x="275" y="292" on="1"/>
        <pt x="275" y="1073" on="1"/>
        <pt x="69" y="1073" on="1"/>
        <pt x="89" y="1178" on="1"/>
        <pt x="275" y="1178" on="1"/>
        <pt x="275" y="1392" on="1"/>
        <pt x="102" y="1448" on="1"/>
        <pt x="102" y="1530" on="1"/>
        <pt x="675" y="1530" on="1"/>
        <pt x="675" y="1448" on="1"/>
        <pt x="623" y="1434" on="0"/>
        <pt x="552" y="1410" on="0"/>
        <pt x="509" y="1368" on="0"/>
        <pt x="491" y="1298" on="0"/>
        <pt x="491" y="1238" on="1"/>
        <pt x="491" y="1178" on="1"/>
        <pt x="1215" y="1178" on="1"/>
        <pt x="1215" y="1392" on="1"/>
        <pt x="1042" y="1448" on="1"/>
        <pt x="1042" y="1530" on="1"/>
        <pt x="1616" y="1530" on="1"/>
        <pt x="1616" y="1448" on="1"/>
        <pt x="1563" y="1434" on="0"/>
        <pt x="1493" y="1410" on="0"/>
        <pt x="1449" y="1368" on="0"/>
        <pt x="1431" y="1298" on="0"/>
        <pt x="1431" y="1238" on="1"/>
        <pt x="1431" y="1178" on="1"/>
        <pt x="1635" y="1178" on="1"/>
        <pt x="1615" y="1073" on="1"/>
        <pt x="1431" y="1073" on="1"/>
        <pt x="1431" y="137" on="1"/>
        <pt x="1628" y="82" on="1"/>
        <pt x="1628" y="0" on="1"/>
        <pt x="1042" y="0" on="1"/>
        <pt x="1042" y="82" on="1"/>
        <pt x="1094" y="96" on="0"/>
        <pt x="1162" y="120" on="0"/>
        <pt x="1200" y="162" on="0"/>
        <pt x="1215" y="232" on="0"/>
        <pt x="1215" y="292" on="1"/>
        <pt x="1215" y="729" on="1"/>
        <pt x="491" y="729" on="1"/>
        <pt x="491" y="137" on="1"/>
        <pt x="687" y="82" on="1"/>
        <pt x="687" y="0" on="1"/>
        <pt x="102" y="0" on="1"/>
      </contour>
      <contour>
        <pt x="1215" y="849" on="1"/>
        <pt x="1215" y="1073" on="1"/>
        <pt x="491" y="1073" on="1"/>
        <pt x="491" y="849" on="1"/>
      </contour>
    </TTGlyph>
    <TTGlyph name="Hcircumflex" xMin="102" yMin="0" xMax="1628" yMax="2000">
      <component glyphName="H" x="0" y="0" flags="0x204"/>
      <component glyphName="circumflex.cap" x="392" y="0" flags="0x4"/>
    </TTGlyph>
    <TTGlyph name="I" xMin="104" yMin="0" xMax="626" yMax="1528">
      <contour>
        <pt x="104" y="82" on="1"/>
        <pt x="156" y="96" on="0"/>
        <pt x="216" y="120" on="0"/>
        <pt x="246" y="162" on="0"/>
        <pt x="253" y="232" on="0"/>
        <pt x="253" y="292" on="1"/>
        <pt x="253" y="1390" on="1"/>
        <pt x="109" y="1446" on="1"/>
        <pt x="109" y="1528" on="1"/>
        <pt x="626" y="1528" on="1"/>
        <pt x="626" y="1446" on="1"/>
        <pt x="573" y="1432" on="0"/>
        <pt x="511" y="1408" on="0"/>
        <pt x="479" y="1366" on="0"/>
        <pt x="469" y="1296" on="0"/>
        <pt x="469" y="1236" on="1"/>
        <pt x="469" y="137" on="1"/>
        <pt x="626" y="82" on="1"/>
        <pt x="626" y="0" on="1"/>
        <pt x="104" y="0" on="1"/>
      </contour>
    </TTGlyph>
    <TTGlyph name="IJ" xMin="104" yMin="-502" xMax="1368" yMax="1530">
      <component glyphName="I" x="0" y="0" flags="0x4"/>
      <component glyphName="J" x="724" y="0" flags="0x4"/>
    </TTGlyph>
    <TTGlyph name="Iacute" xMin="104" yMin="0" xMax="666" yMax="2000">
      <component glyphName="I" x="0" y="0" flags="0x204"/>
      <component glyphName="acute.cap" x="77" y="0" flags="0x4"/>
    </TTGlyph>
    <TTGlyph name="Ibreve" xMin="15" yMin="0" xMax="710" yMax="2000">
      <component glyphName="I" x="0" y="0" flags="0x204"/>
      <component glyphName="breve.cap" x="-91" y="0" flags="0x4"/>
    </TTGlyph>
    <TTGlyph name="Icircumflex" xMin="3" yMin="0" xMax="721" yMax="2000">
      <component glyphName="I" x="0" y="0" flags="0x204"/>
      <component glyphName="circumflex.cap" x="-111" y="0" flags="0x4"/>
    </TTGlyph>
    <TTGlyph name="Idieresis" xMin="7" yMin="0" xMax="716" yMax="2000">
      <component glyphName="I" x="0" y="0" flags="0x204"/>
      <component glyphName="dieresis.cap" x="-107" y="0" flags="0x4"/>
    </TTGlyph>
    <TTGlyph name="Idotaccent" xMin="104" yMin="0" xMax="626" yMax="1998">
      <component glyphName="I" x="0" y="0" flags="0x204"/>
      <component glyphName="dotaccent.cap" x="95" y="0" flags="0x4"/>
    </TTGlyph>
    <TTGlyph name="Igrave" xMin="77" yMin="0" xMax="626" yMax="2000">
      <component glyphName="I" x="0" y="0" flags="0x204"/>
      <component glyphName="grave.cap" x="-37" y="0" flags="0x4"/>
    </TTGlyph>
    <TTGlyph name="Imacron" xMin="63" yMin="0" xMax="661" yMax="1982">
      <component glyphName="I" x="0" y="0" flags="0x204"/>
      <component glyphName="macron.cap" x="-51" y="0" flags="0x4"/>
    </TTGlyph>
    <TTGlyph name="Iogonek" xMin="84" yMin="-498" xMax="606" yMax="1528">
      <contour>
        <pt x="84" y="82" on="1"/>
        <pt x="136" y="96" on="0"/>
        <pt x="196" y="120" on="0"/>
        <pt x="226" y="162" on="0"/>
        <pt x="233" y="232" on="0"/>
        <pt x="233" y="292" on="1"/>
        <pt x="233" y="1390" on="1"/>
        <pt x="89" y="1446" on="1"/>
        <pt x="89" y="1528" on="1"/>
        <pt x="606" y="1528" on="1"/>
        <pt x="606" y="1446" on="1"/>
        <pt x="553" y="1432" on="0"/>
        <pt x="491" y="1408" on="0"/>
        <pt x="459" y="1366" on="0"/>
        <pt x="449" y="1296" on="0"/>
        <pt x="449" y="1236" on="1"/>
        <pt x="449" y="137" on="1"/>
        <pt x="606" y="82" on="1"/>
        <pt x="606" y="0" on="1"/>
        <pt x="442" y="0" on="1"/>
        <pt x="372" y="-51" on="0"/>
        <pt x="294" y="-157" on="0"/>
        <pt x="282" y="-204" on="1"/>
        <pt x="272" y="-242" on="0"/>
        <pt x="284" y="-291" on="0"/>
        <pt x="309" y="-321" on="0"/>
        <pt x="340" y="-333" on="0"/>
        <pt x="349" y="-333" on="1"/>
        <pt x="362" y="-333" on="0"/>
        <pt x="395" y="-332" on="0"/>
        <pt x="429" y="-326" on="0"/>
        <pt x="466" y="-314" on="0"/>
        <pt x="484" y="-303" on="1"/>
        <pt x="531" y="-435" on="1"/>
        <pt x="520" y="-444" on="0"/>
        <pt x="478" y="-466" on="0"/>
        <pt x="423" y="-485" on="0"/>
        <pt x="357" y="-498" on="0"/>
        <pt x="321" y="-498" on="1"/>
        <pt x="266" y="-498" on="0"/>
        <pt x="177" y="-460" on="0"/>
        <pt x="119" y="-393" on="0"/>
        <pt x="97" y="-299" on="0"/>
        <pt x="109" y="-243" on="1"/>
        <pt x="118" y="-204" on="0"/>
        <pt x="155" y="-133" on="0"/>
        <pt x="206" y="-72" on="0"/>
        <pt x="266" y="-20" on="0"/>
        <pt x="297" y="0" on="1"/>
        <pt x="84" y="0" on="1"/>
      </contour>
    </TTGlyph>
    <TTGlyph name="Itilde" xMin="-30" yMin="0" xMax="724" yMax="1964">
      <component glyphName="I" x="0" y="0" flags="0x204"/>
      <component glyphName="tilde.cap" x="-144" y="0" flags="0x4"/>
    </TTGlyph>
    <TTGlyph name="J" xMin="38" yMin="-502" xMax="644" yMax="1530">
      <contour>
        <pt x="265" y="1390" on="1"/>
        <pt x="103" y="1446" on="1"/>
        <pt x="103" y="1530" on="1"/>
        <pt x="644" y="1530" on="1"/>
        <pt x="644" y="1446" on="1"/>
        <pt x="595" y="1432" on="0"/>
        <pt x="532" y="1408" on="0"/>
        <pt x="495" y="1366" on="0"/>
        <pt x="481" y="1296" on="0"/>
        <pt x="481" y="1236" on="1"/>
        <pt x="481" y="464" on="1"/>
        <pt x="481" y="334" on="0"/>
        <pt x="480" y="138" on="0"/>
        <pt x="474" y="-10" on="0"/>
        <pt x="463" y="-115" on="0"/>
        <pt x="445" y="-192" on="0"/>
        <pt x="417" y="-248" on="0"/>
        <pt x="397" y="-272" on="1"/>
        <pt x="346" y="-335" on="0"/>
        <pt x="258" y="-413" on="0"/>
        <pt x="183" y="-461" on="0"/>
        <pt x="122" y="-489" on="0"/>
        <pt x="97" y="-502" on="1"/>
        <pt x="38" y="-447" on="1"/>
        <pt x="91" y="-398" on="0"/>
        <pt x="175" y="-290" on="0"/>
        <pt x="234" y="-164" on="0"/>
        <pt x="265" y="-13" on="0"/>
        <pt x="265" y="80" on="1"/>
      </contour>
    </TTGlyph>
    <TTGlyph name="Jcircumflex" xMin="13" yMin="-502" xMax="731" yMax="2000">
      <component glyphName="J" x="0" y="0" flags="0x204"/>
      <component glyphName="circumflex.cap" x="-101" y="0" flags="0x4"/>
    </TTGlyph>
    <TTGlyph name="K" xMin="103" yMin="-22" xMax="1470" yMax="1530">
      <contour>
        <pt x="597" y="686" on="1"/>
        <pt x="580" y="712" on="0"/>
        <pt x="551" y="764" on="0"/>
        <pt x="546" y="779" on="1"/>
        <pt x="1016" y="1396" on="1"/>
        <pt x="864" y="1446" on="1"/>
        <pt x="864" y="1530" on="1"/>
        <pt x="1425" y="1530" on="1"/>
        <pt x="1425" y="1446" on="1"/>
        <pt x="1389" y="1436" on="0"/>
        <pt x="1334" y="1421" on="0"/>
        <pt x="1282" y="1410" on="0"/>
        <pt x="1230" y="1402" on="0"/>
        <pt x="1197" y="1399" on="1"/>
        <pt x="724" y="823" on="1"/>
        <pt x="735" y="808" on="0"/>
        <pt x="769" y="760" on="0"/>
        <pt x="830" y="681" on="0"/>
        <pt x="926" y="561" on="0"/>
        <pt x="998" y="473" on="1"/>
        <pt x="1031" y="433" on="0"/>
        <pt x="1109" y="345" on="0"/>
        <pt x="1194" y="258" on="0"/>
        <pt x="1281" y="177" on="0"/>
        <pt x="1364" y="111" on="0"/>
        <pt x="1440" y="63" on="0"/>
        <pt x="1470" y="54" on="1"/>
        <pt x="1469" y="-22" on="1"/>
        <pt x="1394" y="-22" on="0"/>
        <pt x="1246" y="-18" on="0"/>
        <pt x="1175" y="6" on="1"/>
        <pt x="1090" y="51" on="0"/>
        <pt x="944" y="187" on="0"/>
        <pt x="807" y="362" on="0"/>
        <pt x="671" y="570" on="0"/>
      </contour>
      <contour>
        <pt x="103" y="82" on="1"/>
        <pt x="155" y="96" on="0"/>
        <pt x="222" y="120" on="0"/>
        <pt x="261" y="162" on="0"/>
        <pt x="275" y="232" on="0"/>
        <pt x="275" y="292" on="1"/>
        <pt x="275" y="1390" on="1"/>
        <pt x="103" y="1446" on="1"/>
        <pt x="103" y="1530" on="1"/>
        <pt x="664" y="1530" on="1"/>
        <pt x="664" y="1446" on="1"/>
        <pt x="611" y="1432" on="0"/>
        <pt x="544" y="1408" on="0"/>
        <pt x="506" y="1366" on="0"/>
        <pt x="491" y="1296" on="0"/>
        <pt x="491" y="1236" on="1"/>
        <pt x="491" y="137" on="1"/>
        <pt x="664" y="82" on="1"/>
        <pt x="664" y="0" on="1"/>
        <pt x="103" y="0" on="1"/>
      </contour>
    </TTGlyph>
    <TTGlyph name="Kcommaaccent" xMin="103" yMin="-537" xMax="1470" yMax="1530">
      <component glyphName="K" x="0" y="0" flags="0x204"/>
      <component glyphName="commaaccent" x="530" y="0" flags="0x4"/>
    </TTGlyph>
    <TTGlyph name="L" xMin="103" yMin="-18" xMax="1278" yMax="1530">
      <contour>
        <pt x="113" y="82" on="1"/>
        <pt x="165" y="96" on="0"/>
        <pt x="229" y="120" on="0"/>
        <pt x="264" y="162" on="0"/>
        <pt x="275" y="232" on="0"/>
        <pt x="275" y="292" on="1"/>
        <pt x="275" y="1390" on="1"/>
        <pt x="103" y="1446" on="1"/>
        <pt x="103" y="1530" on="1"/>
        <pt x="684" y="1530" on="1"/>
        <pt x="684" y="1446" on="1"/>
        <pt x="631" y="1433" on="0"/>
        <pt x="558" y="1409" on="0"/>
        <pt x="512" y="1367" on="0"/>
        <pt x="491" y="1296" on="0"/>
        <pt x="491" y="1236" on="1"/>
        <pt x="491" y="112" on="1"/>
        <pt x="1072" y="143" on="1"/>
        <pt x="1165" y="466" on="1"/>
        <pt x="1278" y="466" on="1"/>
        <pt x="1236" y="-18" on="1"/>
        <pt x="1095" y="0" on="1"/>
        <pt x="113" y="0" on="1"/>
      </contour>
    </TTGlyph>
    <TTGlyph name="Lacute" xMin="103" yMin="-18" xMax="1278" yMax="2000">
      <component glyphName="L" x="0" y="0" flags="0x204"/>
      <component glyphName="acute.cap" x="179" y="0" flags="0x4"/>
    </TTGlyph>
    <TTGlyph name="Lcaron" xMin="103" yMin="-18" xMax="1278" yMax="1530">
      <component glyphName="L" x="0" y="0" flags="0x204"/>
      <component glyphName="quoteleft" x="1300" y="2597" scale="-0.999938964844" flags="0x4"/>
    </TTGlyph>
    <TTGlyph name="Lcommaaccent" xMin="103" yMin="-537" xMax="1278" yMax="1530">
      <component glyphName="L" x="0" y="0" flags="0x204"/>
      <component glyphName="commaaccent" x="422" y="0" flags="0x4"/>
    </TTGlyph>
    <TTGlyph name="Ldot" xMin="108" yMin="-18" xMax="1413" yMax="1530">
      <component glyphName="L" x="5" y="0" flags="0x4"/>
      <component glyphName="periodcentered" x="957" y="0" flags="0x4"/>
    </TTGlyph>
    <TTGlyph name="Lslash" xMin="41" yMin="-18" xMax="1278" yMax="1528">
      <contour>
        <pt x="113" y="82" on="1"/>
        <pt x="165" y="96" on="0"/>
        <pt x="229" y="120" on="0"/>
        <pt x="264" y="162" on="0"/>
        <pt x="275" y="232" on="0"/>
        <pt x="275" y="292" on="1"/>
        <pt x="275" y="629" on="1"/>
        <pt x="85" y="533" on="1"/>
        <pt x="41" y="636" on="1"/>
        <pt x="275" y="754" on="1"/>
        <pt x="275" y="1390" on="1"/>
        <pt x="103" y="1446" on="1"/>
        <pt x="103" y="1528" on="1"/>
        <pt x="684" y="1528" on="1"/>
        <pt x="684" y="1446" on="1"/>
        <pt x="631" y="1433" on="0"/>
        <pt x="558" y="1409" on="0"/>
        <pt x="512" y="1367" on="0"/>
        <pt x="491" y="1296" on="0"/>
        <pt x="491" y="1236" on="1"/>
        <pt x="491" y="864" on="1"/>
        <pt x="865" y="1054" on="1"/>
        <pt x="910" y="952" on="1"/>
        <pt x="491" y="739" on="1"/>
        <pt x="491" y="112" on="1"/>
        <pt x="1071" y="143" on="1"/>
        <pt x="1165" y="466" on="1"/>
        <pt x="1278" y="466" on="1"/>
        <pt x="1236" y="-18" on="1"/>
        <pt x="1095" y="0" on="1"/>
        <pt x="113" y="0" on="1"/>
      </contour>
    </TTGlyph>
    <TTGlyph name="M" xMin="11" yMin="-10" xMax="2031" yMax="1530">
      <contour>
        <pt x="11" y="82" on="1"/>
        <pt x="63" y="96" on="0"/>
        <pt x="119" y="122" on="0"/>
        <pt x="149" y="164" on="0"/>
        <pt x="168" y="233" on="0"/>
        <pt x="183" y="292" on="1"/>
        <pt x="196" y="344" on="1"/>
        <pt x="329" y="1323" on="1"/>
        <pt x="324" y="1353" on="0"/>
        <pt x="304" y="1392" on="0"/>
        <pt x="267" y="1418" on="0"/>
        <pt x="211" y="1437" on="0"/>
        <pt x="170" y="1448" on="1"/>
        <pt x="170" y="1530" on="1"/>
        <pt x="572" y="1530" on="1"/>
        <pt x="572" y="1491" on="1"/>
        <pt x="1025" y="355" on="1"/>
        <pt x="1452" y="1504" on="1"/>
        <pt x="1449" y="1530" on="1"/>
        <pt x="1854" y="1530" on="1"/>
        <pt x="1854" y="1446" on="1"/>
        <pt x="1801" y="1432" on="0"/>
        <pt x="1734" y="1411" on="0"/>
        <pt x="1696" y="1373" on="0"/>
        <pt x="1681" y="1307" on="0"/>
        <pt x="1681" y="1247" on="1"/>
        <pt x="1848" y="138" on="1"/>
        <pt x="2031" y="83" on="1"/>
        <pt x="2031" y="0" on="1"/>
        <pt x="1460" y="0" on="1"/>
        <pt x="1460" y="83" on="1"/>
        <pt x="1512" y="97" on="0"/>
        <pt x="1576" y="121" on="0"/>
        <pt x="1611" y="163" on="0"/>
        <pt x="1622" y="233" on="0"/>
        <pt x="1622" y="293" on="1"/>
        <pt x="1491" y="1236" on="1"/>
        <pt x="1491" y="1238" on="0"/>
        <pt x="1490" y="1243" on="0"/>
        <pt x="1490" y="1245" on="1"/>
        <pt x="1047" y="54" on="1"/>
        <pt x="1047" y="46" on="0"/>
        <pt x="1043" y="30" on="0"/>
        <pt x="1038" y="25" on="1"/>
        <pt x="946" y="-10" on="1"/>
        <pt x="455" y="1250" on="1"/>
        <pt x="344" y="384" on="1"/>
        <pt x="339" y="137" on="1"/>
        <pt x="512" y="82" on="1"/>
        <pt x="512" y="0" on="1"/>
        <pt x="11" y="0" on="1"/>
      </contour>
    </TTGlyph>
    <TTGlyph name="N" xMin="81" yMin="0" xMax="1637" yMax="1530">
      <contour>
        <pt x="81" y="82" on="1"/>
        <pt x="133" y="96" on="0"/>
        <pt x="199" y="120" on="0"/>
        <pt x="239" y="162" on="0"/>
        <pt x="259" y="232" on="0"/>
        <pt x="266" y="292" on="1"/>
        <pt x="273" y="353" on="1"/>
        <pt x="273" y="1315" on="1"/>
        <pt x="268" y="1348" on="0"/>
        <pt x="246" y="1389" on="0"/>
        <pt x="206" y="1417" on="0"/>
        <pt x="146" y="1436" on="0"/>
        <pt x="104" y="1448" on="1"/>
        <pt x="104" y="1530" on="1"/>
        <pt x="423" y="1530" on="1"/>
        <pt x="1343" y="367" on="1"/>
        <pt x="1336" y="866" on="1"/>
        <pt x="1327" y="1390" on="1"/>
        <pt x="1155" y="1446" on="1"/>
        <pt x="1155" y="1530" on="1"/>
        <pt x="1637" y="1530" on="1"/>
        <pt x="1637" y="1446" on="1"/>
        <pt x="1584" y="1432" on="0"/>
        <pt x="1517" y="1408" on="0"/>
        <pt x="1479" y="1366" on="0"/>
        <pt x="1464" y="1296" on="0"/>
        <pt x="1464" y="1236" on="1"/>
        <pt x="1464" y="0" on="1"/>
        <pt x="1348" y="0" on="1"/>
        <pt x="1347" y="13" on="1"/>
        <pt x="1344" y="0" on="1"/>
        <pt x="413" y="1200" on="1"/>
        <pt x="427" y="140" on="1"/>
        <pt x="429" y="137" on="1"/>
        <pt x="622" y="82" on="1"/>
        <pt x="622" y="0" on="1"/>
        <pt x="81" y="0" on="1"/>
      </contour>
    </TTGlyph>
    <TTGlyph name="Nacute" xMin="81" yMin="0" xMax="1637" yMax="2000">
      <component glyphName="N" x="0" y="0" flags="0x204"/>
      <component glyphName="acute.cap" x="588" y="0" flags="0x4"/>
    </TTGlyph>
    <TTGlyph name="Ncaron" xMin="81" yMin="0" xMax="1637" yMax="2000">
      <component glyphName="N" x="0" y="0" flags="0x204"/>
      <component glyphName="caron.cap" x="399" y="0" flags="0x4"/>
    </TTGlyph>
    <TTGlyph name="Ncommaaccent" xMin="81" yMin="-537" xMax="1637" yMax="1530">
      <component glyphName="N" x="0" y="0" flags="0x204"/>
      <component glyphName="commaaccent" x="609" y="0" flags="0x4"/>
    </TTGlyph>
    <TTGlyph name="Ntilde" xMin="81" yMin="0" xMax="1637" yMax="1964">
      <component glyphName="N" x="0" y="0" flags="0x204"/>
      <component glyphName="tilde.cap" x="366" y="0" flags="0x4"/>
    </TTGlyph>
    <TTGlyph name="O" xMin="100" yMin="-20" xMax="1607" yMax="1550">
      <contour>
        <pt x="100" y="732" on="1"/>
        <pt x="100" y="833" on="0"/>
        <pt x="144" y="1033" on="0"/>
        <pt x="231" y="1215" on="0"/>
        <pt x="360" y="1371" on="0"/>
        <pt x="531" y="1485" on="0"/>
        <pt x="744" y="1550" on="0"/>
        <pt x="870" y="1550" on="1"/>
        <pt x="994" y="1550" on="0"/>
        <pt x="1201" y="1492" on="0"/>
        <pt x="1364" y="1388" on="0"/>
        <pt x="1486" y="1246" on="0"/>
        <pt x="1567" y="1078" on="0"/>
        <pt x="1607" y="892" on="0"/>
        <pt x="1607" y="796" on="1"/>
        <pt x="1607" y="695" on="0"/>
        <pt x="1563" y="495" on="0"/>
        <pt x="1476" y="314" on="0"/>
        <pt x="1346" y="158" on="0"/>
        <pt x="1175" y="45" on="0"/>
        <pt x="962" y="-20" on="0"/>
        <pt x="836" y="-20" on="1"/>
        <pt x="712" y="-20" on="0"/>
        <pt x="506" y="38" on="0"/>
        <pt x="342" y="141" on="0"/>
        <pt x="220" y="283" on="0"/>
        <pt x="140" y="450" on="0"/>
        <pt x="100" y="636" on="0"/>
      </contour>
      <contour>
        <pt x="323" y="836" on="1"/>
        <pt x="323" y="748" on="0"/>
        <pt x="354" y="574" on="0"/>
        <pt x="417" y="416" on="0"/>
        <pt x="514" y="280" on="0"/>
        <pt x="646" y="181" on="0"/>
        <pt x="816" y="125" on="0"/>
        <pt x="920" y="125" on="1"/>
        <pt x="1007" y="125" on="0"/>
        <pt x="1162" y="171" on="0"/>
        <pt x="1225" y="208" on="1"/>
        <pt x="1265" y="263" on="0"/>
        <pt x="1325" y="384" on="0"/>
        <pt x="1364" y="509" on="0"/>
        <pt x="1384" y="633" on="0"/>
        <pt x="1384" y="692" on="1"/>
        <pt x="1384" y="780" on="0"/>
        <pt x="1353" y="954" on="0"/>
        <pt x="1290" y="1113" on="0"/>
        <pt x="1193" y="1248" on="0"/>
        <pt x="1060" y="1348" on="0"/>
        <pt x="890" y="1404" on="0"/>
        <pt x="786" y="1404" on="1"/>
        <pt x="699" y="1404" on="0"/>
        <pt x="544" y="1355" on="0"/>
        <pt x="481" y="1315" on="1"/>
        <pt x="441" y="1260" on="0"/>
        <pt x="381" y="1141" on="0"/>
        <pt x="342" y="1018" on="0"/>
        <pt x="323" y="894" on="0"/>
      </contour>
    </TTGlyph>
    <TTGlyph name="OE" xMin="100" yMin="-24" xMax="2129" yMax="1550">
      <contour>
        <pt x="100" y="734" on="1"/>
        <pt x="100" y="913" on="0"/>
        <pt x="196" y="1213" on="0"/>
        <pt x="390" y="1429" on="0"/>
        <pt x="681" y="1550" on="0"/>
        <pt x="876" y="1550" on="1"/>
        <pt x="973" y="1550" on="0"/>
        <pt x="1053" y="1530" on="1"/>
        <pt x="1862" y="1530" on="1"/>
        <pt x="2005" y="1549" on="1"/>
        <pt x="2005" y="1137" on="1"/>
        <pt x="1900" y="1135" on="1"/>
        <pt x="1828" y="1384" on="1"/>
        <pt x="1277" y="1402" on="1"/>
        <pt x="1322" y="1354" on="0"/>
        <pt x="1382" y="1231" on="0"/>
        <pt x="1419" y="1087" on="0"/>
        <pt x="1436" y="925" on="0"/>
        <pt x="1438" y="837" on="1"/>
        <pt x="1790" y="860" on="1"/>
        <pt x="1790" y="680" on="1"/>
        <pt x="1437" y="705" on="1"/>
        <pt x="1431" y="516" on="0"/>
        <pt x="1352" y="226" on="0"/>
        <pt x="1265" y="131" on="1"/>
        <pt x="1340" y="122" on="1"/>
        <pt x="1929" y="143" on="1"/>
        <pt x="2021" y="430" on="1"/>
        <pt x="2129" y="430" on="1"/>
        <pt x="2110" y="-18" on="1"/>
        <pt x="1959" y="2" on="1"/>
        <pt x="1055" y="2" on="1"/>
        <pt x="965" y="-24" on="0"/>
        <pt x="855" y="-24" on="1"/>
        <pt x="685" y="-24" on="0"/>
        <pt x="407" y="81" on="0"/>
        <pt x="209" y="277" on="0"/>
        <pt x="100" y="558" on="0"/>
      </contour>
      <contour>
        <pt x="349" y="728" on="1"/>
        <pt x="349" y="599" on="0"/>
        <pt x="416" y="373" on="0"/>
        <pt x="550" y="206" on="0"/>
        <pt x="752" y="113" on="0"/>
        <pt x="886" y="116" on="1"/>
        <pt x="980" y="118" on="0"/>
        <pt x="1102" y="171" on="0"/>
        <pt x="1175" y="263" on="0"/>
        <pt x="1209" y="391" on="0"/>
        <pt x="1220" y="547" on="0"/>
        <pt x="1217" y="726" on="0"/>
        <pt x="1217" y="823" on="1"/>
        <pt x="1217" y="944" on="0"/>
        <pt x="1190" y="1162" on="0"/>
        <pt x="1114" y="1327" on="0"/>
        <pt x="977" y="1424" on="0"/>
        <pt x="868" y="1424" on="1"/>
        <pt x="710" y="1424" on="0"/>
        <pt x="508" y="1325" on="0"/>
        <pt x="393" y="1143" on="0"/>
        <pt x="349" y="886" on="0"/>
      </contour>
    </TTGlyph>
    <TTGlyph name="Oacute" xMin="100" yMin="-20" xMax="1607" yMax="2000">
      <component glyphName="O" x="0" y="0" flags="0x204"/>
      <component glyphName="acute.cap" x="569" y="0" flags="0x4"/>
    </TTGlyph>
    <TTGlyph name="Obreve" xMin="100" yMin="-20" xMax="1607" yMax="2000">
      <component glyphName="O" x="0" y="0" flags="0x204"/>
      <component glyphName="breve.cap" x="400" y="0" flags="0x4"/>
    </TTGlyph>
    <TTGlyph name="Ocircumflex" xMin="100" yMin="-20" xMax="1607" yMax="2000">
      <component glyphName="O" x="0" y="0" flags="0x204"/>
      <component glyphName="circumflex.cap" x="380" y="0" flags="0x4"/>
    </TTGlyph>
    <TTGlyph name="Odieresis" xMin="100" yMin="-20" xMax="1607" yMax="2000">
      <component glyphName="O" x="0" y="0" flags="0x204"/>
      <component glyphName="dieresis.cap" x="384" y="0" flags="0x4"/>
    </TTGlyph>
    <TTGlyph name="Ograve" xMin="100" yMin="-20" xMax="1607" yMax="2000">
      <component glyphName="O" x="0" y="0" flags="0x204"/>
      <component glyphName="grave.cap" x="454" y="0" flags="0x4"/>
    </TTGlyph>
    <TTGlyph name="Ohungarumlaut" xMin="100" yMin="-20" xMax="1610" yMax="2000">
      <component glyphName="O" x="0" y="0" flags="0x204"/>
      <component glyphName="hungarumlaut.cap" x="628" y="0" flags="0x4"/>
    </TTGlyph>
    <TTGlyph name="Omacron" xMin="100" yMin="-20" xMax="1607" yMax="1982">
      <component glyphName="O" x="0" y="0" flags="0x204"/>
      <component glyphName="macron.cap" x="440" y="0" flags="0x4"/>
    </TTGlyph>
    <TTGlyph name="Omega" xMin="104" yMin="0" xMax="1542" yMax="1550">
      <contour>
        <pt x="104" y="388" on="1"/>
        <pt x="195" y="392" on="1"/>
        <pt x="203" y="335" on="0"/>
        <pt x="226" y="250" on="0"/>
        <pt x="271" y="193" on="0"/>
        <pt x="347" y="165" on="0"/>
        <pt x="409" y="165" on="1"/>
        <pt x="605" y="165" on="1"/>
        <pt x="605" y="275" on="1"/>
        <pt x="513" y="309" on="0"/>
        <pt x="356" y="450" on="0"/>
        <pt x="239" y="634" on="0"/>
        <pt x="173" y="848" on="0"/>
        <pt x="173" y="955" on="1"/>
        <pt x="173" y="1069" on="0"/>
        <pt x="250" y="1283" on="0"/>
        <pt x="414" y="1450" on="0"/>
        <pt x="667" y="1550" on="0"/>
        <pt x="843" y="1550" on="1"/>
        <pt x="963" y="1550" on="0"/>
        <pt x="1154" y="1504" on="0"/>
        <pt x="1300" y="1422" on="0"/>
        <pt x="1403" y="1310" on="0"/>
        <pt x="1468" y="1177" on="0"/>
        <pt x="1498" y="1030" on="0"/>
        <pt x="1498" y="955" on="1"/>
        <pt x="1498" y="876" on="0"/>
        <pt x="1461" y="727" on="0"/>
        <pt x="1398" y="590" on="0"/>
        <pt x="1312" y="469" on="0"/>
        <pt x="1213" y="370" on="0"/>
        <pt x="1106" y="296" on="0"/>
        <pt x="1054" y="275" on="1"/>
        <pt x="1052" y="165" on="1"/>
        <pt x="1226" y="165" on="1"/>
        <pt x="1322" y="165" on="0"/>
        <pt x="1444" y="275" on="0"/>
        <pt x="1449" y="388" on="1"/>
        <pt x="1542" y="388" on="1"/>
        <pt x="1499" y="0" on="1"/>
        <pt x="941" y="0" on="1"/>
        <pt x="941" y="353" on="1"/>
        <pt x="1004" y="370" on="0"/>
        <pt x="1103" y="446" on="0"/>
        <pt x="1178" y="548" on="0"/>
        <pt x="1229" y="672" on="0"/>
        <pt x="1261" y="802" on="0"/>
        <pt x="1275" y="932" on="0"/>
        <pt x="1275" y="991" on="1"/>
        <pt x="1275" y="1032" on="0"/>
        <pt x="1259" y="1130" on="0"/>
        <pt x="1220" y="1228" on="0"/>
        <pt x="1155" y="1319" on="0"/>
        <pt x="1058" y="1390" on="0"/>
        <pt x="923" y="1432" on="0"/>
        <pt x="835" y="1432" on="1"/>
        <pt x="746" y="1432" on="0"/>
        <pt x="610" y="1390" on="0"/>
        <pt x="511" y="1319" on="0"/>
        <pt x="445" y="1228" on="0"/>
        <pt x="406" y="1130" on="0"/>
        <pt x="390" y="1032" on="0"/>
        <pt x="390" y="991" on="1"/>
        <pt x="390" y="933" on="0"/>
        <pt x="398" y="811" on="0"/>
        <pt x="423" y="690" on="0"/>
        <pt x="467" y="575" on="0"/>
        <pt x="540" y="472" on="0"/>
        <pt x="646" y="385" on="0"/>
        <pt x="719" y="353" on="1"/>
        <pt x="714" y="0" on="1"/>
        <pt x="163" y="0" on="1"/>
      </contour>
    </TTGlyph>
    <TTGlyph name="Oslash" xMin="100" yMin="-166" xMax="1607" yMax="1672">
      <contour>
        <pt x="574" y="19" on="1"/>
        <pt x="454" y="58" on="0"/>
        <pt x="276" y="204" on="0"/>
        <pt x="158" y="394" on="0"/>
        <pt x="100" y="616" on="0"/>
        <pt x="100" y="732" on="1"/>
        <pt x="100" y="833" on="0"/>
        <pt x="144" y="1033" on="0"/>
        <pt x="231" y="1215" on="0"/>
        <pt x="360" y="1371" on="0"/>
        <pt x="531" y="1485" on="0"/>
        <pt x="744" y="1550" on="0"/>
        <pt x="870" y="1550" on="1"/>
        <pt x="895" y="1550" on="0"/>
        <pt x="944" y="1547" on="0"/>
        <pt x="967" y="1545" on="1"/>
        <pt x="1000" y="1672" on="1"/>
        <pt x="1139" y="1672" on="1"/>
        <pt x="1099" y="1520" on="1"/>
        <pt x="1227" y="1484" on="0"/>
        <pt x="1418" y="1339" on="0"/>
        <pt x="1544" y="1145" on="0"/>
        <pt x="1607" y="916" on="0"/>
        <pt x="1607" y="796" on="1"/>
        <pt x="1607" y="695" on="0"/>
        <pt x="1563" y="495" on="0"/>
        <pt x="1476" y="314" on="0"/>
        <pt x="1346" y="158" on="0"/>
        <pt x="1175" y="45" on="0"/>
        <pt x="962" y="-20" on="0"/>
        <pt x="836" y="-20" on="1"/>
        <pt x="800" y="-20" on="0"/>
        <pt x="732" y="-15" on="0"/>
        <pt x="700" y="-10" on="1"/>
        <pt x="660" y="-166" on="1"/>
        <pt x="527" y="-166" on="1"/>
      </contour>
      <contour>
        <pt x="927" y="1389" on="1"/>
        <pt x="861" y="1404" on="0"/>
        <pt x="786" y="1404" on="1"/>
        <pt x="699" y="1404" on="0"/>
        <pt x="544" y="1355" on="0"/>
        <pt x="481" y="1315" on="1"/>
        <pt x="441" y="1260" on="0"/>
        <pt x="381" y="1141" on="0"/>
        <pt x="342" y="1018" on="0"/>
        <pt x="323" y="894" on="0"/>
        <pt x="323" y="836" on="1"/>
        <pt x="323" y="741" on="0"/>
        <pt x="358" y="554" on="0"/>
        <pt x="431" y="388" on="0"/>
        <pt x="544" y="249" on="0"/>
        <pt x="621" y="203" on="1"/>
      </contour>
      <contour>
        <pt x="742" y="150" on="1"/>
        <pt x="783" y="138" on="0"/>
        <pt x="871" y="125" on="0"/>
        <pt x="920" y="125" on="1"/>
        <pt x="1007" y="125" on="0"/>
        <pt x="1162" y="171" on="0"/>
        <pt x="1225" y="208" on="1"/>
        <pt x="1265" y="263" on="0"/>
        <pt x="1325" y="384" on="0"/>
        <pt x="1364" y="509" on="0"/>
        <pt x="1384" y="633" on="0"/>
        <pt x="1384" y="692" on="1"/>
        <pt x="1384" y="791" on="0"/>
        <pt x="1345" y="987" on="0"/>
        <pt x="1263" y="1159" on="0"/>
        <pt x="1138" y="1299" on="0"/>
        <pt x="1053" y="1343" on="1"/>
      </contour>
    </TTGlyph>
    <TTGlyph name="Otilde" xMin="100" yMin="-20" xMax="1607" yMax="1964">
      <component glyphName="O" x="0" y="0" flags="0x204"/>
      <component glyphName="tilde.cap" x="347" y="0" flags="0x4"/>
    </TTGlyph>
    <TTGlyph name="P" xMin="103" yMin="0" xMax="1294" yMax="1554">
      <contour>
        <pt x="103" y="82" on="1"/>
        <pt x="155" y="96" on="0"/>
        <pt x="222" y="120" on="0"/>
        <pt x="261" y="162" on="0"/>
        <pt x="275" y="232" on="0"/>
        <pt x="275" y="292" on="1"/>
        <pt x="275" y="1390" on="1"/>
        <pt x="103" y="1456" on="1"/>
        <pt x="103" y="1538" on="1"/>
        <pt x="184" y="1531" on="0"/>
        <pt x="310" y="1530" on="0"/>
        <pt x="362" y="1530" on="1"/>
        <pt x="435" y="1530" on="0"/>
        <pt x="547" y="1537" on="0"/>
        <pt x="654" y="1546" on="0"/>
        <pt x="770" y="1554" on="0"/>
        <pt x="847" y="1554" on="1"/>
        <pt x="958" y="1554" on="0"/>
        <pt x="1125" y="1485" on="0"/>
        <pt x="1238" y="1365" on="0"/>
        <pt x="1294" y="1200" on="0"/>
        <pt x="1294" y="1104" on="1"/>
        <pt x="1294" y="1025" on="0"/>
        <pt x="1251" y="884" on="0"/>
        <pt x="1175" y="765" on="0"/>
        <pt x="1070" y="670" on="0"/>
        <pt x="946" y="603" on="0"/>
        <pt x="807" y="567" on="0"/>
        <pt x="735" y="567" on="1"/>
        <pt x="711" y="567" on="0"/>
        <pt x="648" y="570" on="0"/>
        <pt x="580" y="577" on="0"/>
        <pt x="516" y="588" on="0"/>
        <pt x="491" y="595" on="1"/>
        <pt x="491" y="137" on="1"/>
        <pt x="704" y="82" on="1"/>
        <pt x="704" y="0" on="1"/>
        <pt x="103" y="0" on="1"/>
      </contour>
      <contour>
        <pt x="491" y="740" on="1"/>
        <pt x="533" y="724" on="0"/>
        <pt x="640" y="703" on="0"/>
        <pt x="759" y="697" on="0"/>
        <pt x="883" y="708" on="0"/>
        <pt x="943" y="725" on="1"/>
        <pt x="973" y="753" on="0"/>
        <pt x="1022" y="809" on="0"/>
        <pt x="1057" y="883" on="0"/>
        <pt x="1075" y="986" on="0"/>
        <pt x="1075" y="1060" on="1"/>
        <pt x="1075" y="1140" on="0"/>
        <pt x="1033" y="1280" on="0"/>
        <pt x="946" y="1383" on="0"/>
        <pt x="814" y="1443" on="0"/>
        <pt x="724" y="1443" on="1"/>
        <pt x="667" y="1443" on="0"/>
        <pt x="580" y="1428" on="0"/>
        <pt x="521" y="1384" on="0"/>
        <pt x="491" y="1303" on="0"/>
        <pt x="491" y="1236" on="1"/>
      </contour>
    </TTGlyph>
    <TTGlyph name="Q" xMin="100" yMin="-349" xMax="1881" yMax="1550">
      <contour>
        <pt x="100" y="732" on="1"/>
        <pt x="100" y="833" on="0"/>
        <pt x="144" y="1033" on="0"/>
        <pt x="231" y="1215" on="0"/>
        <pt x="360" y="1371" on="0"/>
        <pt x="531" y="1485" on="0"/>
        <pt x="744" y="1550" on="0"/>
        <pt x="870" y="1550" on="1"/>
        <pt x="994" y="1550" on="0"/>
        <pt x="1201" y="1492" on="0"/>
        <pt x="1364" y="1388" on="0"/>
        <pt x="1486" y="1246" on="0"/>
        <pt x="1567" y="1078" on="0"/>
        <pt x="1607" y="892" on="0"/>
        <pt x="1607" y="796" on="1"/>
        <pt x="1607" y="698" on="0"/>
        <pt x="1566" y="504" on="0"/>
        <pt x="1484" y="327" on="0"/>
        <pt x="1362" y="174" on="0"/>
        <pt x="1282" y="116" on="1"/>
        <pt x="1309" y="88" on="0"/>
        <pt x="1367" y="35" on="0"/>
        <pt x="1399" y="9" on="1"/>
        <pt x="1464" y="-44" on="0"/>
        <pt x="1592" y="-139" on="0"/>
        <pt x="1713" y="-214" on="0"/>
        <pt x="1824" y="-265" on="0"/>
        <pt x="1872" y="-274" on="1"/>
        <pt x="1881" y="-325" on="1"/>
        <pt x="1846" y="-329" on="0"/>
        <pt x="1761" y="-339" on="0"/>
        <pt x="1726" y="-342" on="1"/>
        <pt x="1691" y="-347" on="0"/>
        <pt x="1622" y="-349" on="0"/>
        <pt x="1588" y="-347" on="1"/>
        <pt x="1532" y="-343" on="0"/>
        <pt x="1428" y="-301" on="0"/>
        <pt x="1332" y="-235" on="0"/>
        <pt x="1245" y="-151" on="0"/>
        <pt x="1206" y="-105" on="1"/>
        <pt x="1178" y="-72" on="0"/>
        <pt x="1129" y="-8" on="0"/>
        <pt x="1106" y="25" on="1"/>
        <pt x="1045" y="3" on="0"/>
        <pt x="911" y="-20" on="0"/>
        <pt x="836" y="-20" on="1"/>
        <pt x="712" y="-20" on="0"/>
        <pt x="506" y="38" on="0"/>
        <pt x="342" y="141" on="0"/>
        <pt x="220" y="283" on="0"/>
        <pt x="140" y="450" on="0"/>
        <pt x="100" y="636" on="0"/>
      </contour>
      <contour>
        <pt x="323" y="836" on="1"/>
        <pt x="323" y="748" on="0"/>
        <pt x="354" y="574" on="0"/>
        <pt x="417" y="416" on="0"/>
        <pt x="514" y="280" on="0"/>
        <pt x="646" y="181" on="0"/>
        <pt x="816" y="125" on="0"/>
        <pt x="920" y="125" on="1"/>
        <pt x="1007" y="125" on="0"/>
        <pt x="1162" y="171" on="0"/>
        <pt x="1225" y="208" on="1"/>
        <pt x="1265" y="263" on="0"/>
        <pt x="1325" y="384" on="0"/>
        <pt x="1364" y="509" on="0"/>
        <pt x="1384" y="633" on="0"/>
        <pt x="1384" y="692" on="1"/>
        <pt x="1384" y="780" on="0"/>
        <pt x="1353" y="954" on="0"/>
        <pt x="1290" y="1113" on="0"/>
        <pt x="1193" y="1248" on="0"/>
        <pt x="1060" y="1348" on="0"/>
        <pt x="890" y="1404" on="0"/>
        <pt x="786" y="1404" on="1"/>
        <pt x="699" y="1404" on="0"/>
        <pt x="544" y="1355" on="0"/>
        <pt x="481" y="1315" on="1"/>
        <pt x="441" y="1260" on="0"/>
        <pt x="381" y="1141" on="0"/>
        <pt x="342" y="1018" on="0"/>
        <pt x="323" y="894" on="0"/>
      </contour>
    </TTGlyph>
    <TTGlyph name="R" xMin="110" yMin="-7" xMax="1480" yMax="1550">
      <contour>
        <pt x="110" y="80" on="1"/>
        <pt x="160" y="93" on="0"/>
        <pt x="224" y="116" on="0"/>
        <pt x="261" y="156" on="0"/>
        <pt x="275" y="223" on="0"/>
        <pt x="275" y="280" on="1"/>
        <pt x="275" y="1396" on="1"/>
        <pt x="110" y="1449" on="1"/>
        <pt x="110" y="1530" on="1"/>
        <pt x="386" y="1530" on="1"/>
        <pt x="420" y="1530" on="0"/>
        <pt x="476" y="1533" on="0"/>
        <pt x="530" y="1537" on="0"/>
        <pt x="587" y="1543" on="0"/>
        <pt x="661" y="1547" on="0"/>
        <pt x="756" y="1550" on="0"/>
        <pt x="821" y="1550" on="1"/>
        <pt x="914" y="1550" on="0"/>
        <pt x="1071" y="1503" on="0"/>
        <pt x="1184" y="1409" on="0"/>
        <pt x="1248" y="1266" on="0"/>
        <pt x="1248" y="1170" on="1"/>
        <pt x="1248" y="1093" on="0"/>
        <pt x="1194" y="939" on="0"/>
        <pt x="1099" y="809" on="0"/>
        <pt x="971" y="716" on="0"/>
        <pt x="896" y="700" on="1"/>
        <pt x="908" y="672" on="0"/>
        <pt x="945" y="596" on="0"/>
        <pt x="993" y="510" on="0"/>
        <pt x="1052" y="421" on="0"/>
        <pt x="1086" y="379" on="1"/>
        <pt x="1134" y="319" on="0"/>
        <pt x="1236" y="210" on="0"/>
        <pt x="1336" y="122" on="0"/>
        <pt x="1435" y="58" on="0"/>
        <pt x="1480" y="44" on="1"/>
        <pt x="1479" y="-7" on="1"/>
        <pt x="1444" y="-7" on="0"/>
        <pt x="1358" y="-7" on="0"/>
        <pt x="1323" y="-6" on="1"/>
        <pt x="1288" y="-6" on="0"/>
        <pt x="1218" y="-1" on="0"/>
        <pt x="1185" y="6" on="1"/>
        <pt x="1131" y="16" on="0"/>
        <pt x="1046" y="72" on="0"/>
        <pt x="975" y="152" on="0"/>
        <pt x="912" y="249" on="0"/>
        <pt x="878" y="301" on="1"/>
        <pt x="851" y="344" on="0"/>
        <pt x="804" y="433" on="0"/>
        <pt x="760" y="526" on="0"/>
        <pt x="716" y="623" on="0"/>
        <pt x="692" y="673" on="1"/>
        <pt x="656" y="674" on="0"/>
        <pt x="560" y="682" on="0"/>
        <pt x="491" y="691" on="1"/>
        <pt x="491" y="132" on="1"/>
        <pt x="679" y="80" on="1"/>
        <pt x="679" y="1" on="1"/>
        <pt x="110" y="1" on="1"/>
      </contour>
      <contour>
        <pt x="491" y="796" on="1"/>
        <pt x="544" y="786" on="0"/>
        <pt x="660" y="779" on="0"/>
        <pt x="773" y="788" on="0"/>
        <pt x="876" y="812" on="0"/>
        <pt x="916" y="834" on="1"/>
        <pt x="939" y="856" on="0"/>
        <pt x="981" y="910" on="0"/>
        <pt x="1013" y="980" on="0"/>
        <pt x="1032" y="1069" on="0"/>
        <pt x="1032" y="1126" on="1"/>
        <pt x="1032" y="1202" on="0"/>
        <pt x="979" y="1322" on="0"/>
        <pt x="885" y="1405" on="0"/>
        <pt x="755" y="1449" on="0"/>
        <pt x="678" y="1449" on="1"/>
        <pt x="612" y="1449" on="0"/>
        <pt x="537" y="1430" on="0"/>
        <pt x="500" y="1380" on="0"/>
        <pt x="491" y="1293" on="0"/>
        <pt x="491" y="1226" on="1"/>
      </contour>
    </TTGlyph>
    <TTGlyph name="Racute" xMin="110" yMin="-7" xMax="1480" yMax="2000">
      <component glyphName="R" x="0" y="0" flags="0x204"/>
      <component glyphName="acute.cap" x="439" y="0" flags="0x4"/>
    </TTGlyph>
    <TTGlyph name="Rcaron" xMin="110" yMin="-7" xMax="1480" yMax="2000">
      <component glyphName="R" x="0" y="0" flags="0x204"/>
      <component glyphName="caron.cap" x="250" y="0" flags="0x4"/>
    </TTGlyph>
    <TTGlyph name="Rcommaaccent" xMin="110" yMin="-537" xMax="1480" yMax="1550">
      <component glyphName="R" x="0" y="0" flags="0x204"/>
      <component glyphName="commaaccent" x="573" y="0" flags="0x4"/>
    </TTGlyph>
    <TTGlyph name="S" xMin="159" yMin="-24" xMax="1224" yMax="1550">
      <contour>
        <pt x="203" y="499" on="1"/>
        <pt x="317" y="497" on="1"/>
        <pt x="359" y="267" on="1"/>
        <pt x="365" y="245" on="0"/>
        <pt x="377" y="218" on="0"/>
        <pt x="390" y="202" on="0"/>
        <pt x="402" y="193" on="0"/>
        <pt x="407" y="190" on="1"/>
        <pt x="429" y="179" on="0"/>
        <pt x="507" y="152" on="0"/>
        <pt x="603" y="128" on="0"/>
        <pt x="707" y="112" on="0"/>
        <pt x="757" y="112" on="1"/>
        <pt x="800" y="112" on="0"/>
        <pt x="870" y="132" on="0"/>
        <pt x="926" y="162" on="0"/>
        <pt x="969" y="199" on="0"/>
        <pt x="986" y="216" on="1"/>
        <pt x="991" y="225" on="0"/>
        <pt x="1003" y="254" on="0"/>
        <pt x="1014" y="289" on="0"/>
        <pt x="1022" y="329" on="0"/>
        <pt x="1022" y="348" on="1"/>
        <pt x="1022" y="426" on="0"/>
        <pt x="950" y="531" on="0"/>
        <pt x="831" y="605" on="0"/>
        <pt x="680" y="660" on="0"/>
        <pt x="522" y="716" on="0"/>
        <pt x="371" y="785" on="0"/>
        <pt x="252" y="887" on="0"/>
        <pt x="180" y="1032" on="0"/>
        <pt x="180" y="1138" on="1"/>
        <pt x="180" y="1212" on="0"/>
        <pt x="228" y="1330" on="0"/>
        <pt x="312" y="1422" on="0"/>
        <pt x="425" y="1488" on="0"/>
        <pt x="556" y="1530" on="0"/>
        <pt x="698" y="1550" on="0"/>
        <pt x="769" y="1550" on="1"/>
        <pt x="827" y="1550" on="0"/>
        <pt x="917" y="1541" on="0"/>
        <pt x="1001" y="1526" on="0"/>
        <pt x="1091" y="1508" on="0"/>
        <pt x="1148" y="1500" on="1"/>
        <pt x="1119" y="1104" on="1"/>
        <pt x="1012" y="1104" on="1"/>
        <pt x="972" y="1271" on="1"/>
        <pt x="967" y="1294" on="0"/>
        <pt x="954" y="1325" on="0"/>
        <pt x="936" y="1348" on="0"/>
        <pt x="914" y="1363" on="0"/>
        <pt x="900" y="1370" on="1"/>
        <pt x="858" y="1387" on="0"/>
        <pt x="741" y="1413" on="0"/>
        <pt x="669" y="1413" on="1"/>
        <pt x="609" y="1413" on="0"/>
        <pt x="510" y="1398" on="0"/>
        <pt x="475" y="1378" on="1"/>
        <pt x="464" y="1364" on="0"/>
        <pt x="433" y="1336" on="0"/>
        <pt x="406" y="1296" on="0"/>
        <pt x="387" y="1239" on="0"/>
        <pt x="387" y="1197" on="1"/>
        <pt x="387" y="1115" on="0"/>
        <pt x="459" y="1006" on="0"/>
        <pt x="577" y="931" on="0"/>
        <pt x="727" y="879" on="0"/>
        <pt x="884" y="827" on="0"/>
        <pt x="1034" y="764" on="0"/>
        <pt x="1152" y="670" on="0"/>
        <pt x="1224" y="532" on="0"/>
        <pt x="1224" y="431" on="1"/>
        <pt x="1224" y="303" on="0"/>
        <pt x="1122" y="128" on="0"/>
        <pt x="948" y="22" on="0"/>
        <pt x="719" y="-24" on="0"/>
        <pt x="592" y="-24" on="1"/>
        <pt x="541" y="-24" on="0"/>
        <pt x="428" y="-4" on="0"/>
        <pt x="315" y="30" on="0"/>
        <pt x="207" y="75" on="0"/>
        <pt x="159" y="100" on="1"/>
      </contour>
    </TTGlyph>
    <TTGlyph name="Sacute" xMin="159" yMin="-24" xMax="1224" yMax="2000">
      <component glyphName="S" x="0" y="0" flags="0x204"/>
      <component glyphName="acute.cap" x="420" y="0" flags="0x4"/>
    </TTGlyph>
    <TTGlyph name="Scaron" xMin="159" yMin="-24" xMax="1224" yMax="2000">
      <component glyphName="S" x="0" y="0" flags="0x204"/>
      <component glyphName="caron.cap" x="231" y="0" flags="0x4"/>
    </TTGlyph>
    <TTGlyph name="Scedilla" xMin="159" yMin="-496" xMax="1224" yMax="1550">
      <contour>
        <pt x="203" y="499" on="1"/>
        <pt x="317" y="497" on="1"/>
        <pt x="359" y="267" on="1"/>
        <pt x="365" y="245" on="0"/>
        <pt x="377" y="218" on="0"/>
        <pt x="390" y="202" on="0"/>
        <pt x="402" y="193" on="0"/>
        <pt x="407" y="190" on="1"/>
        <pt x="429" y="179" on="0"/>
        <pt x="507" y="152" on="0"/>
        <pt x="603" y="128" on="0"/>
        <pt x="707" y="112" on="0"/>
        <pt x="757" y="112" on="1"/>
        <pt x="800" y="112" on="0"/>
        <pt x="870" y="132" on="0"/>
        <pt x="926" y="162" on="0"/>
        <pt x="969" y="199" on="0"/>
        <pt x="986" y="216" on="1"/>
        <pt x="991" y="225" on="0"/>
        <pt x="1003" y="254" on="0"/>
        <pt x="1014" y="289" on="0"/>
        <pt x="1022" y="329" on="0"/>
        <pt x="1022" y="348" on="1"/>
        <pt x="1022" y="426" on="0"/>
        <pt x="950" y="531" on="0"/>
        <pt x="831" y="605" on="0"/>
        <pt x="680" y="660" on="0"/>
        <pt x="522" y="716" on="0"/>
        <pt x="371" y="785" on="0"/>
        <pt x="252" y="887" on="0"/>
        <pt x="180" y="1032" on="0"/>
        <pt x="180" y="1138" on="1"/>
        <pt x="180" y="1212" on="0"/>
        <pt x="228" y="1330" on="0"/>
        <pt x="312" y="1422" on="0"/>
        <pt x="425" y="1488" on="0"/>
        <pt x="556" y="1530" on="0"/>
        <pt x="698" y="1550" on="0"/>
        <pt x="769" y="1550" on="1"/>
        <pt x="827" y="1550" on="0"/>
        <pt x="917" y="1541" on="0"/>
        <pt x="1001" y="1526" on="0"/>
        <pt x="1091" y="1508" on="0"/>
        <pt x="1148" y="1500" on="1"/>
        <pt x="1119" y="1104" on="1"/>
        <pt x="1012" y="1104" on="1"/>
        <pt x="972" y="1271" on="1"/>
        <pt x="967" y="1294" on="0"/>
        <pt x="954" y="1325" on="0"/>
        <pt x="936" y="1348" on="0"/>
        <pt x="914" y="1363" on="0"/>
        <pt x="900" y="1370" on="1"/>
        <pt x="858" y="1387" on="0"/>
        <pt x="741" y="1413" on="0"/>
        <pt x="669" y="1413" on="1"/>
        <pt x="609" y="1413" on="0"/>
        <pt x="510" y="1398" on="0"/>
        <pt x="475" y="1378" on="1"/>
        <pt x="464" y="1364" on="0"/>
        <pt x="433" y="1336" on="0"/>
        <pt x="406" y="1296" on="0"/>
        <pt x="387" y="1239" on="0"/>
        <pt x="387" y="1197" on="1"/>
        <pt x="387" y="1115" on="0"/>
        <pt x="459" y="1006" on="0"/>
        <pt x="577" y="931" on="0"/>
        <pt x="727" y="879" on="0"/>
        <pt x="884" y="827" on="0"/>
        <pt x="1034" y="764" on="0"/>
        <pt x="1152" y="670" on="0"/>
        <pt x="1224" y="532" on="0"/>
        <pt x="1224" y="431" on="1"/>
        <pt x="1224" y="322" on="0"/>
        <pt x="1149" y="164" on="0"/>
        <pt x="1019" y="56" on="0"/>
        <pt x="842" y="-4" on="0"/>
        <pt x="740" y="-16" on="1"/>
        <pt x="725" y="-53" on="1"/>
        <pt x="717" y="-72" on="0"/>
        <pt x="738" y="-101" on="0"/>
        <pt x="781" y="-127" on="0"/>
        <pt x="835" y="-153" on="0"/>
        <pt x="882" y="-186" on="0"/>
        <pt x="915" y="-228" on="0"/>
        <pt x="915" y="-256" on="1"/>
        <pt x="915" y="-312" on="0"/>
        <pt x="864" y="-400" on="0"/>
        <pt x="772" y="-463" on="0"/>
        <pt x="646" y="-496" on="0"/>
        <pt x="571" y="-496" on="1"/>
        <pt x="517" y="-496" on="0"/>
        <pt x="453" y="-486" on="0"/>
        <pt x="436" y="-479" on="1"/>
        <pt x="416" y="-472" on="0"/>
        <pt x="408" y="-462" on="1"/>
        <pt x="460" y="-311" on="1"/>
        <pt x="487" y="-323" on="0"/>
        <pt x="515" y="-333" on="1"/>
        <pt x="539" y="-341" on="0"/>
        <pt x="598" y="-355" on="0"/>
        <pt x="627" y="-355" on="1"/>
        <pt x="689" y="-355" on="0"/>
        <pt x="738" y="-312" on="0"/>
        <pt x="733" y="-285" on="1"/>
        <pt x="730" y="-275" on="0"/>
        <pt x="701" y="-252" on="0"/>
        <pt x="659" y="-227" on="0"/>
        <pt x="611" y="-200" on="0"/>
        <pt x="571" y="-170" on="0"/>
        <pt x="544" y="-137" on="0"/>
        <pt x="544" y="-118" on="1"/>
        <pt x="544" y="-107" on="0"/>
        <pt x="557" y="-82" on="0"/>
        <pt x="578" y="-57" on="0"/>
        <pt x="603" y="-34" on="0"/>
        <pt x="614" y="-24" on="1"/>
        <pt x="592" y="-24" on="1"/>
        <pt x="541" y="-24" on="0"/>
        <pt x="428" y="-4" on="0"/>
        <pt x="315" y="30" on="0"/>
        <pt x="207" y="75" on="0"/>
        <pt x="159" y="100" on="1"/>
      </contour>
    </TTGlyph>
    <TTGlyph name="Scircumflex" xMin="159" yMin="-24" xMax="1224" yMax="2000">
      <component glyphName="S" x="0" y="0" flags="0x204"/>
      <component glyphName="circumflex.cap" x="231" y="0" flags="0x4"/>
    </TTGlyph>
    <TTGlyph name="Scommaaccent" xMin="159" yMin="-537" xMax="1224" yMax="1550">
      <component glyphName="S" x="0" y="0" flags="0x204"/>
      <component glyphName="commaaccent" x="405" y="0" flags="0x4"/>
    </TTGlyph>
    <TTGlyph name="T" xMin="37" yMin="0" xMax="1313" yMax="1549">
      <contour>
        <pt x="354" y="82" on="1"/>
        <pt x="410" y="92" on="0"/>
        <pt x="495" y="115" on="0"/>
        <pt x="551" y="159" on="0"/>
        <pt x="579" y="232" on="0"/>
        <pt x="579" y="292" on="1"/>
        <pt x="579" y="1398" on="1"/>
        <pt x="529" y="1396" on="0"/>
        <pt x="358" y="1390" on="0"/>
        <pt x="223" y="1384" on="1"/>
        <pt x="131" y="1136" on="1"/>
        <pt x="37" y="1136" on="1"/>
        <pt x="57" y="1549" on="1"/>
        <pt x="189" y="1530" on="1"/>
        <pt x="1181" y="1530" on="1"/>
        <pt x="1313" y="1549" on="1"/>
        <pt x="1287" y="1136" on="1"/>
        <pt x="1193" y="1136" on="1"/>
        <pt x="1147" y="1384" on="1"/>
        <pt x="1026" y="1389" on="0"/>
        <pt x="864" y="1395" on="0"/>
        <pt x="812" y="1397" on="1"/>
        <pt x="802" y="1383" on="0"/>
        <pt x="795" y="1333" on="0"/>
        <pt x="795" y="1289" on="1"/>
        <pt x="795" y="137" on="1"/>
        <pt x="1028" y="82" on="1"/>
        <pt x="1028" y="0" on="1"/>
        <pt x="354" y="0" on="1"/>
      </contour>
    </TTGlyph>
    <TTGlyph name="Tbar" xMin="37" yMin="0" xMax="1313" yMax="1549">
      <contour>
        <pt x="354" y="82" on="1"/>
        <pt x="410" y="92" on="0"/>
        <pt x="495" y="115" on="0"/>
        <pt x="551" y="159" on="0"/>
        <pt x="579" y="232" on="0"/>
        <pt x="579" y="292" on="1"/>
        <pt x="579" y="729" on="1"/>
        <pt x="324" y="729" on="1"/>
        <pt x="333" y="849" on="1"/>
        <pt x="579" y="849" on="1"/>
        <pt x="579" y="1398" on="1"/>
        <pt x="529" y="1396" on="0"/>
        <pt x="358" y="1390" on="0"/>
        <pt x="223" y="1384" on="1"/>
        <pt x="131" y="1136" on="1"/>
        <pt x="37" y="1136" on="1"/>
        <pt x="57" y="1549" on="1"/>
        <pt x="189" y="1530" on="1"/>
        <pt x="1181" y="1530" on="1"/>
        <pt x="1313" y="1549" on="1"/>
        <pt x="1287" y="1136" on="1"/>
        <pt x="1193" y="1136" on="1"/>
        <pt x="1147" y="1384" on="1"/>
        <pt x="1026" y="1389" on="0"/>
        <pt x="864" y="1395" on="0"/>
        <pt x="812" y="1397" on="1"/>
        <pt x="802" y="1383" on="0"/>
        <pt x="795" y="1333" on="0"/>
        <pt x="795" y="1289" on="1"/>
        <pt x="795" y="849" on="1"/>
        <pt x="1031" y="849" on="1"/>
        <pt x="1022" y="729" on="1"/>
        <pt x="795" y="729" on="1"/>
        <pt x="795" y="137" on="1"/>
        <pt x="1028" y="82" on="1"/>
        <pt x="1028" y="0" on="1"/>
        <pt x="354" y="0" on="1"/>
      </contour>
    </TTGlyph>
    <TTGlyph name="Tcaron" xMin="37" yMin="0" xMax="1313" yMax="2000">
      <component glyphName="T" x="0" y="0" flags="0x204"/>
      <component glyphName="caron.cap" x="209" y="0" flags="0x4"/>
    </TTGlyph>
    <TTGlyph name="Tcedilla" xMin="37" yMin="-496" xMax="1313" yMax="1549">
      <contour>
        <pt x="354" y="82" on="1"/>
        <pt x="410" y="92" on="0"/>
        <pt x="495" y="115" on="0"/>
        <pt x="551" y="159" on="0"/>
        <pt x="579" y="232" on="0"/>
        <pt x="579" y="292" on="1"/>
        <pt x="579" y="1398" on="1"/>
        <pt x="529" y="1396" on="0"/>
        <pt x="358" y="1390" on="0"/>
        <pt x="223" y="1384" on="1"/>
        <pt x="131" y="1136" on="1"/>
        <pt x="37" y="1136" on="1"/>
        <pt x="57" y="1549" on="1"/>
        <pt x="189" y="1530" on="1"/>
        <pt x="1181" y="1530" on="1"/>
        <pt x="1313" y="1549" on="1"/>
        <pt x="1287" y="1136" on="1"/>
        <pt x="1193" y="1136" on="1"/>
        <pt x="1147" y="1384" on="1"/>
        <pt x="1026" y="1389" on="0"/>
        <pt x="864" y="1395" on="0"/>
        <pt x="812" y="1397" on="1"/>
        <pt x="802" y="1383" on="0"/>
        <pt x="795" y="1333" on="0"/>
        <pt x="795" y="1289" on="1"/>
        <pt x="795" y="137" on="1"/>
        <pt x="1028" y="82" on="1"/>
        <pt x="1028" y="0" on="1"/>
        <pt x="731" y="0" on="1"/>
        <pt x="728" y="-9" on="0"/>
        <pt x="724" y="-18" on="1"/>
        <pt x="717" y="-35" on="0"/>
        <pt x="709" y="-53" on="1"/>
        <pt x="701" y="-72" on="0"/>
        <pt x="722" y="-101" on="0"/>
        <pt x="765" y="-127" on="0"/>
        <pt x="819" y="-153" on="0"/>
        <pt x="866" y="-186" on="0"/>
        <pt x="899" y="-228" on="0"/>
        <pt x="899" y="-256" on="1"/>
        <pt x="899" y="-312" on="0"/>
        <pt x="848" y="-400" on="0"/>
        <pt x="756" y="-463" on="0"/>
        <pt x="630" y="-496" on="0"/>
        <pt x="555" y="-496" on="1"/>
        <pt x="501" y="-496" on="0"/>
        <pt x="437" y="-486" on="0"/>
        <pt x="420" y="-479" on="1"/>
        <pt x="400" y="-472" on="0"/>
        <pt x="392" y="-462" on="1"/>
        <pt x="444" y="-311" on="1"/>
        <pt x="471" y="-323" on="0"/>
        <pt x="499" y="-333" on="1"/>
        <pt x="523" y="-341" on="0"/>
        <pt x="582" y="-355" on="0"/>
        <pt x="611" y="-355" on="1"/>
        <pt x="673" y="-355" on="0"/>
        <pt x="722" y="-312" on="0"/>
        <pt x="717" y="-285" on="1"/>
        <pt x="714" y="-275" on="0"/>
        <pt x="685" y="-252" on="0"/>
        <pt x="643" y="-227" on="0"/>
        <pt x="595" y="-200" on="0"/>
        <pt x="555" y="-170" on="0"/>
        <pt x="528" y="-137" on="0"/>
        <pt x="528" y="-118" on="1"/>
        <pt x="528" y="-103" on="0"/>
        <pt x="554" y="-67" on="0"/>
        <pt x="587" y="-33" on="0"/>
        <pt x="620" y="-6" on="0"/>
        <pt x="626" y="0" on="1"/>
        <pt x="354" y="0" on="1"/>
      </contour>
    </TTGlyph>
    <TTGlyph name="Tcommaaccent" xMin="37" yMin="-537" xMax="1313" yMax="1549">
      <component glyphName="T" x="0" y="0" flags="0x204"/>
      <component glyphName="commaaccent" x="428" y="0" flags="0x4"/>
    </TTGlyph>
    <TTGlyph name="Thorn" xMin="103" yMin="0" xMax="1294" yMax="1528">
      <contour>
        <pt x="103" y="82" on="1"/>
        <pt x="155" y="96" on="0"/>
        <pt x="222" y="111" on="0"/>
        <pt x="261" y="141" on="0"/>
        <pt x="275" y="202" on="0"/>
        <pt x="275" y="262" on="1"/>
        <pt x="275" y="1120" on="1"/>
        <pt x="274" y="1390" on="1"/>
        <pt x="130" y="1446" on="1"/>
        <pt x="130" y="1528" on="1"/>
        <pt x="647" y="1528" on="1"/>
        <pt x="647" y="1446" on="1"/>
        <pt x="598" y="1437" on="0"/>
        <pt x="536" y="1413" on="0"/>
        <pt x="502" y="1369" on="0"/>
        <pt x="489" y="1299" on="0"/>
        <pt x="490" y="1246" on="1"/>
        <pt x="490" y="1209" on="1"/>
        <pt x="533" y="1215" on="0"/>
        <pt x="612" y="1225" on="0"/>
        <pt x="695" y="1233" on="0"/>
        <pt x="789" y="1238" on="0"/>
        <pt x="847" y="1238" on="1"/>
        <pt x="958" y="1238" on="0"/>
        <pt x="1125" y="1174" on="0"/>
        <pt x="1238" y="1061" on="0"/>
        <pt x="1294" y="907" on="0"/>
        <pt x="1294" y="818" on="1"/>
        <pt x="1294" y="711" on="0"/>
        <pt x="1201" y="532" on="0"/>
        <pt x="1045" y="403" on="0"/>
        <pt x="843" y="331" on="0"/>
        <pt x="735" y="331" on="1"/>
        <pt x="711" y="331" on="0"/>
        <pt x="648" y="334" on="0"/>
        <pt x="580" y="341" on="0"/>
        <pt x="516" y="352" on="0"/>
        <pt x="491" y="359" on="1"/>
        <pt x="491" y="137" on="1"/>
        <pt x="704" y="82" on="1"/>
        <pt x="704" y="0" on="1"/>
        <pt x="103" y="0" on="1"/>
      </contour>
      <contour>
        <pt x="491" y="504" on="1"/>
        <pt x="533" y="488" on="0"/>
        <pt x="640" y="467" on="0"/>
        <pt x="759" y="461" on="0"/>
        <pt x="883" y="472" on="0"/>
        <pt x="943" y="489" on="1"/>
        <pt x="973" y="513" on="0"/>
        <pt x="1022" y="561" on="0"/>
        <pt x="1057" y="624" on="0"/>
        <pt x="1075" y="711" on="0"/>
        <pt x="1075" y="774" on="1"/>
        <pt x="1075" y="847" on="0"/>
        <pt x="1033" y="976" on="0"/>
        <pt x="946" y="1072" on="0"/>
        <pt x="814" y="1127" on="0"/>
        <pt x="724" y="1127" on="1"/>
        <pt x="667" y="1127" on="0"/>
        <pt x="580" y="1104" on="0"/>
        <pt x="521" y="1063" on="0"/>
        <pt x="491" y="1010" on="0"/>
        <pt x="491" y="980" on="1"/>
      </contour>
    </TTGlyph>
    <TTGlyph name="U" xMin="67" yMin="-20" xMax="1555" yMax="1530">
      <contour>
        <pt x="218" y="1390" on="1"/>
        <pt x="67" y="1446" on="1"/>
        <pt x="67" y="1530" on="1"/>
        <pt x="458" y="1530" on="1"/>
        <pt x="451" y="1504" on="0"/>
        <pt x="442" y="1447" on="0"/>
        <pt x="436" y="1372" on="0"/>
        <pt x="434" y="1272" on="0"/>
        <pt x="433" y="1132" on="0"/>
        <pt x="433" y="946" on="0"/>
        <pt x="433" y="823" on="1"/>
        <pt x="433" y="570" on="1"/>
        <pt x="433" y="464" on="0"/>
        <pt x="458" y="313" on="0"/>
        <pt x="522" y="216" on="0"/>
        <pt x="635" y="171" on="0"/>
        <pt x="724" y="171" on="1"/>
        <pt x="791" y="171" on="0"/>
        <pt x="911" y="192" on="0"/>
        <pt x="1020" y="235" on="0"/>
        <pt x="1123" y="300" on="0"/>
        <pt x="1173" y="344" on="1"/>
        <pt x="1173" y="1390" on="1"/>
        <pt x="1060" y="1446" on="1"/>
        <pt x="1060" y="1530" on="1"/>
        <pt x="1542" y="1530" on="1"/>
        <pt x="1542" y="1446" on="1"/>
        <pt x="1516" y="1435" on="0"/>
        <pt x="1461" y="1421" on="0"/>
        <pt x="1417" y="1389" on="0"/>
        <pt x="1389" y="1326" on="0"/>
        <pt x="1389" y="1266" on="1"/>
        <pt x="1389" y="752" on="1"/>
        <pt x="1390" y="654" on="0"/>
        <pt x="1392" y="508" on="0"/>
        <pt x="1393" y="397" on="0"/>
        <pt x="1396" y="312" on="0"/>
        <pt x="1399" y="241" on="0"/>
        <pt x="1405" y="175" on="0"/>
        <pt x="1409" y="137" on="1"/>
        <pt x="1555" y="82" on="1"/>
        <pt x="1555" y="0" on="1"/>
        <pt x="1195" y="0" on="1"/>
        <pt x="1193" y="38" on="0"/>
        <pt x="1192" y="77" on="1"/>
        <pt x="1190" y="110" on="0"/>
        <pt x="1189" y="185" on="0"/>
        <pt x="1188" y="217" on="1"/>
        <pt x="1170" y="197" on="0"/>
        <pt x="1111" y="146" on="0"/>
        <pt x="1034" y="94" on="0"/>
        <pt x="941" y="43" on="0"/>
        <pt x="838" y="4" on="0"/>
        <pt x="728" y="-20" on="0"/>
        <pt x="673" y="-20" on="1"/>
        <pt x="624" y="-20" on="0"/>
        <pt x="519" y="-12" on="0"/>
        <pt x="418" y="18" on="0"/>
        <pt x="327" y="78" on="0"/>
        <pt x="258" y="181" on="0"/>
        <pt x="218" y="334" on="0"/>
        <pt x="218" y="443" on="1"/>
      </contour>
    </TTGlyph>
    <TTGlyph name="Uacute" xMin="67" yMin="-20" xMax="1555" yMax="2000">
      <component glyphName="U" x="0" y="0" flags="0x204"/>
      <component glyphName="acute.cap" x="487" y="0" flags="0x4"/>
    </TTGlyph>
    <TTGlyph name="Ubreve" xMin="67" yMin="-20" xMax="1555" yMax="2000">
      <component glyphName="U" x="0" y="0" flags="0x204"/>
      <component glyphName="breve.cap" x="318" y="0" flags="0x4"/>
    </TTGlyph>
    <TTGlyph name="Ucircumflex" xMin="67" yMin="-20" xMax="1555" yMax="2000">
      <component glyphName="U" x="0" y="0" flags="0x204"/>
      <component glyphName="circumflex.cap" x="298" y="0" flags="0x4"/>
    </TTGlyph>
    <TTGlyph name="Udieresis" xMin="67" yMin="-20" xMax="1555" yMax="2000">
      <component glyphName="U" x="0" y="0" flags="0x204"/>
      <component glyphName="dieresis.cap" x="302" y="0" flags="0x4"/>
    </TTGlyph>
    <TTGlyph name="Ugrave" xMin="67" yMin="-20" xMax="1555" yMax="2000">
      <component glyphName="U" x="0" y="0" flags="0x204"/>
      <component glyphName="grave.cap" x="372" y="0" flags="0x4"/>
    </TTGlyph>
    <TTGlyph name="Uhungarumlaut" xMin="67" yMin="-20" xMax="1555" yMax="2000">
      <component glyphName="U" x="0" y="0" flags="0x204"/>
      <component glyphName="hungarumlaut.cap" x="384" y="0" flags="0x4"/>
    </TTGlyph>
    <TTGlyph name="Umacron" xMin="67" yMin="-20" xMax="1555" yMax="1982">
      <component glyphName="U" x="0" y="0" flags="0x204"/>
      <component glyphName="macron.cap" x="358" y="0" flags="0x4"/>
    </TTGlyph>
    <TTGlyph name="Uogonek" xMin="67" yMin="-498" xMax="1555" yMax="1530">
      <contour>
        <pt x="218" y="1390" on="1"/>
        <pt x="67" y="1446" on="1"/>
        <pt x="67" y="1530" on="1"/>
        <pt x="458" y="1530" on="1"/>
        <pt x="451" y="1504" on="0"/>
        <pt x="442" y="1447" on="0"/>
        <pt x="436" y="1372" on="0"/>
        <pt x="434" y="1272" on="0"/>
        <pt x="433" y="1132" on="0"/>
        <pt x="433" y="946" on="0"/>
        <pt x="433" y="823" on="1"/>
        <pt x="433" y="570" on="1"/>
        <pt x="433" y="464" on="0"/>
        <pt x="458" y="313" on="0"/>
        <pt x="522" y="216" on="0"/>
        <pt x="635" y="171" on="0"/>
        <pt x="724" y="171" on="1"/>
        <pt x="791" y="171" on="0"/>
        <pt x="911" y="192" on="0"/>
        <pt x="1020" y="235" on="0"/>
        <pt x="1123" y="300" on="0"/>
        <pt x="1173" y="344" on="1"/>
        <pt x="1173" y="1390" on="1"/>
        <pt x="1060" y="1446" on="1"/>
        <pt x="1060" y="1530" on="1"/>
        <pt x="1542" y="1530" on="1"/>
        <pt x="1542" y="1446" on="1"/>
        <pt x="1516" y="1435" on="0"/>
        <pt x="1461" y="1421" on="0"/>
        <pt x="1417" y="1389" on="0"/>
        <pt x="1389" y="1326" on="0"/>
        <pt x="1389" y="1266" on="1"/>
        <pt x="1389" y="752" on="1"/>
        <pt x="1390" y="654" on="0"/>
        <pt x="1392" y="508" on="0"/>
        <pt x="1393" y="397" on="0"/>
        <pt x="1396" y="312" on="0"/>
        <pt x="1399" y="241" on="0"/>
        <pt x="1405" y="175" on="0"/>
        <pt x="1409" y="137" on="1"/>
        <pt x="1555" y="82" on="1"/>
        <pt x="1555" y="0" on="1"/>
        <pt x="1310" y="0" on="1"/>
        <pt x="1267" y="-62" on="0"/>
        <pt x="1236" y="-166" on="0"/>
        <pt x="1231" y="-204" on="1"/>
        <pt x="1226" y="-244" on="0"/>
        <pt x="1248" y="-294" on="0"/>
        <pt x="1282" y="-323" on="0"/>
        <pt x="1323" y="-333" on="0"/>
        <pt x="1338" y="-333" on="1"/>
        <pt x="1351" y="-333" on="0"/>
        <pt x="1384" y="-332" on="0"/>
        <pt x="1418" y="-326" on="0"/>
        <pt x="1455" y="-314" on="0"/>
        <pt x="1473" y="-303" on="1"/>
        <pt x="1520" y="-435" on="1"/>
        <pt x="1509" y="-444" on="0"/>
        <pt x="1467" y="-466" on="0"/>
        <pt x="1411" y="-485" on="0"/>
        <pt x="1345" y="-498" on="0"/>
        <pt x="1310" y="-498" on="1"/>
        <pt x="1245" y="-498" on="0"/>
        <pt x="1145" y="-459" on="0"/>
        <pt x="1080" y="-389" on="0"/>
        <pt x="1052" y="-292" on="0"/>
        <pt x="1058" y="-233" on="1"/>
        <pt x="1061" y="-201" on="0"/>
        <pt x="1086" y="-132" on="0"/>
        <pt x="1124" y="-63" on="0"/>
        <pt x="1170" y="1" on="0"/>
        <pt x="1194" y="28" on="1"/>
        <pt x="1193" y="44" on="0"/>
        <pt x="1191" y="89" on="0"/>
        <pt x="1190" y="140" on="0"/>
        <pt x="1188" y="193" on="0"/>
        <pt x="1188" y="217" on="1"/>
        <pt x="1170" y="197" on="0"/>
        <pt x="1111" y="146" on="0"/>
        <pt x="1034" y="94" on="0"/>
        <pt x="941" y="43" on="0"/>
        <pt x="838" y="4" on="0"/>
        <pt x="728" y="-20" on="0"/>
        <pt x="673" y="-20" on="1"/>
        <pt x="624" y="-20" on="0"/>
        <pt x="519" y="-12" on="0"/>
        <pt x="418" y="18" on="0"/>
        <pt x="327" y="78" on="0"/>
        <pt x="258" y="181" on="0"/>
        <pt x="218" y="334" on="0"/>
        <pt x="218" y="443" on="1"/>
      </contour>
    </TTGlyph>
    <TTGlyph name="Uring" xMin="67" yMin="-20" xMax="1555" yMax="1947">
      <component glyphName="U" x="0" y="0" flags="0x204"/>
      <component glyphName="ring.cap" x="404" y="0" flags="0x4"/>
    </TTGlyph>
    <TTGlyph name="Utilde" xMin="67" yMin="-20" xMax="1555" yMax="1964">
      <component glyphName="U" x="0" y="0" flags="0x204"/>
      <component glyphName="tilde.cap" x="265" y="0" flags="0x4"/>
    </TTGlyph>
    <TTGlyph name="V" xMin="-41" yMin="-24" xMax="1565" yMax="1530">
      <contour>
        <pt x="188" y="1237" on="1"/>
        <pt x="186" y="1238" on="1"/>
        <pt x="122" y="1400" on="1"/>
        <pt x="-41" y="1448" on="1"/>
        <pt x="-41" y="1530" on="1"/>
        <pt x="553" y="1530" on="1"/>
        <pt x="553" y="1448" on="1"/>
        <pt x="514" y="1437" on="0"/>
        <pt x="459" y="1420" on="0"/>
        <pt x="420" y="1396" on="0"/>
        <pt x="394" y="1363" on="0"/>
        <pt x="386" y="1337" on="1"/>
        <pt x="803" y="219" on="1"/>
        <pt x="1201" y="1403" on="1"/>
        <pt x="1016" y="1448" on="1"/>
        <pt x="1016" y="1530" on="1"/>
        <pt x="1565" y="1530" on="1"/>
        <pt x="1565" y="1448" on="1"/>
        <pt x="1513" y="1434" on="0"/>
        <pt x="1422" y="1416" on="0"/>
        <pt x="1385" y="1399" on="1"/>
        <pt x="885" y="30" on="1"/>
        <pt x="692" y="-24" on="1"/>
      </contour>
    </TTGlyph>
    <TTGlyph name="W" xMin="-10" yMin="-34" xMax="2267" yMax="1530">
      <contour>
        <pt x="154" y="1393" on="1"/>
        <pt x="-10" y="1448" on="1"/>
        <pt x="-10" y="1530" on="1"/>
        <pt x="565" y="1530" on="1"/>
        <pt x="565" y="1448" on="1"/>
        <pt x="523" y="1436" on="0"/>
        <pt x="466" y="1417" on="0"/>
        <pt x="428" y="1389" on="0"/>
        <pt x="407" y="1349" on="0"/>
        <pt x="400" y="1316" on="1"/>
        <pt x="763" y="219" on="1"/>
        <pt x="1059" y="1156" on="1"/>
        <pt x="1026" y="1251" on="1"/>
        <pt x="970" y="1393" on="1"/>
        <pt x="817" y="1448" on="1"/>
        <pt x="817" y="1530" on="1"/>
        <pt x="1429" y="1530" on="1"/>
        <pt x="1429" y="1448" on="1"/>
        <pt x="1378" y="1434" on="0"/>
        <pt x="1299" y="1414" on="0"/>
        <pt x="1247" y="1387" on="0"/>
        <pt x="1219" y="1347" on="0"/>
        <pt x="1219" y="1313" on="1"/>
        <pt x="1573" y="233" on="1"/>
        <pt x="1915" y="1368" on="1"/>
        <pt x="1915" y="1393" on="1"/>
        <pt x="1742" y="1448" on="1"/>
        <pt x="1742" y="1530" on="1"/>
        <pt x="2267" y="1530" on="1"/>
        <pt x="2267" y="1448" on="1"/>
        <pt x="2219" y="1435" on="0"/>
        <pt x="2129" y="1418" on="0"/>
        <pt x="2091" y="1404" on="1"/>
        <pt x="1647" y="20" on="1"/>
        <pt x="1468" y="-34" on="1"/>
        <pt x="1129" y="952" on="1"/>
        <pt x="829" y="20" on="1"/>
        <pt x="658" y="-34" on="1"/>
      </contour>
    </TTGlyph>
    <TTGlyph name="Wacute" xMin="-10" yMin="-34" xMax="2267" yMax="2000">
      <component glyphName="W" x="0" y="0" flags="0x204"/>
      <component glyphName="acute.cap" x="832" y="0" flags="0x4"/>
    </TTGlyph>
    <TTGlyph name="Wcircumflex" xMin="-10" yMin="-34" xMax="2267" yMax="2000">
      <component glyphName="W" x="0" y="0" flags="0x204"/>
      <component glyphName="circumflex.cap" x="643" y="0" flags="0x4"/>
    </TTGlyph>
    <TTGlyph name="Wdieresis" xMin="-10" yMin="-34" xMax="2267" yMax="2000">
      <component glyphName="W" x="0" y="0" flags="0x204"/>
      <component glyphName="dieresis.cap" x="647" y="0" flags="0x4"/>
    </TTGlyph>
    <TTGlyph name="Wgrave" xMin="-10" yMin="-34" xMax="2267" yMax="2000">
      <component glyphName="W" x="0" y="0" flags="0x204"/>
      <component glyphName="grave.cap" x="717" y="0" flags="0x4"/>
    </TTGlyph>
    <TTGlyph name="X" xMin="42" yMin="0" xMax="1497" yMax="1530">
      <contour>
        <pt x="42" y="82" on="1"/>
        <pt x="187" y="137" on="1"/>
        <pt x="273" y="228" on="1"/>
        <pt x="653" y="742" on="1"/>
        <pt x="207" y="1382" on="1"/>
        <pt x="198" y="1393" on="1"/>
        <pt x="44" y="1448" on="1"/>
        <pt x="44" y="1530" on="1"/>
        <pt x="625" y="1530" on="1"/>
        <pt x="625" y="1448" on="1"/>
        <pt x="532" y="1448" on="0"/>
        <pt x="470" y="1389" on="0"/>
        <pt x="491" y="1338" on="1"/>
        <pt x="790" y="893" on="1"/>
        <pt x="1137" y="1396" on="1"/>
        <pt x="988" y="1448" on="1"/>
        <pt x="988" y="1530" on="1"/>
        <pt x="1490" y="1530" on="1"/>
        <pt x="1490" y="1448" on="1"/>
        <pt x="1442" y="1443" on="0"/>
        <pt x="1367" y="1420" on="0"/>
        <pt x="1302" y="1378" on="0"/>
        <pt x="1242" y="1314" on="0"/>
        <pt x="1210" y="1269" on="1"/>
        <pt x="1205" y="1265" on="1"/>
        <pt x="865" y="784" on="1"/>
        <pt x="1326" y="139" on="1"/>
        <pt x="1363" y="128" on="0"/>
        <pt x="1445" y="96" on="0"/>
        <pt x="1497" y="82" on="1"/>
        <pt x="1497" y="0" on="1"/>
        <pt x="1006" y="0" on="1"/>
        <pt x="1006" y="82" on="1"/>
        <pt x="1085" y="104" on="1"/>
        <pt x="729" y="631" on="1"/>
        <pt x="459" y="248" on="1"/>
        <pt x="438" y="211" on="0"/>
        <pt x="427" y="156" on="0"/>
        <pt x="460" y="116" on="0"/>
        <pt x="543" y="90" on="0"/>
        <pt x="615" y="82" on="1"/>
        <pt x="615" y="0" on="1"/>
        <pt x="42" y="0" on="1"/>
      </contour>
    </TTGlyph>
    <TTGlyph name="Y" xMin="12" yMin="1" xMax="1463" yMax="1530">
      <contour>
        <pt x="407" y="83" on="1"/>
        <pt x="471" y="93" on="0"/>
        <pt x="562" y="116" on="0"/>
        <pt x="621" y="160" on="0"/>
        <pt x="649" y="233" on="0"/>
        <pt x="649" y="293" on="1"/>
        <pt x="649" y="597" on="1"/>
        <pt x="164" y="1370" on="1"/>
        <pt x="143" y="1393" on="1"/>
        <pt x="12" y="1448" on="1"/>
        <pt x="12" y="1530" on="1"/>
        <pt x="577" y="1530" on="1"/>
        <pt x="577" y="1448" on="1"/>
        <pt x="481" y="1437" on="0"/>
        <pt x="405" y="1391" on="0"/>
        <pt x="417" y="1339" on="1"/>
        <pt x="782" y="710" on="1"/>
        <pt x="1160" y="1401" on="1"/>
        <pt x="995" y="1448" on="1"/>
        <pt x="995" y="1530" on="1"/>
        <pt x="1463" y="1530" on="1"/>
        <pt x="1463" y="1448" on="1"/>
        <pt x="1424" y="1437" on="0"/>
        <pt x="1359" y="1419" on="0"/>
        <pt x="1333" y="1408" on="1"/>
        <pt x="865" y="597" on="1"/>
        <pt x="865" y="138" on="1"/>
        <pt x="1108" y="83" on="1"/>
        <pt x="1108" y="1" on="1"/>
        <pt x="407" y="1" on="1"/>
      </contour>
    </TTGlyph>
    <TTGlyph name="Yacute" xMin="12" yMin="1" xMax="1463" yMax="2000">
      <component glyphName="Y" x="0" y="0" flags="0x204"/>
      <component glyphName="acute.cap" x="489" y="0" flags="0x4"/>
    </TTGlyph>
    <TTGlyph name="Ycircumflex" xMin="12" yMin="1" xMax="1463" yMax="2000">
      <component glyphName="Y" x="0" y="0" flags="0x204"/>
      <component glyphName="circumflex.cap" x="291" y="0" flags="0x4"/>
    </TTGlyph>
    <TTGlyph name="Ydieresis" xMin="12" yMin="1" xMax="1463" yMax="2000">
      <component glyphName="Y" x="0" y="0" flags="0x204"/>
      <component glyphName="dieresis.cap" x="304" y="0" flags="0x4"/>
    </TTGlyph>
    <TTGlyph name="Ygrave" xMin="12" yMin="1" xMax="1463" yMax="2000">
      <component glyphName="Y" x="0" y="0" flags="0x204"/>
      <component glyphName="grave.cap" x="374" y="0" flags="0x4"/>
    </TTGlyph>
    <TTGlyph name="Z" xMin="78" yMin="-18" xMax="1286" yMax="1549">
      <contour>
        <pt x="78" y="87" on="1"/>
        <pt x="992" y="1421" on="1"/>
        <pt x="913" y="1414" on="0"/>
        <pt x="766" y="1402" on="0"/>
        <pt x="610" y="1390" on="0"/>
        <pt x="438" y="1379" on="0"/>
        <pt x="333" y="1375" on="1"/>
        <pt x="261" y="1135" on="1"/>
        <pt x="167" y="1137" on="1"/>
        <pt x="167" y="1549" on="1"/>
        <pt x="299" y="1530" on="1"/>
        <pt x="1254" y="1530" on="1"/>
        <pt x="1274" y="1444" on="1"/>
        <pt x="358" y="118" on="1"/>
        <pt x="461" y="125" on="0"/>
        <pt x="674" y="139" on="0"/>
        <pt x="867" y="152" on="0"/>
        <pt x="1026" y="161" on="0"/>
        <pt x="1076" y="163" on="1"/>
        <pt x="1188" y="420" on="1"/>
        <pt x="1286" y="420" on="1"/>
        <pt x="1257" y="-18" on="1"/>
        <pt x="1126" y="0" on="1"/>
        <pt x="100" y="0" on="1"/>
      </contour>
    </TTGlyph>
    <TTGlyph name="Zacute" xMin="78" yMin="-18" xMax="1286" yMax="2000">
      <component glyphName="Z" x="0" y="0" flags="0x204"/>
      <component glyphName="acute.cap" x="398" y="0" flags="0x4"/>
    </TTGlyph>
    <TTGlyph name="Zcaron" xMin="78" yMin="-18" xMax="1286" yMax="2000">
      <component glyphName="Z" x="0" y="0" flags="0x204"/>
      <component glyphName="caron.cap" x="209" y="0" flags="0x4"/>
    </TTGlyph>
    <TTGlyph name="Zdotaccent" xMin="78" yMin="-18" xMax="1286" yMax="1998">
      <component glyphName="Z" x="0" y="0" flags="0x204"/>
      <component glyphName="dotaccent.cap" x="416" y="0" flags="0x4"/>
    </TTGlyph>
    <TTGlyph name="a" xMin="103" yMin="-20" xMax="1073" yMax="1042">
      <contour>
        <pt x="103" y="254" on="1"/>
        <pt x="103" y="296" on="0"/>
        <pt x="118" y="366" on="0"/>
        <pt x="163" y="427" on="0"/>
        <pt x="246" y="482" on="0"/>
        <pt x="381" y="536" on="0"/>
        <pt x="575" y="592" on="0"/>
        <pt x="710" y="624" on="1"/>
        <pt x="710" y="777" on="1"/>
        <pt x="710" y="805" on="0"/>
        <pt x="703" y="856" on="0"/>
        <pt x="667" y="895" on="0"/>
        <pt x="592" y="920" on="0"/>
        <pt x="525" y="921" on="1"/>
        <pt x="477" y="921" on="0"/>
        <pt x="413" y="894" on="0"/>
        <pt x="368" y="838" on="0"/>
        <pt x="335" y="755" on="0"/>
        <pt x="318" y="700" on="1"/>
        <pt x="158" y="700" on="1"/>
        <pt x="179" y="906" on="1"/>
        <pt x="212" y="920" on="0"/>
        <pt x="290" y="952" on="0"/>
        <pt x="371" y="982" on="0"/>
        <pt x="451" y="1009" on="0"/>
        <pt x="520" y="1030" on="0"/>
        <pt x="574" y="1042" on="0"/>
        <pt x="589" y="1042" on="1"/>
        <pt x="679" y="1042" on="0"/>
        <pt x="804" y="1014" on="0"/>
        <pt x="884" y="947" on="0"/>
        <pt x="920" y="836" on="0"/>
        <pt x="920" y="754" on="1"/>
        <pt x="920" y="179" on="1"/>
        <pt x="920" y="152" on="0"/>
        <pt x="968" y="128" on="0"/>
        <pt x="1025" y="120" on="0"/>
        <pt x="1073" y="120" on="0"/>
        <pt x="1073" y="118" on="1"/>
        <pt x="1073" y="35" on="1"/>
        <pt x="1053" y="27" on="0"/>
        <pt x="1000" y="8" on="0"/>
        <pt x="940" y="-8" on="0"/>
        <pt x="879" y="-20" on="0"/>
        <pt x="851" y="-20" on="1"/>
        <pt x="780" y="-20" on="0"/>
        <pt x="720" y="54" on="0"/>
        <pt x="720" y="130" on="1"/>
        <pt x="672" y="90" on="0"/>
        <pt x="599" y="33" on="0"/>
        <pt x="530" y="-3" on="0"/>
        <pt x="452" y="-20" on="0"/>
        <pt x="400" y="-20" on="1"/>
        <pt x="348" y="-20" on="0"/>
        <pt x="242" y="12" on="0"/>
        <pt x="157" y="79" on="0"/>
        <pt x="103" y="183" on="0"/>
      </contour>
      <contour>
        <pt x="323" y="279" on="1"/>
        <pt x="323" y="239" on="0"/>
        <pt x="352" y="182" on="0"/>
        <pt x="402" y="145" on="0"/>
        <pt x="471" y="128" on="0"/>
        <pt x="510" y="128" on="1"/>
        <pt x="564" y="128" on="0"/>
        <pt x="668" y="185" on="0"/>
        <pt x="710" y="225" on="1"/>
        <pt x="710" y="522" on="1"/>
        <pt x="674" y="509" on="0"/>
        <pt x="588" y="488" on="0"/>
        <pt x="502" y="465" on="0"/>
        <pt x="422" y="435" on="0"/>
        <pt x="360" y="390" on="0"/>
        <pt x="323" y="325" on="0"/>
      </contour>
    </TTGlyph>
    <TTGlyph name="aacute" xMin="103" yMin="-20" xMax="1073" yMax="1645">
      <component glyphName="a" x="0" y="0" flags="0x204"/>
      <component glyphName="acute" x="296" y="0" flags="0x4"/>
    </TTGlyph>
    <TTGlyph name="abreve" xMin="103" yMin="-20" xMax="1073" yMax="1569">
      <component glyphName="a" x="0" y="0" flags="0x204"/>
      <component glyphName="breve" x="66" y="0" flags="0x4"/>
    </TTGlyph>
    <TTGlyph name="acircumflex" xMin="103" yMin="-20" xMax="1073" yMax="1645">
      <component glyphName="a" x="0" y="0" flags="0x204"/>
      <component glyphName="circumflex" x="46" y="40" flags="0x4"/>
    </TTGlyph>
    <TTGlyph name="acute" xMin="114" yMin="1164" xMax="609" yMax="1645">
      <contour>
        <pt x="114" y="1229" on="1"/>
        <pt x="193" y="1329" on="0"/>
        <pt x="340" y="1539" on="0"/>
        <pt x="417" y="1645" on="1"/>
        <pt x="438" y="1641" on="0"/>
        <pt x="490" y="1615" on="0"/>
        <pt x="542" y="1579" on="0"/>
        <pt x="591" y="1538" on="0"/>
        <pt x="609" y="1519" on="1"/>
        <pt x="204" y="1164" on="1"/>
      </contour>
    </TTGlyph>
    <TTGlyph name="acute.cap" xMin="114" yMin="1639" xMax="589" yMax="2000">
      <contour>
        <pt x="114" y="1714" on="1"/>
        <pt x="153" y="1751" on="0"/>
        <pt x="229" y="1820" on="0"/>
        <pt x="304" y="1888" on="0"/>
        <pt x="379" y="1960" on="0"/>
        <pt x="417" y="2000" on="1"/>
        <pt x="438" y="1996" on="0"/>
        <pt x="483" y="1964" on="0"/>
        <pt x="528" y="1921" on="0"/>
        <pt x="571" y="1873" on="0"/>
        <pt x="589" y="1854" on="1"/>
        <pt x="204" y="1639" on="1"/>
      </contour>
    </TTGlyph>
    <TTGlyph name="adieresis" xMin="103" yMin="-20" xMax="1073" yMax="1556">
      <component glyphName="a" x="0" y="0" flags="0x204"/>
      <component glyphName="dieresis" x="49" y="20" flags="0x4"/>
    </TTGlyph>
    <TTGlyph name="ae" xMin="103" yMin="-29" xMax="1588" yMax="1042">
      <contour>
        <pt x="103" y="254" on="1"/>
        <pt x="103" y="301" on="0"/>
        <pt x="122" y="375" on="0"/>
        <pt x="171" y="437" on="0"/>
        <pt x="258" y="489" on="0"/>
        <pt x="393" y="540" on="0"/>
        <pt x="582" y="593" on="0"/>
        <pt x="710" y="624" on="1"/>
        <pt x="710" y="777" on="1"/>
        <pt x="710" y="800" on="0"/>
        <pt x="704" y="850" on="0"/>
        <pt x="674" y="892" on="0"/>
        <pt x="608" y="920" on="0"/>
        <pt x="548" y="921" on="1"/>
        <pt x="490" y="921" on="0"/>
        <pt x="416" y="894" on="0"/>
        <pt x="367" y="838" on="0"/>
        <pt x="334" y="755" on="0"/>
        <pt x="317" y="700" on="1"/>
        <pt x="158" y="700" on="1"/>
        <pt x="179" y="906" on="1"/>
        <pt x="212" y="920" on="0"/>
        <pt x="290" y="952" on="0"/>
        <pt x="371" y="982" on="0"/>
        <pt x="451" y="1009" on="0"/>
        <pt x="520" y="1030" on="0"/>
        <pt x="574" y="1042" on="0"/>
        <pt x="589" y="1042" on="1"/>
        <pt x="714" y="1042" on="0"/>
        <pt x="861" y="984" on="0"/>
        <pt x="893" y="913" on="1"/>
        <pt x="958" y="973" on="0"/>
        <pt x="1128" y="1042" on="0"/>
        <pt x="1233" y="1042" on="1"/>
        <pt x="1329" y="1042" on="0"/>
        <pt x="1464" y="983" on="0"/>
        <pt x="1550" y="874" on="0"/>
        <pt x="1588" y="721" on="0"/>
        <pt x="1586" y="627" on="1"/>
        <pt x="1585" y="613" on="0"/>
        <pt x="1584" y="576" on="0"/>
        <pt x="1583" y="559" on="1"/>
        <pt x="1582" y="540" on="0"/>
        <pt x="1580" y="519" on="1"/>
        <pt x="927" y="519" on="1"/>
        <pt x="926" y="431" on="0"/>
        <pt x="956" y="307" on="0"/>
        <pt x="1009" y="224" on="0"/>
        <pt x="1079" y="176" on="0"/>
        <pt x="1152" y="152" on="0"/>
        <pt x="1224" y="145" on="0"/>
        <pt x="1254" y="145" on="1"/>
        <pt x="1298" y="153" on="0"/>
        <pt x="1346" y="164" on="1"/>
        <pt x="1388" y="174" on="0"/>
        <pt x="1490" y="202" on="0"/>
        <pt x="1543" y="222" on="1"/>
        <pt x="1577" y="136" on="1"/>
        <pt x="1522" y="105" on="0"/>
        <pt x="1426" y="54" on="0"/>
        <pt x="1337" y="13" on="0"/>
        <pt x="1254" y="-18" on="0"/>
        <pt x="1212" y="-29" on="1"/>
        <pt x="1062" y="-29" on="0"/>
        <pt x="857" y="72" on="0"/>
        <pt x="798" y="166" on="1"/>
        <pt x="751" y="121" on="1"/>
        <pt x="723" y="94" on="0"/>
        <pt x="654" y="42" on="0"/>
        <pt x="565" y="2" on="0"/>
        <pt x="451" y="-22" on="0"/>
        <pt x="379" y="-20" on="1"/>
        <pt x="331" y="-19" on="0"/>
        <pt x="233" y="16" on="0"/>
        <pt x="153" y="85" on="0"/>
        <pt x="103" y="186" on="0"/>
      </contour>
      <contour>
        <pt x="927" y="623" on="1"/>
        <pt x="1026" y="625" on="0"/>
        <pt x="1166" y="630" on="0"/>
        <pt x="1259" y="636" on="0"/>
        <pt x="1313" y="641" on="0"/>
        <pt x="1325" y="643" on="1"/>
        <pt x="1333" y="644" on="0"/>
        <pt x="1347" y="659" on="0"/>
        <pt x="1356" y="680" on="0"/>
        <pt x="1361" y="706" on="0"/>
        <pt x="1361" y="719" on="1"/>
        <pt x="1361" y="787" on="0"/>
        <pt x="1315" y="881" on="0"/>
        <pt x="1235" y="931" on="0"/>
        <pt x="1128" y="934" on="0"/>
        <pt x="1068" y="912" on="1"/>
        <pt x="1056" y="908" on="0"/>
        <pt x="1011" y="874" on="0"/>
        <pt x="965" y="806" on="0"/>
        <pt x="929" y="699" on="0"/>
      </contour>
      <contour>
        <pt x="323" y="279" on="1"/>
        <pt x="323" y="199" on="0"/>
        <pt x="426" y="128" on="0"/>
        <pt x="510" y="128" on="1"/>
        <pt x="542" y="128" on="0"/>
        <pt x="609" y="153" on="0"/>
        <pt x="673" y="190" on="0"/>
        <pt x="731" y="235" on="0"/>
        <pt x="754" y="256" on="1"/>
        <pt x="734" y="311" on="0"/>
        <pt x="717" y="439" on="0"/>
        <pt x="719" y="511" on="1"/>
        <pt x="719" y="523" on="1"/>
        <pt x="698" y="518" on="0"/>
        <pt x="632" y="500" on="0"/>
        <pt x="554" y="478" on="0"/>
        <pt x="469" y="450" on="0"/>
        <pt x="429" y="435" on="1"/>
        <pt x="383" y="412" on="0"/>
        <pt x="323" y="338" on="0"/>
      </contour>
    </TTGlyph>
    <TTGlyph name="aeacute" xMin="103" yMin="-29" xMax="1588" yMax="1645">
      <component glyphName="ae" x="0" y="0" flags="0x204"/>
      <component glyphName="acute" x="693" y="0" flags="0x4"/>
    </TTGlyph>
    <TTGlyph name="agrave" xMin="103" yMin="-20" xMax="1073" yMax="1645">
      <component glyphName="a" x="0" y="0" flags="0x204"/>
      <component glyphName="grave" x="19" y="0" flags="0x4"/>
    </TTGlyph>
    <TTGlyph name="amacron" xMin="103" yMin="-20" xMax="1073" yMax="1412">
      <component glyphName="a" x="0" y="0" flags="0x204"/>
      <component glyphName="macron" x="106" y="0" flags="0x4"/>
    </TTGlyph>
    <TTGlyph name="ampersand" xMin="130" yMin="-38" xMax="1619" yMax="1547">
      <contour>
        <pt x="130" y="391" on="1"/>
        <pt x="130" y="480" on="0"/>
        <pt x="195" y="612" on="0"/>
        <pt x="301" y="713" on="0"/>
        <pt x="436" y="788" on="0"/>
        <pt x="507" y="821" on="1"/>
        <pt x="493" y="836" on="0"/>
        <pt x="483" y="851" on="1"/>
        <pt x="452" y="891" on="0"/>
        <pt x="402" y="975" on="0"/>
        <pt x="367" y="1065" on="0"/>
        <pt x="349" y="1162" on="0"/>
        <pt x="351" y="1215" on="1"/>
        <pt x="352" y="1247" on="0"/>
        <pt x="373" y="1322" on="0"/>
        <pt x="414" y="1395" on="0"/>
        <pt x="478" y="1463" on="0"/>
        <pt x="567" y="1516" on="0"/>
        <pt x="684" y="1547" on="0"/>
        <pt x="757" y="1547" on="1"/>
        <pt x="832" y="1547" on="0"/>
        <pt x="961" y="1505" on="0"/>
        <pt x="1057" y="1430" on="0"/>
        <pt x="1112" y="1327" on="0"/>
        <pt x="1112" y="1267" on="1"/>
        <pt x="1112" y="1175" on="0"/>
        <pt x="1051" y="1045" on="0"/>
        <pt x="952" y="950" on="0"/>
        <pt x="827" y="879" on="0"/>
        <pt x="763" y="847" on="1"/>
        <pt x="763" y="847" on="0"/>
        <pt x="764" y="846" on="1"/>
        <pt x="807" y="792" on="0"/>
        <pt x="893" y="687" on="0"/>
        <pt x="986" y="575" on="0"/>
        <pt x="1089" y="452" on="0"/>
        <pt x="1149" y="381" on="1"/>
        <pt x="1172" y="353" on="1"/>
        <pt x="1242" y="444" on="0"/>
        <pt x="1335" y="651" on="0"/>
        <pt x="1346" y="751" on="1"/>
        <pt x="1350" y="790" on="0"/>
        <pt x="1352" y="856" on="0"/>
        <pt x="1331" y="904" on="0"/>
        <pt x="1279" y="933" on="0"/>
        <pt x="1230" y="936" on="1"/>
        <pt x="1229" y="1030" on="1"/>
        <pt x="1395" y="1030" on="1"/>
        <pt x="1475" y="1030" on="0"/>
        <pt x="1549" y="937" on="0"/>
        <pt x="1549" y="861" on="1"/>
        <pt x="1549" y="800" on="0"/>
        <pt x="1508" y="651" on="0"/>
        <pt x="1432" y="492" on="0"/>
        <pt x="1323" y="332" on="0"/>
        <pt x="1256" y="259" on="1"/>
        <pt x="1297" y="214" on="0"/>
        <pt x="1359" y="160" on="0"/>
        <pt x="1412" y="131" on="0"/>
        <pt x="1463" y="121" on="0"/>
        <pt x="1494" y="121" on="1"/>
        <pt x="1519" y="121" on="0"/>
        <pt x="1577" y="126" on="0"/>
        <pt x="1618" y="129" on="1"/>
        <pt x="1619" y="58" on="1"/>
        <pt x="1592" y="33" on="0"/>
        <pt x="1557" y="14" on="1"/>
        <pt x="1527" y="-3" on="0"/>
        <pt x="1439" y="-30" on="0"/>
        <pt x="1382" y="-30" on="1"/>
        <pt x="1342" y="-30" on="0"/>
        <pt x="1261" y="-2" on="0"/>
        <pt x="1186" y="42" on="0"/>
        <pt x="1121" y="92" on="0"/>
        <pt x="1096" y="115" on="1"/>
        <pt x="1000" y="46" on="0"/>
        <pt x="784" y="-38" on="0"/>
        <pt x="666" y="-38" on="1"/>
        <pt x="542" y="-38" on="0"/>
        <pt x="344" y="30" on="0"/>
        <pt x="205" y="146" on="0"/>
        <pt x="130" y="302" on="0"/>
      </contour>
      <contour>
        <pt x="704" y="917" on="1"/>
        <pt x="752" y="946" on="0"/>
        <pt x="831" y="1015" on="0"/>
        <pt x="888" y="1094" on="0"/>
        <pt x="920" y="1183" on="0"/>
        <pt x="920" y="1232" on="1"/>
        <pt x="920" y="1289" on="0"/>
        <pt x="888" y="1371" on="0"/>
        <pt x="836" y="1424" on="0"/>
        <pt x="771" y="1450" on="0"/>
        <pt x="739" y="1450" on="1"/>
        <pt x="686" y="1450" on="0"/>
        <pt x="613" y="1417" on="0"/>
        <pt x="565" y="1362" on="0"/>
        <pt x="542" y="1292" on="0"/>
        <pt x="541" y="1255" on="1"/>
        <pt x="539" y="1205" on="0"/>
        <pt x="566" y="1116" on="0"/>
        <pt x="612" y="1033" on="0"/>
        <pt x="672" y="955" on="0"/>
      </contour>
      <contour>
        <pt x="354" y="428" on="1"/>
        <pt x="354" y="337" on="0"/>
        <pt x="433" y="213" on="0"/>
        <pt x="555" y="138" on="0"/>
        <pt x="700" y="106" on="0"/>
        <pt x="766" y="106" on="1"/>
        <pt x="829" y="106" on="0"/>
        <pt x="957" y="156" on="0"/>
        <pt x="1017" y="201" on="1"/>
        <pt x="998" y="224" on="0"/>
        <pt x="938" y="297" on="0"/>
        <pt x="865" y="385" on="0"/>
        <pt x="781" y="486" on="0"/>
        <pt x="695" y="590" on="0"/>
        <pt x="610" y="692" on="0"/>
        <pt x="573" y="738" on="1"/>
        <pt x="534" y="711" on="0"/>
        <pt x="456" y="645" on="0"/>
        <pt x="393" y="568" on="0"/>
        <pt x="354" y="479" on="0"/>
      </contour>
    </TTGlyph>
    <TTGlyph name="aogonek" xMin="103" yMin="-498" xMax="1073" yMax="1042">
      <contour>
        <pt x="103" y="254" on="1"/>
        <pt x="103" y="296" on="0"/>
        <pt x="118" y="366" on="0"/>
        <pt x="163" y="427" on="0"/>
        <pt x="246" y="482" on="0"/>
        <pt x="381" y="536" on="0"/>
        <pt x="575" y="592" on="0"/>
        <pt x="710" y="624" on="1"/>
        <pt x="710" y="777" on="1"/>
        <pt x="710" y="805" on="0"/>
        <pt x="703" y="856" on="0"/>
        <pt x="667" y="895" on="0"/>
        <pt x="592" y="920" on="0"/>
        <pt x="525" y="921" on="1"/>
        <pt x="477" y="921" on="0"/>
        <pt x="413" y="894" on="0"/>
        <pt x="368" y="838" on="0"/>
        <pt x="335" y="755" on="0"/>
        <pt x="318" y="700" on="1"/>
        <pt x="158" y="700" on="1"/>
        <pt x="179" y="906" on="1"/>
        <pt x="212" y="920" on="0"/>
        <pt x="290" y="952" on="0"/>
        <pt x="371" y="982" on="0"/>
        <pt x="451" y="1009" on="0"/>
        <pt x="520" y="1030" on="0"/>
        <pt x="574" y="1042" on="0"/>
        <pt x="589" y="1042" on="1"/>
        <pt x="679" y="1042" on="0"/>
        <pt x="804" y="1014" on="0"/>
        <pt x="884" y="947" on="0"/>
        <pt x="920" y="836" on="0"/>
        <pt x="920" y="754" on="1"/>
        <pt x="920" y="179" on="1"/>
        <pt x="920" y="152" on="0"/>
        <pt x="968" y="128" on="0"/>
        <pt x="1025" y="120" on="0"/>
        <pt x="1073" y="120" on="0"/>
        <pt x="1073" y="118" on="1"/>
        <pt x="1073" y="35" on="1"/>
        <pt x="1054" y="27" on="1"/>
        <pt x="951" y="-30" on="0"/>
        <pt x="839" y="-150" on="0"/>
        <pt x="824" y="-204" on="1"/>
        <pt x="814" y="-242" on="0"/>
        <pt x="826" y="-291" on="0"/>
        <pt x="851" y="-321" on="0"/>
        <pt x="882" y="-333" on="0"/>
        <pt x="891" y="-333" on="1"/>
        <pt x="904" y="-333" on="0"/>
        <pt x="937" y="-332" on="0"/>
        <pt x="971" y="-326" on="0"/>
        <pt x="1008" y="-314" on="0"/>
        <pt x="1026" y="-303" on="1"/>
        <pt x="1073" y="-435" on="1"/>
        <pt x="1062" y="-444" on="0"/>
        <pt x="1020" y="-466" on="0"/>
        <pt x="965" y="-485" on="0"/>
        <pt x="899" y="-498" on="0"/>
        <pt x="863" y="-498" on="1"/>
        <pt x="808" y="-498" on="0"/>
        <pt x="718" y="-460" on="0"/>
        <pt x="659" y="-392" on="0"/>
        <pt x="637" y="-299" on="0"/>
        <pt x="651" y="-243" on="1"/>
        <pt x="659" y="-209" on="0"/>
        <pt x="694" y="-145" on="0"/>
        <pt x="742" y="-88" on="0"/>
        <pt x="800" y="-39" on="0"/>
        <pt x="831" y="-19" on="1"/>
        <pt x="771" y="-14" on="0"/>
        <pt x="720" y="59" on="0"/>
        <pt x="720" y="130" on="1"/>
        <pt x="672" y="90" on="0"/>
        <pt x="599" y="33" on="0"/>
        <pt x="530" y="-3" on="0"/>
        <pt x="452" y="-20" on="0"/>
        <pt x="400" y="-20" on="1"/>
        <pt x="348" y="-20" on="0"/>
        <pt x="242" y="12" on="0"/>
        <pt x="157" y="79" on="0"/>
        <pt x="103" y="183" on="0"/>
      </contour>
      <contour>
        <pt x="323" y="279" on="1"/>
        <pt x="323" y="239" on="0"/>
        <pt x="352" y="182" on="0"/>
        <pt x="402" y="145" on="0"/>
        <pt x="471" y="128" on="0"/>
        <pt x="510" y="128" on="1"/>
        <pt x="564" y="128" on="0"/>
        <pt x="668" y="185" on="0"/>
        <pt x="710" y="225" on="1"/>
        <pt x="710" y="522" on="1"/>
        <pt x="674" y="509" on="0"/>
        <pt x="588" y="488" on="0"/>
        <pt x="502" y="465" on="0"/>
        <pt x="422" y="435" on="0"/>
        <pt x="360" y="390" on="0"/>
        <pt x="323" y="325" on="0"/>
      </contour>
    </TTGlyph>
    <TTGlyph name="approxequal" xMin="175" yMin="201" xMax="1017" yMax="1030">
      <component glyphName="asciitilde" x="0" y="277" flags="0x204"/>
      <component glyphName="asciitilde" x="0" y="-245" flags="0x4"/>
    </TTGlyph>
    <TTGlyph name="aring" xMin="103" yMin="-20" xMax="1073" yMax="1655">
      <component glyphName="a" x="0" y="0" flags="0x204"/>
      <component glyphName="ring" x="153" y="0" flags="0x4"/>
    </TTGlyph>
    <TTGlyph name="asciicircum" xMin="136" yMin="510" xMax="1057" yMax="1530">
      <contour>
        <pt x="502" y="1530" on="1"/>
        <pt x="695" y="1530" on="1"/>
        <pt x="1057" y="510" on="1"/>
        <pt x="907" y="510" on="1"/>
        <pt x="596" y="1311" on="1"/>
        <pt x="296" y="510" on="1"/>
        <pt x="136" y="510" on="1"/>
      </contour>
    </TTGlyph>
    <TTGlyph name="asciitilde" xMin="175" yMin="446" xMax="1017" yMax="753">
      <contour>
        <pt x="175" y="480" on="1"/>
        <pt x="187" y="529" on="0"/>
        <pt x="235" y="627" on="0"/>
        <pt x="304" y="705" on="0"/>
        <pt x="391" y="753" on="0"/>
        <pt x="441" y="753" on="1"/>
        <pt x="496" y="753" on="0"/>
        <pt x="595" y="708" on="0"/>
        <pt x="682" y="654" on="0"/>
        <pt x="757" y="609" on="0"/>
        <pt x="788" y="609" on="1"/>
        <pt x="812" y="609" on="0"/>
        <pt x="854" y="639" on="0"/>
        <pt x="889" y="682" on="0"/>
        <pt x="915" y="728" on="0"/>
        <pt x="924" y="745" on="1"/>
        <pt x="1017" y="711" on="1"/>
        <pt x="1005" y="664" on="0"/>
        <pt x="960" y="570" on="0"/>
        <pt x="896" y="495" on="0"/>
        <pt x="814" y="447" on="0"/>
        <pt x="765" y="447" on="1"/>
        <pt x="726" y="447" on="0"/>
        <pt x="659" y="467" on="0"/>
        <pt x="600" y="497" on="0"/>
        <pt x="547" y="533" on="0"/>
        <pt x="497" y="563" on="0"/>
        <pt x="449" y="584" on="0"/>
        <pt x="425" y="585" on="1"/>
        <pt x="387" y="586" on="0"/>
        <pt x="339" y="556" on="0"/>
        <pt x="306" y="512" on="0"/>
        <pt x="283" y="464" on="0"/>
        <pt x="272" y="446" on="1"/>
        <pt x="175" y="480" on="1"/>
      </contour>
    </TTGlyph>
    <TTGlyph name="asterisk" xMin="192" yMin="575" xMax="1123" yMax="1536">
      <contour>
        <pt x="194" y="1214" on="1"/>
        <pt x="288" y="1376" on="1"/>
        <pt x="604" y="1147" on="1"/>
        <pt x="564" y="1536" on="1"/>
        <pt x="753" y="1536" on="1"/>
        <pt x="710" y="1147" on="1"/>
        <pt x="1028" y="1376" on="1"/>
        <pt x="1123" y="1213" on="1"/>
        <pt x="764" y="1055" on="1"/>
        <pt x="1122" y="895" on="1"/>
        <pt x="1027" y="732" on="1"/>
        <pt x="710" y="963" on="1"/>
        <pt x="764" y="1055" on="1"/>
        <pt x="710" y="1147" on="1"/>
        <pt x="604" y="1147" on="1"/>
        <pt x="551" y="1055" on="1"/>
      </contour>
      <contour>
        <pt x="192" y="896" on="1"/>
        <pt x="551" y="1055" on="1"/>
        <pt x="604" y="963" on="1"/>
        <pt x="286" y="733" on="1"/>
      </contour>
      <contour>
        <pt x="604" y="963" on="1"/>
        <pt x="710" y="963" on="1"/>
        <pt x="751" y="575" on="1"/>
        <pt x="563" y="575" on="1"/>
      </contour>
    </TTGlyph>
    <TTGlyph name="at" xMin="123" yMin="-176" xMax="1807" yMax="1497">
      <contour>
        <pt x="123" y="558" on="1"/>
        <pt x="123" y="696" on="0"/>
        <pt x="192" y="942" on="0"/>
        <pt x="317" y="1151" on="0"/>
        <pt x="493" y="1318" on="0"/>
        <pt x="707" y="1434" on="0"/>
        <pt x="952" y="1497" on="0"/>
        <pt x="1085" y="1497" on="1"/>
        <pt x="1230" y="1497" on="0"/>
        <pt x="1490" y="1428" on="0"/>
        <pt x="1688" y="1280" on="0"/>
        <pt x="1805" y="1045" on="0"/>
        <pt x="1806" y="879" on="1"/>
        <pt x="1807" y="748" on="0"/>
        <pt x="1725" y="517" on="0"/>
        <pt x="1579" y="339" on="0"/>
        <pt x="1377" y="227" on="0"/>
        <pt x="1257" y="215" on="1"/>
        <pt x="1236" y="213" on="0"/>
        <pt x="1204" y="212" on="0"/>
        <pt x="1175" y="210" on="0"/>
        <pt x="1143" y="210" on="0"/>
        <pt x="1121" y="210" on="1"/>
        <pt x="1086" y="210" on="0"/>
        <pt x="1053" y="238" on="0"/>
        <pt x="1051" y="258" on="1"/>
        <pt x="1048" y="280" on="0"/>
        <pt x="1050" y="318" on="0"/>
        <pt x="1057" y="356" on="0"/>
        <pt x="1068" y="395" on="0"/>
        <pt x="1074" y="418" on="1"/>
        <pt x="1054" y="402" on="0"/>
        <pt x="991" y="357" on="0"/>
        <pt x="916" y="308" on="0"/>
        <pt x="836" y="261" on="0"/>
        <pt x="764" y="224" on="0"/>
        <pt x="706" y="201" on="0"/>
        <pt x="691" y="201" on="1"/>
        <pt x="650" y="201" on="0"/>
        <pt x="589" y="249" on="0"/>
        <pt x="549" y="324" on="0"/>
        <pt x="529" y="416" on="0"/>
        <pt x="529" y="461" on="1"/>
        <pt x="530" y="551" on="0"/>
        <pt x="571" y="721" on="0"/>
        <pt x="645" y="871" on="0"/>
        <pt x="747" y="997" on="0"/>
        <pt x="869" y="1088" on="0"/>
        <pt x="1009" y="1138" on="0"/>
        <pt x="1084" y="1138" on="1"/>
        <pt x="1103" y="1138" on="0"/>
        <pt x="1149" y="1126" on="0"/>
        <pt x="1173" y="1116" on="1"/>
        <pt x="1188" y="1109" on="0"/>
        <pt x="1221" y="1093" on="0"/>
        <pt x="1237" y="1088" on="1"/>
        <pt x="1297" y="1151" on="1"/>
        <pt x="1389" y="1137" on="1"/>
        <pt x="1366" y="1036" on="0"/>
        <pt x="1320" y="860" on="0"/>
        <pt x="1280" y="688" on="0"/>
        <pt x="1247" y="511" on="0"/>
        <pt x="1236" y="410" on="1"/>
        <pt x="1234" y="391" on="0"/>
        <pt x="1248" y="368" on="0"/>
        <pt x="1270" y="355" on="0"/>
        <pt x="1297" y="350" on="0"/>
        <pt x="1308" y="350" on="1"/>
        <pt x="1403" y="350" on="0"/>
        <pt x="1539" y="440" on="0"/>
        <pt x="1627" y="585" on="0"/>
        <pt x="1668" y="767" on="0"/>
        <pt x="1668" y="859" on="1"/>
        <pt x="1668" y="988" on="0"/>
        <pt x="1575" y="1191" on="0"/>
        <pt x="1415" y="1330" on="0"/>
        <pt x="1202" y="1403" on="0"/>
        <pt x="1083" y="1403" on="1"/>
        <pt x="967" y="1403" on="0"/>
        <pt x="757" y="1344" on="0"/>
        <pt x="577" y="1237" on="0"/>
        <pt x="432" y="1089" on="0"/>
        <pt x="330" y="911" on="0"/>
        <pt x="275" y="708" on="0"/>
        <pt x="275" y="601" on="1"/>
        <pt x="275" y="427" on="0"/>
        <pt x="379" y="177" on="0"/>
        <pt x="566" y="16" on="0"/>
        <pt x="826" y="-59" on="0"/>
        <pt x="983" y="-59" on="1"/>
        <pt x="1087" y="-59" on="0"/>
        <pt x="1296" y="-28" on="0"/>
        <pt x="1393" y="6" on="1"/>
        <pt x="1399" y="-76" on="1"/>
        <pt x="1284" y="-130" on="0"/>
        <pt x="1032" y="-176" on="0"/>
        <pt x="904" y="-176" on="1"/>
        <pt x="796" y="-176" on="0"/>
        <pt x="595" y="-137" on="0"/>
        <pt x="422" y="-57" on="0"/>
        <pt x="280" y="64" on="0"/>
        <pt x="178" y="227" on="0"/>
        <pt x="123" y="433" on="0"/>
      </contour>
      <contour>
        <pt x="707" y="527" on="1"/>
        <pt x="707" y="495" on="0"/>
        <pt x="717" y="449" on="0"/>
        <pt x="741" y="419" on="0"/>
        <pt x="782" y="405" on="0"/>
        <pt x="813" y="405" on="1"/>
        <pt x="837" y="405" on="0"/>
        <pt x="911" y="434" on="0"/>
        <pt x="988" y="476" on="0"/>
        <pt x="1055" y="522" on="0"/>
        <pt x="1070" y="538" on="1"/>
        <pt x="1079" y="582" on="0"/>
        <pt x="1094" y="646" on="0"/>
        <pt x="1107" y="697" on="0"/>
        <pt x="1118" y="742" on="0"/>
        <pt x="1130" y="794" on="0"/>
        <pt x="1143" y="858" on="0"/>
        <pt x="1151" y="903" on="1"/>
        <pt x="1129" y="927" on="0"/>
        <pt x="1090" y="963" on="0"/>
        <pt x="1067" y="978" on="1"/>
        <pt x="1015" y="1016" on="0"/>
        <pt x="922" y="1001" on="0"/>
        <pt x="842" y="928" on="0"/>
        <pt x="777" y="812" on="0"/>
        <pt x="732" y="687" on="0"/>
        <pt x="707" y="567" on="0"/>
      </contour>
    </TTGlyph>
    <TTGlyph name="atilde" xMin="103" yMin="-20" xMax="1073" yMax="1564">
      <component glyphName="a" x="0" y="0" flags="0x204"/>
      <component glyphName="tilde" x="31" y="20" flags="0x4"/>
    </TTGlyph>
    <TTGlyph name="b" xMin="13" yMin="-20" xMax="1129" yMax="1662">
      <contour>
        <pt x="181" y="1303" on="1"/>
        <pt x="181" y="1357" on="0"/>
        <pt x="153" y="1416" on="0"/>
        <pt x="107" y="1448" on="0"/>
        <pt x="46" y="1462" on="0"/>
        <pt x="13" y="1471" on="1"/>
        <pt x="13" y="1543" on="1"/>
        <pt x="58" y="1554" on="0"/>
        <pt x="128" y="1571" on="0"/>
        <pt x="186" y="1586" on="0"/>
        <pt x="234" y="1601" on="0"/>
        <pt x="284" y="1620" on="0"/>
        <pt x="337" y="1645" on="0"/>
        <pt x="371" y="1662" on="1"/>
        <pt x="408" y="1641" on="1"/>
        <pt x="407" y="1630" on="0"/>
        <pt x="405" y="1561" on="0"/>
        <pt x="402" y="1459" on="0"/>
        <pt x="400" y="1335" on="0"/>
        <pt x="398" y="1206" on="0"/>
        <pt x="397" y="1081" on="0"/>
        <pt x="395" y="978" on="0"/>
        <pt x="394" y="904" on="0"/>
        <pt x="393" y="891" on="1"/>
        <pt x="421" y="909" on="0"/>
        <pt x="499" y="961" on="0"/>
        <pt x="587" y="1009" on="0"/>
        <pt x="677" y="1042" on="0"/>
        <pt x="718" y="1042" on="1"/>
        <pt x="736" y="1042" on="0"/>
        <pt x="814" y="1033" on="0"/>
        <pt x="908" y="996" on="0"/>
        <pt x="1007" y="924" on="0"/>
        <pt x="1047" y="862" on="1"/>
        <pt x="1079" y="808" on="0"/>
        <pt x="1129" y="657" on="0"/>
        <pt x="1129" y="553" on="1"/>
        <pt x="1129" y="427" on="0"/>
        <pt x="1071" y="244" on="0"/>
        <pt x="979" y="116" on="0"/>
        <pt x="864" y="38" on="0"/>
        <pt x="752" y="-5" on="0"/>
        <pt x="653" y="-20" on="0"/>
        <pt x="623" y="-20" on="1"/>
        <pt x="565" y="-20" on="0"/>
        <pt x="421" y="-7" on="0"/>
        <pt x="289" y="10" on="0"/>
        <pt x="192" y="23" on="0"/>
        <pt x="181" y="23" on="1"/>
        <pt x="179" y="23" on="1"/>
      </contour>
      <contour>
        <pt x="393" y="168" on="1"/>
        <pt x="453" y="137" on="0"/>
        <pt x="584" y="102" on="0"/>
        <pt x="657" y="102" on="1"/>
        <pt x="728" y="102" on="0"/>
        <pt x="827" y="162" on="0"/>
        <pt x="888" y="266" on="0"/>
        <pt x="915" y="402" on="0"/>
        <pt x="915" y="479" on="1"/>
        <pt x="915" y="560" on="0"/>
        <pt x="882" y="706" on="0"/>
        <pt x="823" y="816" on="0"/>
        <pt x="742" y="881" on="0"/>
        <pt x="694" y="881" on="1"/>
        <pt x="658" y="881" on="0"/>
        <pt x="569" y="859" on="0"/>
        <pt x="485" y="827" on="0"/>
        <pt x="413" y="794" on="0"/>
        <pt x="393" y="784" on="1"/>
      </contour>
    </TTGlyph>
    <TTGlyph name="backslash" xMin="119" yMin="-166" xMax="731" yMax="1672">
      <component glyphName="slash" x="849" y="0" scalex="-0.999938964844" scaley="1.0" flags="0x4"/>
    </TTGlyph>
    <TTGlyph name="bar" xMin="183" yMin="-360" xMax="329" yMax="1742">
      <contour>
        <pt x="183" y="1734" on="1"/>
        <pt x="329" y="1742" on="1"/>
        <pt x="329" y="-360" on="1"/>
        <pt x="183" y="-360" on="1"/>
      </contour>
    </TTGlyph>
    <TTGlyph name="braceleft" xMin="53" yMin="-350" xMax="778" yMax="1801">
      <contour>
        <pt x="340" y="118" on="1"/>
        <pt x="340" y="193" on="0"/>
        <pt x="345" y="329" on="0"/>
        <pt x="339" y="446" on="0"/>
        <pt x="312" y="543" on="0"/>
        <pt x="248" y="614" on="0"/>
        <pt x="139" y="659" on="0"/>
        <pt x="53" y="667" on="1"/>
        <pt x="53" y="784" on="1"/>
        <pt x="139" y="791" on="0"/>
        <pt x="248" y="847" on="0"/>
        <pt x="312" y="931" on="0"/>
        <pt x="339" y="1038" on="0"/>
        <pt x="345" y="1155" on="0"/>
        <pt x="340" y="1276" on="0"/>
        <pt x="340" y="1333" on="1"/>
        <pt x="340" y="1452" on="0"/>
        <pt x="389" y="1621" on="0"/>
        <pt x="494" y="1732" on="0"/>
        <pt x="660" y="1791" on="0"/>
        <pt x="778" y="1801" on="1"/>
        <pt x="778" y="1704" on="1"/>
        <pt x="724" y="1692" on="0"/>
        <pt x="622" y="1643" on="0"/>
        <pt x="568" y="1601" on="1"/>
        <pt x="554" y="1545" on="0"/>
        <pt x="540" y="1454" on="0"/>
        <pt x="535" y="1369" on="0"/>
        <pt x="535" y="1279" on="0"/>
        <pt x="535" y="1225" on="1"/>
        <pt x="535" y="1196" on="0"/>
        <pt x="535" y="1152" on="0"/>
        <pt x="534" y="1114" on="0"/>
        <pt x="532" y="1079" on="0"/>
        <pt x="531" y="1059" on="1"/>
        <pt x="528" y="1017" on="0"/>
        <pt x="515" y="953" on="0"/>
        <pt x="501" y="930" on="1"/>
        <pt x="487" y="904" on="0"/>
        <pt x="448" y="845" on="0"/>
        <pt x="383" y="790" on="0"/>
        <pt x="285" y="744" on="0"/>
        <pt x="212" y="731" on="1"/>
        <pt x="212" y="726" on="1"/>
        <pt x="285" y="712" on="0"/>
        <pt x="383" y="665" on="0"/>
        <pt x="448" y="608" on="0"/>
        <pt x="487" y="547" on="0"/>
        <pt x="501" y="521" on="1"/>
        <pt x="515" y="498" on="0"/>
        <pt x="528" y="434" on="0"/>
        <pt x="531" y="392" on="1"/>
        <pt x="534" y="352" on="0"/>
        <pt x="535" y="254" on="0"/>
        <pt x="535" y="196" on="1"/>
        <pt x="535" y="142" on="0"/>
        <pt x="535" y="62" on="0"/>
        <pt x="540" y="-13" on="0"/>
        <pt x="554" y="-94" on="0"/>
        <pt x="568" y="-150" on="1"/>
        <pt x="622" y="-192" on="0"/>
        <pt x="724" y="-241" on="0"/>
        <pt x="778" y="-253" on="1"/>
        <pt x="778" y="-350" on="1"/>
        <pt x="660" y="-340" on="0"/>
        <pt x="494" y="-281" on="0"/>
        <pt x="389" y="-170" on="0"/>
        <pt x="340" y="-1" on="0"/>
      </contour>
    </TTGlyph>
    <TTGlyph name="braceright" xMin="75" yMin="-350" xMax="800" yMax="1801">
      <component glyphName="braceleft" x="853" y="0" scalex="-0.999938964844" scaley="1.0" flags="0x4"/>
    </TTGlyph>
    <TTGlyph name="bracketleft" xMin="170" yMin="-355" xMax="515" yMax="1798">
      <contour>
        <pt x="170" y="1798" on="1"/>
        <pt x="515" y="1798" on="1"/>
        <pt x="515" y="1678" on="1"/>
        <pt x="325" y="1640" on="1"/>
        <pt x="325" y="-228" on="1"/>
        <pt x="515" y="-242" on="1"/>
        <pt x="515" y="-355" on="1"/>
        <pt x="170" y="-355" on="1"/>
      </contour>
    </TTGlyph>
    <TTGlyph name="bracketright" xMin="170" yMin="-355" xMax="515" yMax="1798">
      <component glyphName="bracketleft" x="685" y="0" scalex="-0.999938964844" scaley="1.0" flags="0x4"/>
    </TTGlyph>
    <TTGlyph name="breve" xMin="106" yMin="1187" xMax="801" yMax="1569">
      <contour>
        <pt x="451" y="1187" on="1"/>
        <pt x="374" y="1187" on="0"/>
        <pt x="241" y="1239" on="0"/>
        <pt x="148" y="1338" on="0"/>
        <pt x="106" y="1480" on="0"/>
        <pt x="121" y="1569" on="1"/>
        <pt x="230" y="1569" on="1"/>
        <pt x="230" y="1518" on="0"/>
        <pt x="266" y="1439" on="0"/>
        <pt x="327" y="1384" on="0"/>
        <pt x="407" y="1355" on="0"/>
        <pt x="451" y="1355" on="1"/>
        <pt x="495" y="1355" on="0"/>
        <pt x="577" y="1384" on="0"/>
        <pt x="639" y="1439" on="0"/>
        <pt x="677" y="1518" on="0"/>
        <pt x="677" y="1569" on="1"/>
        <pt x="786" y="1569" on="1"/>
        <pt x="801" y="1480" on="0"/>
        <pt x="758" y="1338" on="0"/>
        <pt x="663" y="1239" on="0"/>
        <pt x="528" y="1187" on="0"/>
      </contour>
    </TTGlyph>
    <TTGlyph name="breve.cap" xMin="106" yMin="1651" xMax="801" yMax="2000">
      <contour>
        <pt x="451" y="1651" on="1"/>
        <pt x="370" y="1651" on="0"/>
        <pt x="236" y="1705" on="0"/>
        <pt x="145" y="1799" on="0"/>
        <pt x="106" y="1926" on="0"/>
        <pt x="121" y="2000" on="1"/>
        <pt x="230" y="2000" on="1"/>
        <pt x="230" y="1962" on="0"/>
        <pt x="264" y="1893" on="0"/>
        <pt x="322" y="1842" on="0"/>
        <pt x="403" y="1812" on="0"/>
        <pt x="451" y="1812" on="1"/>
        <pt x="499" y="1812" on="0"/>
        <pt x="581" y="1842" on="0"/>
        <pt x="642" y="1893" on="0"/>
        <pt x="677" y="1962" on="0"/>
        <pt x="677" y="2000" on="1"/>
        <pt x="786" y="2000" on="1"/>
        <pt x="801" y="1926" on="0"/>
        <pt x="761" y="1799" on="0"/>
        <pt x="668" y="1705" on="0"/>
        <pt x="532" y="1651" on="0"/>
      </contour>
    </TTGlyph>
    <TTGlyph name="brokenbar" xMin="183" yMin="-360" xMax="329" yMax="1740">
      <contour>
        <pt x="183" y="1732" on="1"/>
        <pt x="329" y="1740" on="1"/>
        <pt x="329" y="851" on="1"/>
        <pt x="183" y="851" on="1"/>
      </contour>
      <contour>
        <pt x="183" y="503" on="1"/>
        <pt x="329" y="511" on="1"/>
        <pt x="329" y="-360" on="1"/>
        <pt x="183" y="-360" on="1"/>
      </contour>
    </TTGlyph>
    <TTGlyph name="bullet" xMin="275" yMin="526" xMax="747" yMax="1002">
      <contour>
        <pt x="510" y="526" on="1"/>
        <pt x="460" y="526" on="0"/>
        <pt x="375" y="565" on="0"/>
        <pt x="311" y="630" on="0"/>
        <pt x="275" y="716" on="0"/>
        <pt x="275" y="763" on="1"/>
        <pt x="275" y="810" on="0"/>
        <pt x="311" y="897" on="0"/>
        <pt x="375" y="963" on="0"/>
        <pt x="460" y="1002" on="0"/>
        <pt x="510" y="1002" on="1"/>
        <pt x="560" y="1002" on="0"/>
        <pt x="647" y="963" on="0"/>
        <pt x="711" y="897" on="0"/>
        <pt x="747" y="810" on="0"/>
        <pt x="747" y="763" on="1"/>
        <pt x="747" y="716" on="0"/>
        <pt x="711" y="630" on="0"/>
        <pt x="647" y="565" on="0"/>
        <pt x="560" y="526" on="0"/>
      </contour>
    </TTGlyph>
    <TTGlyph name="c" xMin="90" yMin="-20" xMax="948" yMax="1042">
      <contour>
        <pt x="90" y="461" on="1"/>
        <pt x="90" y="600" on="0"/>
        <pt x="182" y="817" on="0"/>
        <pt x="337" y="965" on="0"/>
        <pt x="540" y="1042" on="0"/>
        <pt x="650" y="1042" on="1"/>
        <pt x="720" y="1042" on="0"/>
        <pt x="874" y="1014" on="0"/>
        <pt x="944" y="986" on="1"/>
        <pt x="943" y="979" on="0"/>
        <pt x="937" y="930" on="0"/>
        <pt x="929" y="863" on="0"/>
        <pt x="920" y="789" on="0"/>
        <pt x="912" y="726" on="0"/>
        <pt x="907" y="685" on="0"/>
        <pt x="906" y="685" on="1"/>
        <pt x="812" y="685" on="1"/>
        <pt x="799" y="739" on="0"/>
        <pt x="782" y="809" on="0"/>
        <pt x="770" y="851" on="0"/>
        <pt x="761" y="869" on="0"/>
        <pt x="755" y="871" on="1"/>
        <pt x="706" y="882" on="0"/>
        <pt x="610" y="895" on="0"/>
        <pt x="558" y="895" on="1"/>
        <pt x="525" y="895" on="0"/>
        <pt x="451" y="884" on="0"/>
        <pt x="416" y="874" on="1"/>
        <pt x="396" y="861" on="0"/>
        <pt x="362" y="813" on="0"/>
        <pt x="334" y="755" on="0"/>
        <pt x="313" y="691" on="0"/>
        <pt x="298" y="630" on="0"/>
        <pt x="291" y="578" on="0"/>
        <pt x="291" y="562" on="1"/>
        <pt x="291" y="482" on="0"/>
        <pt x="328" y="334" on="0"/>
        <pt x="409" y="220" on="0"/>
        <pt x="539" y="152" on="0"/>
        <pt x="633" y="152" on="1"/>
        <pt x="648" y="152" on="0"/>
        <pt x="716" y="165" on="0"/>
        <pt x="799" y="184" on="0"/>
        <pt x="883" y="207" on="0"/>
        <pt x="915" y="218" on="1"/>
        <pt x="948" y="134" on="1"/>
        <pt x="892" y="100" on="0"/>
        <pt x="777" y="44" on="0"/>
        <pt x="679" y="3" on="0"/>
        <pt x="610" y="-20" on="0"/>
        <pt x="602" y="-20" on="1"/>
        <pt x="494" y="-20" on="0"/>
        <pt x="307" y="41" on="0"/>
        <pt x="169" y="162" on="0"/>
        <pt x="90" y="342" on="0"/>
      </contour>
    </TTGlyph>
    <TTGlyph name="cacute" xMin="90" yMin="-20" xMax="976" yMax="1645">
      <component glyphName="c" x="0" y="0" flags="0x204"/>
      <component glyphName="acute" x="367" y="0" flags="0x4"/>
    </TTGlyph>
    <TTGlyph name="caron" xMin="114" yMin="1184" xMax="832" yMax="1605">
      <contour>
        <pt x="417" y="1184" on="1"/>
        <pt x="379" y="1235" on="0"/>
        <pt x="304" y="1321" on="0"/>
        <pt x="229" y="1405" on="0"/>
        <pt x="153" y="1490" on="0"/>
        <pt x="114" y="1540" on="1"/>
        <pt x="202" y="1605" on="1"/>
        <pt x="473" y="1394" on="1"/>
        <pt x="744" y="1605" on="1"/>
        <pt x="832" y="1540" on="1"/>
        <pt x="793" y="1490" on="0"/>
        <pt x="717" y="1405" on="0"/>
        <pt x="642" y="1321" on="0"/>
        <pt x="567" y="1235" on="0"/>
        <pt x="529" y="1184" on="1"/>
        <pt x="417" y="1184" on="1"/>
      </contour>
    </TTGlyph>
    <TTGlyph name="caron.cap" xMin="114" yMin="1609" xMax="832" yMax="2000">
      <contour>
        <pt x="114" y="1935" on="1"/>
        <pt x="202" y="2000" on="1"/>
        <pt x="473" y="1814" on="1"/>
        <pt x="744" y="2000" on="1"/>
        <pt x="832" y="1935" on="1"/>
        <pt x="529" y="1609" on="1"/>
        <pt x="417" y="1609" on="1"/>
      </contour>
    </TTGlyph>
    <TTGlyph name="caronvertical" xMin="114" yMin="1086" xMax="385" yMax="1632">
      <contour>
        <pt x="165" y="1143" on="1"/>
        <pt x="182" y="1164" on="0"/>
        <pt x="195" y="1193" on="1"/>
        <pt x="206" y="1218" on="0"/>
        <pt x="226" y="1292" on="0"/>
        <pt x="226" y="1340" on="1"/>
        <pt x="226" y="1378" on="0"/>
        <pt x="196" y="1408" on="0"/>
        <pt x="179" y="1411" on="1"/>
        <pt x="158" y="1415" on="0"/>
        <pt x="132" y="1406" on="1"/>
        <pt x="127" y="1451" on="0"/>
        <pt x="123" y="1486" on="1"/>
        <pt x="119" y="1516" on="0"/>
        <pt x="114" y="1566" on="0"/>
        <pt x="115" y="1568" on="1"/>
        <pt x="116" y="1569" on="0"/>
        <pt x="135" y="1589" on="0"/>
        <pt x="171" y="1613" on="0"/>
        <pt x="226" y="1632" on="0"/>
        <pt x="263" y="1632" on="1"/>
        <pt x="300" y="1632" on="0"/>
        <pt x="347" y="1597" on="0"/>
        <pt x="374" y="1544" on="0"/>
        <pt x="385" y="1481" on="0"/>
        <pt x="385" y="1453" on="1"/>
        <pt x="385" y="1375" on="0"/>
        <pt x="347" y="1248" on="0"/>
        <pt x="298" y="1153" on="0"/>
        <pt x="249" y="1095" on="0"/>
        <pt x="237" y="1086" on="1"/>
      </contour>
    </TTGlyph>
    <TTGlyph name="ccaron" xMin="90" yMin="-20" xMax="949" yMax="1645">
      <component glyphName="c" x="0" y="0" flags="0x204"/>
      <component glyphName="caron" x="117" y="40" flags="0x4"/>
    </TTGlyph>
    <TTGlyph name="ccedilla" xMin="90" yMin="-496" xMax="948" yMax="1042">
      <contour>
        <pt x="375" y="-118" on="1"/>
        <pt x="375" y="-105" on="0"/>
        <pt x="396" y="-72" on="0"/>
        <pt x="425" y="-41" on="0"/>
        <pt x="455" y="-14" on="0"/>
        <pt x="465" y="-6" on="1"/>
        <pt x="382" y="10" on="0"/>
        <pt x="245" y="86" on="0"/>
        <pt x="145" y="203" on="0"/>
        <pt x="90" y="361" on="0"/>
        <pt x="90" y="461" on="1"/>
        <pt x="90" y="600" on="0"/>
        <pt x="182" y="817" on="0"/>
        <pt x="337" y="965" on="0"/>
        <pt x="540" y="1042" on="0"/>
        <pt x="650" y="1042" on="1"/>
        <pt x="720" y="1042" on="0"/>
        <pt x="874" y="1014" on="0"/>
        <pt x="944" y="986" on="1"/>
        <pt x="943" y="979" on="0"/>
        <pt x="937" y="930" on="0"/>
        <pt x="929" y="863" on="0"/>
        <pt x="920" y="789" on="0"/>
        <pt x="912" y="726" on="0"/>
        <pt x="907" y="685" on="0"/>
        <pt x="906" y="685" on="1"/>
        <pt x="812" y="685" on="1"/>
        <pt x="799" y="739" on="0"/>
        <pt x="782" y="809" on="0"/>
        <pt x="770" y="851" on="0"/>
        <pt x="761" y="869" on="0"/>
        <pt x="755" y="871" on="1"/>
        <pt x="706" y="882" on="0"/>
        <pt x="610" y="895" on="0"/>
        <pt x="558" y="895" on="1"/>
        <pt x="525" y="895" on="0"/>
        <pt x="451" y="884" on="0"/>
        <pt x="416" y="874" on="1"/>
        <pt x="396" y="861" on="0"/>
        <pt x="362" y="813" on="0"/>
        <pt x="334" y="755" on="0"/>
        <pt x="313" y="691" on="0"/>
        <pt x="298" y="630" on="0"/>
        <pt x="291" y="578" on="0"/>
        <pt x="291" y="562" on="1"/>
        <pt x="291" y="482" on="0"/>
        <pt x="328" y="334" on="0"/>
        <pt x="409" y="220" on="0"/>
        <pt x="539" y="152" on="0"/>
        <pt x="633" y="152" on="1"/>
        <pt x="648" y="152" on="0"/>
        <pt x="716" y="165" on="0"/>
        <pt x="799" y="184" on="0"/>
        <pt x="883" y="207" on="0"/>
        <pt x="915" y="218" on="1"/>
        <pt x="948" y="134" on="1"/>
        <pt x="892" y="100" on="0"/>
        <pt x="777" y="44" on="0"/>
        <pt x="679" y="3" on="0"/>
        <pt x="610" y="-20" on="0"/>
        <pt x="602" y="-20" on="1"/>
        <pt x="594" y="-20" on="0"/>
        <pt x="578" y="-20" on="0"/>
        <pt x="570" y="-19" on="1"/>
        <pt x="556" y="-53" on="1"/>
        <pt x="548" y="-72" on="0"/>
        <pt x="569" y="-101" on="0"/>
        <pt x="612" y="-127" on="0"/>
        <pt x="666" y="-153" on="0"/>
        <pt x="713" y="-186" on="0"/>
        <pt x="746" y="-228" on="0"/>
        <pt x="746" y="-256" on="1"/>
        <pt x="746" y="-312" on="0"/>
        <pt x="695" y="-400" on="0"/>
        <pt x="603" y="-463" on="0"/>
        <pt x="477" y="-496" on="0"/>
        <pt x="402" y="-496" on="1"/>
        <pt x="348" y="-496" on="0"/>
        <pt x="284" y="-486" on="0"/>
        <pt x="267" y="-479" on="1"/>
        <pt x="247" y="-472" on="0"/>
        <pt x="239" y="-462" on="1"/>
        <pt x="291" y="-311" on="1"/>
        <pt x="318" y="-323" on="0"/>
        <pt x="346" y="-333" on="1"/>
        <pt x="370" y="-341" on="0"/>
        <pt x="429" y="-355" on="0"/>
        <pt x="458" y="-355" on="1"/>
        <pt x="520" y="-355" on="0"/>
        <pt x="569" y="-312" on="0"/>
        <pt x="564" y="-285" on="1"/>
        <pt x="562" y="-275" on="0"/>
        <pt x="532" y="-252" on="0"/>
        <pt x="490" y="-227" on="0"/>
        <pt x="442" y="-200" on="0"/>
        <pt x="402" y="-170" on="0"/>
        <pt x="375" y="-137" on="0"/>
      </contour>
    </TTGlyph>
    <TTGlyph name="ccircumflex" xMin="90" yMin="-20" xMax="949" yMax="1645">
      <component glyphName="c" x="0" y="0" flags="0x204"/>
      <component glyphName="circumflex" x="117" y="40" flags="0x4"/>
    </TTGlyph>
    <TTGlyph name="cdotaccent" xMin="90" yMin="-20" xMax="948" yMax="1545">
      <component glyphName="c" x="0" y="0" flags="0x204"/>
      <component glyphName="dotaccent" x="323" y="0" flags="0x4"/>
    </TTGlyph>
    <TTGlyph name="cedilla" xMin="114" yMin="-496" xMax="621" yMax="20">
      <contour>
        <pt x="453" y="0" on="1"/>
        <pt x="450" y="-9" on="0"/>
        <pt x="446" y="-18" on="1"/>
        <pt x="439" y="-35" on="0"/>
        <pt x="431" y="-53" on="1"/>
        <pt x="423" y="-72" on="0"/>
        <pt x="444" y="-101" on="0"/>
        <pt x="487" y="-127" on="0"/>
        <pt x="541" y="-153" on="0"/>
        <pt x="588" y="-186" on="0"/>
        <pt x="621" y="-228" on="0"/>
        <pt x="621" y="-256" on="1"/>
        <pt x="621" y="-312" on="0"/>
        <pt x="570" y="-400" on="0"/>
        <pt x="478" y="-463" on="0"/>
        <pt x="352" y="-496" on="0"/>
        <pt x="277" y="-496" on="1"/>
        <pt x="223" y="-496" on="0"/>
        <pt x="159" y="-486" on="0"/>
        <pt x="142" y="-479" on="1"/>
        <pt x="122" y="-472" on="0"/>
        <pt x="114" y="-462" on="1"/>
        <pt x="166" y="-311" on="1"/>
        <pt x="193" y="-323" on="0"/>
        <pt x="221" y="-333" on="1"/>
        <pt x="245" y="-341" on="0"/>
        <pt x="304" y="-355" on="0"/>
        <pt x="333" y="-355" on="1"/>
        <pt x="395" y="-355" on="0"/>
        <pt x="444" y="-312" on="0"/>
        <pt x="439" y="-285" on="1"/>
        <pt x="436" y="-275" on="0"/>
        <pt x="407" y="-252" on="0"/>
        <pt x="365" y="-227" on="0"/>
        <pt x="317" y="-200" on="0"/>
        <pt x="277" y="-170" on="0"/>
        <pt x="250" y="-137" on="0"/>
        <pt x="250" y="-118" on="1"/>
        <pt x="250" y="-103" on="0"/>
        <pt x="276" y="-67" on="0"/>
        <pt x="309" y="-33" on="0"/>
        <pt x="342" y="-6" on="0"/>
        <pt x="348" y="0" on="1"/>
        <pt x="397" y="20" on="1"/>
      </contour>
    </TTGlyph>
    <TTGlyph name="cent" xMin="93" yMin="-247" xMax="951" yMax="1284">
      <contour>
        <pt x="463" y="-5" on="1"/>
        <pt x="382" y="13" on="0"/>
        <pt x="246" y="92" on="0"/>
        <pt x="148" y="213" on="0"/>
        <pt x="93" y="375" on="0"/>
        <pt x="93" y="476" on="1"/>
        <pt x="93" y="602" on="0"/>
        <pt x="169" y="799" on="0"/>
        <pt x="300" y="940" on="0"/>
        <pt x="473" y="1024" on="0"/>
        <pt x="570" y="1036" on="1"/>
        <pt x="596" y="1284" on="1"/>
        <pt x="710" y="1284" on="1"/>
        <pt x="685" y="1041" on="1"/>
        <pt x="748" y="1038" on="0"/>
        <pt x="874" y="1011" on="0"/>
        <pt x="937" y="986" on="1"/>
        <pt x="936" y="979" on="0"/>
        <pt x="930" y="930" on="0"/>
        <pt x="922" y="863" on="0"/>
        <pt x="913" y="789" on="0"/>
        <pt x="905" y="726" on="0"/>
        <pt x="900" y="685" on="0"/>
        <pt x="899" y="685" on="1"/>
        <pt x="815" y="685" on="1"/>
        <pt x="802" y="739" on="0"/>
        <pt x="785" y="809" on="0"/>
        <pt x="773" y="851" on="0"/>
        <pt x="764" y="869" on="0"/>
        <pt x="758" y="871" on="1"/>
        <pt x="735" y="876" on="0"/>
        <pt x="692" y="885" on="0"/>
        <pt x="669" y="888" on="1"/>
        <pt x="593" y="154" on="1"/>
        <pt x="604" y="152" on="0"/>
        <pt x="625" y="152" on="0"/>
        <pt x="636" y="152" on="1"/>
        <pt x="651" y="152" on="0"/>
        <pt x="719" y="165" on="0"/>
        <pt x="802" y="184" on="0"/>
        <pt x="886" y="207" on="0"/>
        <pt x="918" y="218" on="1"/>
        <pt x="951" y="134" on="1"/>
        <pt x="895" y="100" on="0"/>
        <pt x="780" y="44" on="0"/>
        <pt x="682" y="3" on="0"/>
        <pt x="613" y="-20" on="0"/>
        <pt x="605" y="-20" on="1"/>
        <pt x="597" y="-20" on="0"/>
        <pt x="583" y="-19" on="0"/>
        <pt x="575" y="-19" on="1"/>
        <pt x="552" y="-247" on="1"/>
        <pt x="438" y="-247" on="1"/>
      </contour>
      <contour>
        <pt x="556" y="895" on="1"/>
        <pt x="523" y="895" on="0"/>
        <pt x="449" y="884" on="0"/>
        <pt x="415" y="874" on="1"/>
        <pt x="385" y="854" on="0"/>
        <pt x="340" y="771" on="0"/>
        <pt x="309" y="678" on="0"/>
        <pt x="294" y="590" on="0"/>
        <pt x="294" y="565" on="1"/>
        <pt x="294" y="503" on="0"/>
        <pt x="315" y="386" on="0"/>
        <pt x="360" y="286" on="0"/>
        <pt x="431" y="207" on="0"/>
        <pt x="482" y="183" on="1"/>
      </contour>
    </TTGlyph>
    <TTGlyph name="circumflex" xMin="114" yMin="1189" xMax="832" yMax="1605">
      <contour>
        <pt x="114" y="1254" on="1"/>
        <pt x="153" y="1302" on="0"/>
        <pt x="229" y="1384" on="0"/>
        <pt x="304" y="1465" on="0"/>
        <pt x="379" y="1552" on="0"/>
        <pt x="417" y="1605" on="1"/>
        <pt x="529" y="1605" on="1"/>
        <pt x="567" y="1552" on="0"/>
        <pt x="642" y="1465" on="0"/>
        <pt x="717" y="1384" on="0"/>
        <pt x="793" y="1302" on="0"/>
        <pt x="832" y="1254" on="1"/>
        <pt x="744" y="1189" on="1"/>
        <pt x="473" y="1395" on="1"/>
        <pt x="202" y="1189" on="1"/>
      </contour>
    </TTGlyph>
    <TTGlyph name="circumflex.cap" xMin="114" yMin="1668" xMax="832" yMax="2000">
      <contour>
        <pt x="114" y="1733" on="1"/>
        <pt x="429" y="2000" on="1"/>
        <pt x="541" y="2000" on="1"/>
        <pt x="832" y="1733" on="1"/>
        <pt x="764" y="1668" on="1"/>
        <pt x="485" y="1805" on="1"/>
        <pt x="182" y="1668" on="1"/>
      </contour>
    </TTGlyph>
    <TTGlyph name="colon" xMin="140" yMin="-30" xMax="436" yMax="966">
      <component glyphName="period" x="0" y="0" flags="0x204"/>
      <component glyphName="period" x="0" y="704" flags="0x4"/>
    </TTGlyph>
    <TTGlyph name="comma" xMin="110" yMin="-447" xMax="456" yMax="210">
      <contour>
        <pt x="148" y="-26" on="1"/>
        <pt x="143" y="21" on="0"/>
        <pt x="139" y="59" on="1"/>
        <pt x="137" y="75" on="0"/>
        <pt x="134" y="106" on="0"/>
        <pt x="132" y="130" on="0"/>
        <pt x="131" y="145" on="0"/>
        <pt x="131" y="146" on="1"/>
        <pt x="132" y="147" on="0"/>
        <pt x="157" y="167" on="0"/>
        <pt x="201" y="191" on="0"/>
        <pt x="261" y="210" on="0"/>
        <pt x="296" y="210" on="1"/>
        <pt x="332" y="210" on="0"/>
        <pt x="391" y="184" on="0"/>
        <pt x="433" y="138" on="0"/>
        <pt x="456" y="77" on="0"/>
        <pt x="456" y="41" on="1"/>
        <pt x="456" y="-14" on="0"/>
        <pt x="433" y="-115" on="0"/>
        <pt x="395" y="-204" on="0"/>
        <pt x="348" y="-281" on="0"/>
        <pt x="323" y="-313" on="1"/>
        <pt x="265" y="-388" on="0"/>
        <pt x="191" y="-447" on="1"/>
        <pt x="110" y="-380" on="1"/>
        <pt x="129" y="-356" on="0"/>
        <pt x="183" y="-295" on="0"/>
        <pt x="232" y="-225" on="0"/>
        <pt x="266" y="-145" on="0"/>
        <pt x="266" y="-102" on="1"/>
        <pt x="266" y="-64" on="0"/>
        <pt x="229" y="-31" on="0"/>
        <pt x="207" y="-26" on="1"/>
        <pt x="181" y="-21" on="0"/>
      </contour>
    </TTGlyph>
    <TTGlyph name="commaaccent" xMin="114" yMin="-537" xMax="422" yMax="-147">
      <contour>
        <pt x="262" y="-147" on="1"/>
        <pt x="335" y="-147" on="0"/>
        <pt x="422" y="-219" on="0"/>
        <pt x="422" y="-279" on="1"/>
        <pt x="422" y="-315" on="0"/>
        <pt x="402" y="-375" on="0"/>
        <pt x="371" y="-425" on="0"/>
        <pt x="330" y="-465" on="0"/>
        <pt x="309" y="-480" on="1"/>
        <pt x="259" y="-516" on="0"/>
        <pt x="196" y="-537" on="1"/>
        <pt x="135" y="-483" on="1"/>
        <pt x="164" y="-465" on="0"/>
        <pt x="187" y="-443" on="1"/>
        <pt x="207" y="-425" on="0"/>
        <pt x="239" y="-376" on="0"/>
        <pt x="239" y="-348" on="1"/>
        <pt x="239" y="-321" on="0"/>
        <pt x="202" y="-300" on="0"/>
        <pt x="180" y="-298" on="1"/>
        <pt x="154" y="-296" on="0"/>
        <pt x="122" y="-302" on="1"/>
        <pt x="118" y="-248" on="1"/>
        <pt x="116" y="-228" on="0"/>
        <pt x="114" y="-193" on="0"/>
        <pt x="115" y="-192" on="1"/>
        <pt x="116" y="-191" on="0"/>
        <pt x="134" y="-177" on="0"/>
        <pt x="171" y="-161" on="0"/>
        <pt x="225" y="-147" on="0"/>
      </contour>
    </TTGlyph>
    <TTGlyph name="copyright" xMin="115" yMin="-33" xMax="1705" yMax="1587">
      <contour>
        <pt x="115" y="776" on="1"/>
        <pt x="115" y="887" on="0"/>
        <pt x="172" y="1093" on="0"/>
        <pt x="275" y="1273" on="0"/>
        <pt x="420" y="1422" on="0"/>
        <pt x="596" y="1528" on="0"/>
        <pt x="800" y="1587" on="0"/>
        <pt x="910" y="1587" on="1"/>
        <pt x="1020" y="1587" on="0"/>
        <pt x="1224" y="1531" on="0"/>
        <pt x="1400" y="1429" on="0"/>
        <pt x="1545" y="1283" on="0"/>
        <pt x="1648" y="1103" on="0"/>
        <pt x="1705" y="893" on="0"/>
        <pt x="1705" y="778" on="1"/>
        <pt x="1705" y="667" on="0"/>
        <pt x="1648" y="461" on="0"/>
        <pt x="1545" y="281" on="0"/>
        <pt x="1400" y="132" on="0"/>
        <pt x="1224" y="26" on="0"/>
        <pt x="1020" y="-33" on="0"/>
        <pt x="910" y="-33" on="1"/>
        <pt x="800" y="-33" on="0"/>
        <pt x="596" y="23" on="0"/>
        <pt x="420" y="125" on="0"/>
        <pt x="275" y="271" on="0"/>
        <pt x="172" y="451" on="0"/>
        <pt x="115" y="660" on="0"/>
      </contour>
      <contour>
        <pt x="253" y="776" on="1"/>
        <pt x="253" y="678" on="0"/>
        <pt x="297" y="497" on="0"/>
        <pt x="379" y="337" on="0"/>
        <pt x="496" y="206" on="0"/>
        <pt x="642" y="112" on="0"/>
        <pt x="814" y="60" on="0"/>
        <pt x="910" y="60" on="1"/>
        <pt x="1006" y="60" on="0"/>
        <pt x="1178" y="115" on="0"/>
        <pt x="1324" y="212" on="0"/>
        <pt x="1441" y="346" on="0"/>
        <pt x="1523" y="506" on="0"/>
        <pt x="1567" y="685" on="0"/>
        <pt x="1567" y="778" on="1"/>
        <pt x="1567" y="875" on="0"/>
        <pt x="1523" y="1057" on="0"/>
        <pt x="1441" y="1216" on="0"/>
        <pt x="1324" y="1348" on="0"/>
        <pt x="1178" y="1442" on="0"/>
        <pt x="1006" y="1493" on="0"/>
        <pt x="910" y="1493" on="1"/>
        <pt x="814" y="1493" on="0"/>
        <pt x="642" y="1439" on="0"/>
        <pt x="496" y="1341" on="0"/>
        <pt x="379" y="1207" on="0"/>
        <pt x="297" y="1048" on="0"/>
        <pt x="253" y="869" on="0"/>
      </contour>
      <contour>
        <pt x="456" y="755" on="1"/>
        <pt x="456" y="849" on="0"/>
        <pt x="515" y="1029" on="0"/>
        <pt x="632" y="1169" on="0"/>
        <pt x="806" y="1254" on="0"/>
        <pt x="921" y="1254" on="1"/>
        <pt x="987" y="1254" on="0"/>
        <pt x="1105" y="1236" on="0"/>
        <pt x="1151" y="1225" on="1"/>
        <pt x="1205" y="1212" on="0"/>
        <pt x="1251" y="1196" on="1"/>
        <pt x="1224" y="929" on="1"/>
        <pt x="1153" y="929" on="1"/>
        <pt x="1120" y="1096" on="1"/>
        <pt x="1084" y="1112" on="0"/>
        <pt x="996" y="1133" on="0"/>
        <pt x="898" y="1141" on="0"/>
        <pt x="793" y="1132" on="0"/>
        <pt x="741" y="1118" on="1"/>
        <pt x="681" y="1060" on="0"/>
        <pt x="624" y="909" on="0"/>
        <pt x="624" y="820" on="1"/>
        <pt x="624" y="729" on="0"/>
        <pt x="681" y="587" on="0"/>
        <pt x="780" y="489" on="0"/>
        <pt x="915" y="438" on="0"/>
        <pt x="993" y="438" on="1"/>
        <pt x="1002" y="438" on="0"/>
        <pt x="1044" y="453" on="0"/>
        <pt x="1099" y="476" on="0"/>
        <pt x="1162" y="503" on="0"/>
        <pt x="1192" y="515" on="1"/>
        <pt x="1230" y="440" on="1"/>
        <pt x="1147" y="384" on="0"/>
        <pt x="1041" y="325" on="0"/>
        <pt x="977" y="299" on="0"/>
        <pt x="946" y="295" on="0"/>
        <pt x="939" y="295" on="1"/>
        <pt x="819" y="295" on="0"/>
        <pt x="638" y="372" on="0"/>
        <pt x="517" y="500" on="0"/>
        <pt x="456" y="666" on="0"/>
      </contour>
    </TTGlyph>
    <TTGlyph name="currency" xMin="105" yMin="138" xMax="1222" yMax="1307">
      <contour>
        <pt x="105" y="248" on="1"/>
        <pt x="280" y="431" on="1"/>
        <pt x="235" y="493" on="0"/>
        <pt x="187" y="640" on="0"/>
        <pt x="187" y="721" on="1"/>
        <pt x="187" y="802" on="0"/>
        <pt x="236" y="949" on="0"/>
        <pt x="281" y="1012" on="1"/>
        <pt x="106" y="1196" on="1"/>
        <pt x="211" y="1307" on="1"/>
        <pt x="390" y="1121" on="1"/>
        <pt x="448" y="1163" on="0"/>
        <pt x="585" y="1210" on="0"/>
        <pt x="662" y="1210" on="1"/>
        <pt x="740" y="1210" on="0"/>
        <pt x="878" y="1162" on="0"/>
        <pt x="936" y="1120" on="1"/>
        <pt x="1118" y="1307" on="1"/>
        <pt x="1222" y="1196" on="1"/>
        <pt x="1045" y="1010" on="1"/>
        <pt x="1090" y="948" on="0"/>
        <pt x="1139" y="801" on="0"/>
        <pt x="1139" y="721" on="1"/>
        <pt x="1139" y="640" on="0"/>
        <pt x="1091" y="495" on="0"/>
        <pt x="1047" y="433" on="1"/>
        <pt x="1222" y="248" on="1"/>
        <pt x="1118" y="138" on="1"/>
        <pt x="938" y="323" on="1"/>
        <pt x="879" y="280" on="0"/>
        <pt x="740" y="232" on="0"/>
        <pt x="662" y="232" on="1"/>
        <pt x="584" y="232" on="0"/>
        <pt x="445" y="280" on="0"/>
        <pt x="387" y="322" on="1"/>
        <pt x="207" y="138" on="1"/>
      </contour>
      <contour>
        <pt x="662" y="377" on="1"/>
        <pt x="732" y="377" on="0"/>
        <pt x="854" y="432" on="0"/>
        <pt x="944" y="526" on="0"/>
        <pt x="996" y="651" on="0"/>
        <pt x="996" y="721" on="1"/>
        <pt x="996" y="791" on="0"/>
        <pt x="944" y="915" on="0"/>
        <pt x="854" y="1009" on="0"/>
        <pt x="732" y="1064" on="0"/>
        <pt x="662" y="1064" on="1"/>
        <pt x="592" y="1064" on="0"/>
        <pt x="470" y="1009" on="0"/>
        <pt x="380" y="915" on="0"/>
        <pt x="328" y="791" on="0"/>
        <pt x="328" y="721" on="1"/>
        <pt x="328" y="651" on="0"/>
        <pt x="380" y="526" on="0"/>
        <pt x="470" y="432" on="0"/>
        <pt x="592" y="377" on="0"/>
      </contour>
    </TTGlyph>
    <TTGlyph name="d" xMin="90" yMin="-19" xMax="1168" yMax="1645">
      <contour>
        <pt x="90" y="464" on="1"/>
        <pt x="90" y="579" on="0"/>
        <pt x="146" y="764" on="0"/>
        <pt x="199" y="833" on="1"/>
        <pt x="237" y="885" on="0"/>
        <pt x="336" y="963" on="0"/>
        <pt x="445" y="1015" on="0"/>
        <pt x="561" y="1042" on="0"/>
        <pt x="616" y="1042" on="1"/>
        <pt x="673" y="1042" on="0"/>
        <pt x="782" y="1025" on="0"/>
        <pt x="826" y="1017" on="1"/>
        <pt x="826" y="1219" on="1"/>
        <pt x="826" y="1254" on="0"/>
        <pt x="826" y="1315" on="0"/>
        <pt x="812" y="1367" on="0"/>
        <pt x="779" y="1410" on="0"/>
        <pt x="745" y="1427" on="1"/>
        <pt x="725" y="1438" on="0"/>
        <pt x="682" y="1448" on="0"/>
        <pt x="652" y="1454" on="1"/>
        <pt x="652" y="1527" on="1"/>
        <pt x="718" y="1542" on="0"/>
        <pt x="815" y="1567" on="0"/>
        <pt x="896" y="1594" on="0"/>
        <pt x="971" y="1625" on="0"/>
        <pt x="1015" y="1645" on="1"/>
        <pt x="1053" y="1624" on="1"/>
        <pt x="1048" y="1570" on="0"/>
        <pt x="1042" y="1492" on="0"/>
        <pt x="1039" y="1421" on="0"/>
        <pt x="1037" y="1344" on="0"/>
        <pt x="1036" y="1290" on="1"/>
        <pt x="1036" y="182" on="1"/>
        <pt x="1036" y="174" on="0"/>
        <pt x="1042" y="150" on="0"/>
        <pt x="1047" y="142" on="1"/>
        <pt x="1053" y="135" on="0"/>
        <pt x="1080" y="118" on="0"/>
        <pt x="1113" y="102" on="0"/>
        <pt x="1151" y="87" on="0"/>
        <pt x="1168" y="82" on="1"/>
        <pt x="1168" y="0" on="1"/>
        <pt x="841" y="0" on="1"/>
        <pt x="838" y="21" on="0"/>
        <pt x="836" y="46" on="1"/>
        <pt x="834" y="66" on="0"/>
        <pt x="832" y="119" on="0"/>
        <pt x="832" y="147" on="1"/>
        <pt x="723" y="59" on="0"/>
        <pt x="554" y="-19" on="0"/>
        <pt x="501" y="-19" on="1"/>
        <pt x="428" y="-19" on="0"/>
        <pt x="309" y="23" on="0"/>
        <pt x="218" y="94" on="0"/>
        <pt x="152" y="190" on="0"/>
        <pt x="110" y="297" on="0"/>
        <pt x="90" y="410" on="0"/>
      </contour>
      <contour>
        <pt x="525" y="142" on="1"/>
        <pt x="553" y="142" on="0"/>
        <pt x="632" y="162" on="0"/>
        <pt x="716" y="193" on="0"/>
        <pt x="796" y="231" on="0"/>
        <pt x="826" y="249" on="1"/>
        <pt x="826" y="850" on="1"/>
        <pt x="780" y="876" on="0"/>
        <pt x="641" y="913" on="0"/>
        <pt x="562" y="915" on="1"/>
        <pt x="512" y="916" on="0"/>
        <pt x="419" y="877" on="0"/>
        <pt x="347" y="788" on="0"/>
        <pt x="304" y="643" on="0"/>
        <pt x="304" y="538" on="1"/>
        <pt x="304" y="451" on="0"/>
        <pt x="340" y="305" on="0"/>
        <pt x="400" y="200" on="0"/>
        <pt x="480" y="142" on="0"/>
      </contour>
    </TTGlyph>
    <TTGlyph name="dagger" xMin="160" yMin="-303" xMax="1155" yMax="1649">
      <contour>
        <pt x="160" y="1231" on="1"/>
        <pt x="601" y="1189" on="1"/>
        <pt x="556" y="1649" on="1"/>
        <pt x="762" y="1649" on="1"/>
        <pt x="717" y="1189" on="1"/>
        <pt x="601" y="1189" on="1"/>
        <pt x="601" y="1073" on="1"/>
        <pt x="160" y="1027" on="1"/>
      </contour>
      <contour>
        <pt x="717" y="1189" on="1"/>
        <pt x="1155" y="1231" on="1"/>
        <pt x="1155" y="1027" on="1"/>
        <pt x="717" y="1073" on="1"/>
      </contour>
      <contour>
        <pt x="601" y="1073" on="1"/>
        <pt x="717" y="1073" on="1"/>
        <pt x="761" y="-298" on="1"/>
        <pt x="761" y="-303" on="1"/>
        <pt x="556" y="-303" on="1"/>
        <pt x="556" y="-298" on="1"/>
      </contour>
    </TTGlyph>
    <TTGlyph name="daggerdbl" xMin="160" yMin="-401" xMax="1155" yMax="1649">
      <contour>
        <pt x="160" y="1231" on="1"/>
        <pt x="601" y="1196" on="1"/>
        <pt x="556" y="1649" on="1"/>
        <pt x="762" y="1649" on="1"/>
        <pt x="717" y="1196" on="1"/>
        <pt x="601" y="1196" on="1"/>
        <pt x="601" y="1080" on="1"/>
        <pt x="160" y="1027" on="1"/>
      </contour>
      <contour>
        <pt x="717" y="1196" on="1"/>
        <pt x="1155" y="1231" on="1"/>
        <pt x="1155" y="1027" on="1"/>
        <pt x="717" y="1080" on="1"/>
      </contour>
      <contour>
        <pt x="556" y="621" on="1"/>
        <pt x="556" y="626" on="1"/>
        <pt x="601" y="1080" on="1"/>
        <pt x="717" y="1080" on="1"/>
        <pt x="761" y="626" on="1"/>
        <pt x="761" y="621" on="1"/>
        <pt x="717" y="173" on="1"/>
        <pt x="1155" y="208" on="1"/>
        <pt x="1155" y="4" on="1"/>
        <pt x="717" y="57" on="1"/>
        <pt x="717" y="173" on="1"/>
        <pt x="601" y="173" on="1"/>
      </contour>
      <contour>
        <pt x="160" y="208" on="1"/>
        <pt x="601" y="173" on="1"/>
        <pt x="601" y="57" on="1"/>
        <pt x="160" y="4" on="1"/>
      </contour>
      <contour>
        <pt x="717" y="57" on="1"/>
        <pt x="762" y="-401" on="1"/>
        <pt x="556" y="-401" on="1"/>
        <pt x="601" y="57" on="1"/>
      </contour>
    </TTGlyph>
    <TTGlyph name="dcaron" xMin="114" yMin="-19" xMax="1425" yMax="1645">
      <component glyphName="d" x="24" y="0" flags="0x4"/>
      <component glyphName="caronvertical" x="1040" y="0" flags="0x4"/>
    </TTGlyph>
    <TTGlyph name="dcroat" xMin="90" yMin="-19" xMax="1169" yMax="1645">
      <contour>
        <pt x="90" y="464" on="1"/>
        <pt x="90" y="579" on="0"/>
        <pt x="146" y="764" on="0"/>
        <pt x="199" y="833" on="1"/>
        <pt x="237" y="885" on="0"/>
        <pt x="336" y="963" on="0"/>
        <pt x="445" y="1015" on="0"/>
        <pt x="561" y="1042" on="0"/>
        <pt x="616" y="1042" on="1"/>
        <pt x="673" y="1042" on="0"/>
        <pt x="782" y="1025" on="0"/>
        <pt x="826" y="1017" on="1"/>
        <pt x="826" y="1162" on="1"/>
        <pt x="541" y="1162" on="1"/>
        <pt x="541" y="1287" on="1"/>
        <pt x="826" y="1287" on="1"/>
        <pt x="825" y="1309" on="0"/>
        <pt x="818" y="1349" on="0"/>
        <pt x="801" y="1384" on="0"/>
        <pt x="770" y="1414" on="0"/>
        <pt x="745" y="1427" on="1"/>
        <pt x="725" y="1438" on="0"/>
        <pt x="682" y="1448" on="0"/>
        <pt x="652" y="1454" on="1"/>
        <pt x="652" y="1527" on="1"/>
        <pt x="718" y="1542" on="0"/>
        <pt x="815" y="1567" on="0"/>
        <pt x="896" y="1594" on="0"/>
        <pt x="971" y="1625" on="0"/>
        <pt x="1015" y="1645" on="1"/>
        <pt x="1053" y="1624" on="1"/>
        <pt x="1048" y="1570" on="0"/>
        <pt x="1042" y="1492" on="0"/>
        <pt x="1039" y="1421" on="0"/>
        <pt x="1037" y="1344" on="0"/>
        <pt x="1036" y="1290" on="1"/>
        <pt x="1036" y="1287" on="1"/>
        <pt x="1169" y="1287" on="1"/>
        <pt x="1169" y="1162" on="1"/>
        <pt x="1036" y="1162" on="1"/>
        <pt x="1036" y="182" on="1"/>
        <pt x="1036" y="174" on="0"/>
        <pt x="1042" y="150" on="0"/>
        <pt x="1047" y="142" on="1"/>
        <pt x="1053" y="135" on="0"/>
        <pt x="1080" y="118" on="0"/>
        <pt x="1113" y="102" on="0"/>
        <pt x="1151" y="87" on="0"/>
        <pt x="1168" y="82" on="1"/>
        <pt x="1168" y="0" on="1"/>
        <pt x="841" y="0" on="1"/>
        <pt x="838" y="21" on="0"/>
        <pt x="836" y="46" on="1"/>
        <pt x="834" y="66" on="0"/>
        <pt x="832" y="119" on="0"/>
        <pt x="832" y="147" on="1"/>
        <pt x="723" y="59" on="0"/>
        <pt x="554" y="-19" on="0"/>
        <pt x="501" y="-19" on="1"/>
        <pt x="428" y="-19" on="0"/>
        <pt x="309" y="23" on="0"/>
        <pt x="218" y="94" on="0"/>
        <pt x="152" y="190" on="0"/>
        <pt x="110" y="297" on="0"/>
        <pt x="90" y="410" on="0"/>
      </contour>
      <contour>
        <pt x="525" y="142" on="1"/>
        <pt x="553" y="142" on="0"/>
        <pt x="632" y="162" on="0"/>
        <pt x="716" y="193" on="0"/>
        <pt x="796" y="231" on="0"/>
        <pt x="826" y="249" on="1"/>
        <pt x="826" y="850" on="1"/>
        <pt x="780" y="876" on="0"/>
        <pt x="641" y="913" on="0"/>
        <pt x="562" y="915" on="1"/>
        <pt x="512" y="916" on="0"/>
        <pt x="419" y="877" on="0"/>
        <pt x="347" y="788" on="0"/>
        <pt x="304" y="643" on="0"/>
        <pt x="304" y="538" on="1"/>
        <pt x="304" y="451" on="0"/>
        <pt x="340" y="305" on="0"/>
        <pt x="400" y="200" on="0"/>
        <pt x="480" y="142" on="0"/>
      </contour>
    </TTGlyph>
    <TTGlyph name="degree" xMin="144" yMin="836" xMax="878" yMax="1569">
      <contour>
        <pt x="511" y="836" on="1"/>
        <pt x="429" y="836" on="0"/>
        <pt x="294" y="895" on="0"/>
        <pt x="197" y="995" on="0"/>
        <pt x="144" y="1128" on="0"/>
        <pt x="144" y="1202" on="1"/>
        <pt x="144" y="1276" on="0"/>
        <pt x="197" y="1409" on="0"/>
        <pt x="294" y="1510" on="0"/>
        <pt x="429" y="1569" on="0"/>
        <pt x="511" y="1569" on="1"/>
        <pt x="593" y="1569" on="0"/>
        <pt x="728" y="1510" on="0"/>
        <pt x="825" y="1410" on="0"/>
        <pt x="878" y="1277" on="0"/>
        <pt x="878" y="1203" on="1"/>
        <pt x="878" y="1129" on="0"/>
        <pt x="825" y="996" on="0"/>
        <pt x="728" y="895" on="0"/>
        <pt x="593" y="836" on="0"/>
      </contour>
      <contour>
        <pt x="511" y="968" on="1"/>
        <pt x="563" y="968" on="0"/>
        <pt x="644" y="1008" on="0"/>
        <pt x="699" y="1074" on="0"/>
        <pt x="727" y="1158" on="0"/>
        <pt x="727" y="1203" on="1"/>
        <pt x="727" y="1248" on="0"/>
        <pt x="699" y="1332" on="0"/>
        <pt x="644" y="1398" on="0"/>
        <pt x="563" y="1438" on="0"/>
        <pt x="511" y="1438" on="1"/>
        <pt x="459" y="1438" on="0"/>
        <pt x="378" y="1398" on="0"/>
        <pt x="323" y="1332" on="0"/>
        <pt x="295" y="1247" on="0"/>
        <pt x="295" y="1202" on="1"/>
        <pt x="295" y="1157" on="0"/>
        <pt x="323" y="1073" on="0"/>
        <pt x="378" y="1008" on="0"/>
        <pt x="459" y="968" on="0"/>
      </contour>
    </TTGlyph>
    <TTGlyph name="dieresis" xMin="113" yMin="1244" xMax="826" yMax="1536">
      <contour>
        <pt x="720" y="1253" on="1"/>
        <pt x="689" y="1244" on="0"/>
        <pt x="635" y="1251" on="0"/>
        <pt x="592" y="1278" on="0"/>
        <pt x="563" y="1320" on="0"/>
        <pt x="557" y="1346" on="1"/>
        <pt x="551" y="1373" on="0"/>
        <pt x="557" y="1427" on="0"/>
        <pt x="581" y="1474" on="0"/>
        <pt x="625" y="1510" on="0"/>
        <pt x="657" y="1519" on="1"/>
        <pt x="718" y="1536" on="0"/>
        <pt x="807" y="1483" on="0"/>
        <pt x="820" y="1426" on="1"/>
        <pt x="826" y="1401" on="0"/>
        <pt x="819" y="1347" on="0"/>
        <pt x="795" y="1299" on="0"/>
        <pt x="751" y="1262" on="0"/>
      </contour>
      <contour>
        <pt x="282" y="1253" on="1"/>
        <pt x="251" y="1244" on="0"/>
        <pt x="197" y="1251" on="0"/>
        <pt x="154" y="1278" on="0"/>
        <pt x="125" y="1320" on="0"/>
        <pt x="119" y="1346" on="1"/>
        <pt x="113" y="1373" on="0"/>
        <pt x="119" y="1427" on="0"/>
        <pt x="143" y="1474" on="0"/>
        <pt x="187" y="1510" on="0"/>
        <pt x="219" y="1519" on="1"/>
        <pt x="280" y="1536" on="0"/>
        <pt x="369" y="1483" on="0"/>
        <pt x="382" y="1426" on="1"/>
        <pt x="388" y="1401" on="0"/>
        <pt x="381" y="1347" on="0"/>
        <pt x="357" y="1299" on="0"/>
        <pt x="313" y="1262" on="0"/>
      </contour>
    </TTGlyph>
    <TTGlyph name="dieresis.cap" xMin="114" yMin="1722" xMax="823" yMax="2000">
      <contour>
        <pt x="677" y="1722" on="1"/>
        <pt x="649" y="1722" on="0"/>
        <pt x="603" y="1743" on="0"/>
        <pt x="570" y="1780" on="0"/>
        <pt x="552" y="1829" on="0"/>
        <pt x="552" y="1857" on="1"/>
        <pt x="552" y="1882" on="0"/>
        <pt x="570" y="1934" on="0"/>
        <pt x="606" y="1974" on="0"/>
        <pt x="662" y="2000" on="0"/>
        <pt x="700" y="2000" on="1"/>
        <pt x="725" y="2000" on="0"/>
        <pt x="770" y="1982" on="0"/>
        <pt x="803" y="1947" on="0"/>
        <pt x="823" y="1898" on="0"/>
        <pt x="823" y="1868" on="1"/>
        <pt x="823" y="1838" on="0"/>
        <pt x="801" y="1785" on="0"/>
        <pt x="762" y="1745" on="0"/>
        <pt x="708" y="1722" on="0"/>
      </contour>
      <contour>
        <pt x="239" y="1722" on="1"/>
        <pt x="211" y="1722" on="0"/>
        <pt x="165" y="1743" on="0"/>
        <pt x="132" y="1780" on="0"/>
        <pt x="114" y="1829" on="0"/>
        <pt x="114" y="1857" on="1"/>
        <pt x="114" y="1882" on="0"/>
        <pt x="132" y="1934" on="0"/>
        <pt x="168" y="1974" on="0"/>
        <pt x="224" y="2000" on="0"/>
        <pt x="262" y="2000" on="1"/>
        <pt x="287" y="2000" on="0"/>
        <pt x="332" y="1982" on="0"/>
        <pt x="365" y="1947" on="0"/>
        <pt x="385" y="1898" on="0"/>
        <pt x="385" y="1868" on="1"/>
        <pt x="385" y="1838" on="0"/>
        <pt x="363" y="1785" on="0"/>
        <pt x="324" y="1745" on="0"/>
        <pt x="270" y="1722" on="0"/>
      </contour>
    </TTGlyph>
    <TTGlyph name="divide" xMin="169" yMin="82" xMax="999" yMax="1155">
      <contour>
        <pt x="581" y="874" on="1"/>
        <pt x="555" y="874" on="0"/>
        <pt x="510" y="898" on="0"/>
        <pt x="477" y="938" on="0"/>
        <pt x="459" y="989" on="0"/>
        <pt x="459" y="1015" on="1"/>
        <pt x="459" y="1042" on="0"/>
        <pt x="477" y="1092" on="0"/>
        <pt x="509" y="1131" on="0"/>
        <pt x="554" y="1155" on="0"/>
        <pt x="581" y="1155" on="1"/>
        <pt x="608" y="1155" on="0"/>
        <pt x="655" y="1131" on="0"/>
        <pt x="689" y="1092" on="0"/>
        <pt x="709" y="1042" on="0"/>
        <pt x="709" y="1015" on="1"/>
        <pt x="709" y="988" on="0"/>
        <pt x="689" y="937" on="0"/>
        <pt x="655" y="898" on="0"/>
        <pt x="608" y="874" on="0"/>
      </contour>
      <contour>
        <pt x="169" y="702" on="1"/>
        <pt x="999" y="702" on="1"/>
        <pt x="999" y="539" on="1"/>
        <pt x="169" y="539" on="1"/>
      </contour>
      <contour>
        <pt x="459" y="223" on="1"/>
        <pt x="459" y="250" on="0"/>
        <pt x="477" y="302" on="0"/>
        <pt x="510" y="343" on="0"/>
        <pt x="555" y="367" on="0"/>
        <pt x="581" y="367" on="1"/>
        <pt x="609" y="367" on="0"/>
        <pt x="656" y="343" on="0"/>
        <pt x="690" y="302" on="0"/>
        <pt x="709" y="250" on="0"/>
        <pt x="709" y="223" on="1"/>
        <pt x="709" y="196" on="0"/>
        <pt x="690" y="145" on="0"/>
        <pt x="656" y="106" on="0"/>
        <pt x="609" y="82" on="0"/>
        <pt x="581" y="82" on="1"/>
        <pt x="554" y="82" on="0"/>
        <pt x="509" y="106" on="0"/>
        <pt x="477" y="145" on="0"/>
        <pt x="459" y="196" on="0"/>
      </contour>
    </TTGlyph>
    <TTGlyph name="dollar" xMin="149" yMin="-219" xMax="1214" yMax="1768">
      <contour>
        <pt x="193" y="499" on="1"/>
        <pt x="307" y="497" on="1"/>
        <pt x="349" y="249" on="1"/>
        <pt x="355" y="227" on="0"/>
        <pt x="367" y="200" on="0"/>
        <pt x="380" y="184" on="0"/>
        <pt x="392" y="175" on="0"/>
        <pt x="397" y="172" on="1"/>
        <pt x="414" y="163" on="0"/>
        <pt x="465" y="147" on="0"/>
        <pt x="529" y="132" on="0"/>
        <pt x="602" y="120" on="0"/>
        <pt x="640" y="116" on="1"/>
        <pt x="644" y="670" on="1"/>
        <pt x="587" y="690" on="0"/>
        <pt x="473" y="733" on="0"/>
        <pt x="368" y="787" on="0"/>
        <pt x="276" y="856" on="0"/>
        <pt x="209" y="948" on="0"/>
        <pt x="170" y="1066" on="0"/>
        <pt x="170" y="1143" on="1"/>
        <pt x="170" y="1239" on="0"/>
        <pt x="251" y="1384" on="0"/>
        <pt x="384" y="1485" on="0"/>
        <pt x="557" y="1544" on="0"/>
        <pt x="650" y="1555" on="1"/>
        <pt x="650" y="1768" on="1"/>
        <pt x="759" y="1768" on="1"/>
        <pt x="759" y="1562" on="1"/>
        <pt x="817" y="1562" on="0"/>
        <pt x="907" y="1553" on="0"/>
        <pt x="991" y="1538" on="0"/>
        <pt x="1081" y="1520" on="0"/>
        <pt x="1138" y="1512" on="1"/>
        <pt x="1109" y="1116" on="1"/>
        <pt x="1002" y="1116" on="1"/>
        <pt x="962" y="1292" on="1"/>
        <pt x="957" y="1315" on="0"/>
        <pt x="944" y="1346" on="0"/>
        <pt x="926" y="1369" on="0"/>
        <pt x="904" y="1384" on="0"/>
        <pt x="890" y="1391" on="1"/>
        <pt x="836" y="1412" on="0"/>
        <pt x="759" y="1420" on="1"/>
        <pt x="755" y="874" on="1"/>
        <pt x="810" y="855" on="0"/>
        <pt x="922" y="815" on="0"/>
        <pt x="1024" y="765" on="0"/>
        <pt x="1112" y="701" on="0"/>
        <pt x="1177" y="615" on="0"/>
        <pt x="1214" y="503" on="0"/>
        <pt x="1214" y="431" on="1"/>
        <pt x="1214" y="324" on="0"/>
        <pt x="1143" y="169" on="0"/>
        <pt x="1018" y="62" on="0"/>
        <pt x="848" y="0" on="0"/>
        <pt x="749" y="-13" on="1"/>
        <pt x="749" y="-219" on="1"/>
        <pt x="640" y="-219" on="1"/>
        <pt x="640" y="-22" on="1"/>
        <pt x="626" y="-23" on="0"/>
        <pt x="596" y="-24" on="0"/>
        <pt x="582" y="-24" on="1"/>
        <pt x="531" y="-24" on="0"/>
        <pt x="418" y="-4" on="0"/>
        <pt x="305" y="30" on="0"/>
        <pt x="197" y="75" on="0"/>
        <pt x="149" y="100" on="1"/>
      </contour>
      <contour>
        <pt x="650" y="1425" on="1"/>
        <pt x="593" y="1424" on="0"/>
        <pt x="494" y="1403" on="0"/>
        <pt x="461" y="1383" on="1"/>
        <pt x="450" y="1369" on="0"/>
        <pt x="421" y="1344" on="0"/>
        <pt x="395" y="1306" on="0"/>
        <pt x="377" y="1251" on="0"/>
        <pt x="377" y="1209" on="1"/>
        <pt x="377" y="1147" on="0"/>
        <pt x="419" y="1055" on="0"/>
        <pt x="492" y="986" on="0"/>
        <pt x="590" y="934" on="0"/>
        <pt x="646" y="913" on="1"/>
      </contour>
      <contour>
        <pt x="749" y="112" on="1"/>
        <pt x="789" y="113" on="0"/>
        <pt x="859" y="136" on="0"/>
        <pt x="917" y="169" on="0"/>
        <pt x="962" y="207" on="0"/>
        <pt x="978" y="224" on="1"/>
        <pt x="991" y="241" on="0"/>
        <pt x="1012" y="295" on="0"/>
        <pt x="1012" y="348" on="1"/>
        <pt x="1012" y="405" on="0"/>
        <pt x="972" y="492" on="0"/>
        <pt x="901" y="558" on="0"/>
        <pt x="807" y="609" on="0"/>
        <pt x="753" y="630" on="1"/>
      </contour>
    </TTGlyph>
    <TTGlyph name="dotaccent" xMin="114" yMin="1267" xMax="419" yMax="1545">
      <contour>
        <pt x="254" y="1267" on="1"/>
        <pt x="222" y="1267" on="0"/>
        <pt x="170" y="1289" on="0"/>
        <pt x="134" y="1326" on="0"/>
        <pt x="114" y="1375" on="0"/>
        <pt x="114" y="1403" on="1"/>
        <pt x="114" y="1428" on="0"/>
        <pt x="134" y="1479" on="0"/>
        <pt x="176" y="1519" on="0"/>
        <pt x="239" y="1545" on="0"/>
        <pt x="281" y="1545" on="1"/>
        <pt x="309" y="1545" on="0"/>
        <pt x="360" y="1526" on="0"/>
        <pt x="397" y="1492" on="0"/>
        <pt x="419" y="1443" on="0"/>
        <pt x="419" y="1413" on="1"/>
        <pt x="419" y="1380" on="0"/>
        <pt x="392" y="1327" on="0"/>
        <pt x="346" y="1288" on="0"/>
        <pt x="286" y="1267" on="0"/>
      </contour>
    </TTGlyph>
</ttFont>
